<svg width="155" height="46" viewBox="0 0 155 46" fill="none" xmlns="http://www.w3.org/2000/svg">
    <path d="M149.485 46H5.42959C2.43637 46 0 43.5528 0 40.557V5.4349C0 2.438 2.43637 0 5.42959 0H149.485C152.478 0 155 2.438 155 5.4349V40.557C155 43.5528 152.478 46 149.485 46Z" fill="#A6A6A6"/>
    <path d="M153.889 40.5581C153.889 42.9915 151.921 44.9626 149.487 44.9626H5.42959C2.99667 44.9626 1.02185 42.9915 1.02185 40.5581V5.43369C1.02185 3.00144 2.99667 1.02344 5.42959 1.02344H149.485C151.921 1.02344 153.887 3.00144 153.887 5.43369L153.889 40.5581Z" fill="#0B111A"/>
    <path d="M81.6957 16.1641C80.7119 16.1641 79.8825 15.823 79.2266 15.1516C78.5761 14.4989 78.2129 13.5992 78.2291 12.6807C78.2291 11.7004 78.5652 10.8705 79.2266 10.2125C79.8798 9.54104 80.7091 9.19995 81.693 9.19995C82.6661 9.19995 83.4955 9.54104 84.1622 10.2125C84.8236 10.892 85.1596 11.7219 85.1596 12.6807C85.1488 13.6637 84.8127 14.4936 84.1622 15.1489C83.509 15.8257 82.6796 16.1641 81.6957 16.1641ZM52.4206 16.1641C51.4584 16.1641 50.6236 15.8284 49.9405 15.165C49.2629 14.5043 48.9187 13.669 48.9187 12.6834C48.9187 11.6977 49.2629 10.8624 49.9405 10.2017C50.61 9.53836 51.4448 9.20264 52.4206 9.20264C52.8976 9.20264 53.3611 9.29664 53.8056 9.48733C54.242 9.67264 54.597 9.92511 54.8599 10.234L54.925 10.3119L54.1905 11.0263L54.1146 10.9376C53.6999 10.4488 53.1442 10.2098 52.4097 10.2098C51.7538 10.2098 51.1819 10.4408 50.7103 10.8973C50.236 11.3566 49.9947 11.9582 49.9947 12.6861C49.9947 13.4139 50.236 14.0155 50.7103 14.4748C51.1819 14.9314 51.7538 15.1623 52.4097 15.1623C53.109 15.1623 53.6972 14.9314 54.1552 14.4748C54.4263 14.2062 54.5943 13.8302 54.6539 13.3548H52.2986V12.3503H55.6649L55.6785 12.4417C55.7029 12.6109 55.7273 12.7854 55.7273 12.9466C55.7273 13.8732 55.4454 14.6225 54.887 15.1758C54.2528 15.8311 53.4234 16.1641 52.4206 16.1641ZM91.3448 16.0218H90.3067L87.1274 10.9806L87.1545 11.8884V16.0191H86.1164V9.34498H87.3009L87.3334 9.39601L90.323 14.1444L90.2959 13.2393V9.34498H91.3448V16.0218ZM73.8952 16.0218H72.8435V10.3495H71.0194V9.34498H75.7166V10.3495H73.8925V16.0218H73.8952ZM70.1629 16.0218H69.114V9.34498H70.1629V16.0218ZM64.2678 16.0218H63.2188V10.3495H61.3947V9.34498H66.0919V10.3495H64.2678V16.0218ZM60.7307 16.011H56.7084V9.34498H60.7307V10.3495H57.7601V12.1811H60.4407V13.1749H57.7601V15.0066H60.7307V16.011ZM79.9963 14.4613C80.4652 14.926 81.0344 15.1596 81.6957 15.1596C82.3761 15.1596 82.9317 14.9314 83.3952 14.4613C83.8559 14.0048 84.089 13.4058 84.089 12.6834C84.089 11.9609 83.8559 11.3593 83.3979 10.9054C82.929 10.4408 82.3571 10.2071 81.6984 10.2071C81.0181 10.2071 80.4625 10.4354 80.0017 10.9054C79.541 11.362 79.3079 11.9609 79.3079 12.6834C79.3079 13.4058 79.5382 14.0075 79.9963 14.4613Z" fill="white"/>
    <path fill-rule="evenodd" clip-rule="evenodd" d="M78.1318 25.3439C75.5704 25.3439 73.4942 27.2696 73.4942 29.9258C73.4942 32.5578 75.584 34.5077 78.1318 34.5077C80.6931 34.5077 82.7693 32.5686 82.7693 29.9258C82.7693 27.2696 80.6931 25.3439 78.1318 25.3439ZM78.1318 32.6921C76.7305 32.6921 75.5243 31.5426 75.5243 29.9151C75.5243 28.2633 76.7332 27.138 78.1318 27.138C79.533 27.138 80.7392 28.2633 80.7392 29.9151C80.7419 31.5534 79.533 32.6921 78.1318 32.6921ZM68.0138 25.3439C65.4524 25.3439 63.3762 27.2696 63.3762 29.9258C63.3762 32.5578 65.466 34.5077 68.0138 34.5077C70.5751 34.5077 72.6513 32.5686 72.6513 29.9258C72.6513 27.2696 70.5724 25.3439 68.0138 25.3439ZM68.0138 32.6921C66.6125 32.6921 65.4064 31.5426 65.4064 29.9151C65.4064 28.2633 66.6152 27.138 68.0138 27.138C69.4151 27.138 70.6212 28.2633 70.6212 29.9151C70.6212 31.5534 69.4151 32.6921 68.0138 32.6921ZM55.9741 26.7432V28.6823H60.6712C60.5276 29.77 60.1644 30.5731 59.6088 31.1237C58.9203 31.8058 57.8578 32.5471 55.9849 32.5471C53.0983 32.5471 50.8406 30.2374 50.8406 27.377C50.8406 24.5167 53.0983 22.2069 55.9849 22.2069C57.5434 22.2069 58.6791 22.8166 59.522 23.5955L60.9098 22.2204C59.7389 21.1085 58.1804 20.2571 55.9958 20.2571C52.0359 20.2571 48.7129 23.4531 48.7129 27.3663C48.7129 31.2902 52.0332 34.4755 55.9958 34.4755C58.1343 34.4755 59.7389 33.7825 61.0073 32.4773C62.3002 31.1962 62.7095 29.3887 62.7095 27.9303C62.7095 27.4764 62.6743 27.0682 62.6011 26.7217H55.9714C55.9741 26.719 55.9741 26.7432 55.9741 26.7432ZM105.22 28.2526C104.832 27.2239 103.661 25.3332 101.26 25.3332C98.88 25.3332 96.9014 27.189 96.9014 29.9151C96.9014 32.488 98.8583 34.497 101.49 34.497C103.604 34.497 104.835 33.2159 105.342 32.4638L103.772 31.4218C103.252 32.1872 102.528 32.6894 101.501 32.6894C100.463 32.6894 99.7365 32.2221 99.254 31.3009L105.437 28.7629C105.437 28.7656 105.22 28.2526 105.22 28.2526ZM98.9152 29.7835C98.8664 28.0135 100.303 27.1138 101.33 27.1138C102.141 27.1138 102.816 27.5086 103.046 28.0834L98.9152 29.7835ZM93.8928 34.223H95.9229V20.762H93.8928V34.223ZM90.559 26.3618H90.4858C90.0278 25.822 89.1577 25.3332 88.0465 25.3332C85.7399 25.3332 83.6149 27.3448 83.6149 29.9285C83.6149 32.5014 85.7291 34.4889 88.0465 34.4889C89.1442 34.4889 90.0278 33.9974 90.4858 33.4468H90.559V34.1048C90.559 35.8533 89.6158 36.796 88.0952 36.796C86.8512 36.796 86.0787 35.9097 85.7643 35.1684L83.9998 35.8989C84.5067 37.1075 85.8592 38.6035 88.0925 38.6035C90.4723 38.6035 92.4888 37.2149 92.4888 33.8282V25.6071H90.5699V26.3618C90.5726 26.3618 90.559 26.3618 90.559 26.3618ZM88.2281 32.6921C86.8268 32.6921 85.6559 31.5319 85.6559 29.9285C85.6559 28.3117 86.8268 27.1407 88.2281 27.1407C89.6158 27.1407 90.6918 28.3251 90.6918 29.9285C90.7054 31.5319 89.6185 32.6921 88.2281 32.6921ZM114.725 20.762H109.871V34.223H111.901V29.1254H114.728C116.975 29.1254 119.184 27.5113 119.184 24.9491C119.184 22.3869 116.983 20.762 114.725 20.762ZM114.785 27.2454H111.898V22.6259H114.785C116.305 22.6259 117.164 23.8694 117.164 24.9357C117.164 25.9912 116.294 27.2454 114.785 27.2454ZM127.32 25.3197C125.846 25.3197 124.325 25.967 123.697 27.377L125.496 28.1183C125.884 27.377 126.594 27.1246 127.345 27.1246C128.396 27.1246 129.459 27.7477 129.483 28.8596V29.0019C129.12 28.7978 128.323 28.4862 127.369 28.4862C125.426 28.4862 123.455 29.5391 123.455 31.5131C123.455 33.3206 125.049 34.4808 126.824 34.4808C128.188 34.4808 128.939 33.8712 129.407 33.1648H129.481V34.2069H131.438V29.0502C131.438 26.6492 129.638 25.3197 127.32 25.3197ZM127.066 32.6921C126.402 32.6921 125.472 32.3698 125.472 31.5426C125.472 30.5006 126.632 30.1057 127.621 30.1057C128.516 30.1057 128.939 30.2964 129.47 30.5596C129.323 31.7682 128.293 32.6814 127.066 32.6921ZM138.577 25.6071L136.246 31.4459H136.173L133.758 25.6071H131.573L135.197 33.7691L133.132 38.3054H135.246L140.821 25.6071H138.577ZM120.303 34.223H122.333V20.762H120.303V34.223Z" fill="white"/>
    <path fill-rule="evenodd" clip-rule="evenodd" d="M15.4219 10.0273C15.1075 10.3631 14.9259 10.876 14.9259 11.5475V35.3621C14.9259 36.0335 15.1075 36.5465 15.4328 36.8688L15.5168 36.9413L28.9821 23.5985V23.3004L15.5059 9.95483L15.4219 10.0273Z" fill="url(#paint0_linear_1_1944)"/>
    <path fill-rule="evenodd" clip-rule="evenodd" d="M33.4614 28.0593L28.9702 23.609V23.2975L33.4614 18.8472L33.559 18.9063L38.8714 21.8982C40.3919 22.7469 40.3919 24.1488 38.8714 25.0083L33.559 28.0002L33.4614 28.0593Z" fill="url(#paint1_linear_1_1944)"/>
    <path fill-rule="evenodd" clip-rule="evenodd" d="M33.5593 28.0004L28.9706 23.4534L15.4213 36.8795C15.9173 37.4059 16.7494 37.465 17.679 36.952L33.5593 28.0004Z" fill="url(#paint2_linear_1_1944)"/>
    <path fill-rule="evenodd" clip-rule="evenodd" d="M33.5593 18.9063L17.679 9.96808C16.7494 9.44167 15.9146 9.51419 15.4213 10.0406L28.9706 23.4533L33.5593 18.9063Z" fill="url(#paint3_linear_1_1944)"/>
    <path opacity="0.2" fill-rule="evenodd" clip-rule="evenodd" d="M33.4612 27.9036L17.6893 36.7827C16.8084 37.2849 16.0224 37.25 15.5155 36.7934L15.4315 36.8767L15.5155 36.9492C16.0224 37.4031 16.8084 37.4407 17.6893 36.9384L33.5696 28.0003L33.4612 27.9036Z" fill="#0B111A"/>
    <path opacity="0.12" fill-rule="evenodd" clip-rule="evenodd" d="M38.8728 24.8526L33.4492 27.9037L33.5468 28.0004L38.8592 25.0084C39.6208 24.5787 39.9949 24.0147 39.9949 23.4534C39.9488 23.969 39.5612 24.4578 38.8728 24.8526Z" fill="#0B111A"/>
    <path opacity="0.25" fill-rule="evenodd" clip-rule="evenodd" d="M17.6797 10.1239L38.8724 22.054C39.5609 22.4381 39.9485 22.9403 40.0081 23.4533C40.0081 22.892 39.634 22.328 38.8724 21.8983L17.6797 9.96813C16.1591 9.10601 14.9259 9.82579 14.9259 11.5474V11.7031C14.9259 9.97888 16.1591 9.27252 17.6797 10.1239Z" fill="white"/>
    <defs>
        <linearGradient id="paint0_linear_1_1944" x1="27.7743" y1="11.2906" x2="6.23149" y2="17.0834" gradientUnits="userSpaceOnUse">
            <stop stop-color="#00A0FF"/>
            <stop offset="0.00657" stop-color="#00A1FF"/>
            <stop offset="0.2601" stop-color="#00BEFF"/>
            <stop offset="0.5122" stop-color="#00D2FF"/>
            <stop offset="0.7604" stop-color="#00DFFF"/>
            <stop offset="1" stop-color="#00E3FF"/>
        </linearGradient>
        <linearGradient id="paint1_linear_1_1944" x1="40.8543" y1="23.4533" x2="14.5552" y2="23.4533" gradientUnits="userSpaceOnUse">
            <stop stop-color="#FFE000"/>
            <stop offset="0.4087" stop-color="#FFBD00"/>
            <stop offset="0.7754" stop-color="#FFA500"/>
            <stop offset="1" stop-color="#FF9C00"/>
        </linearGradient>
        <linearGradient id="paint2_linear_1_1944" x1="31.0642" y1="25.9276" x2="13.9815" y2="54.9432" gradientUnits="userSpaceOnUse">
            <stop stop-color="#FF3A44"/>
            <stop offset="1" stop-color="#C31162"/>
        </linearGradient>
        <linearGradient id="paint3_linear_1_1944" x1="12.0094" y1="2.10606" x2="19.6306" y2="15.0648" gradientUnits="userSpaceOnUse">
            <stop stop-color="#32A071"/>
            <stop offset="0.0685" stop-color="#2DA771"/>
            <stop offset="0.4762" stop-color="#15CF74"/>
            <stop offset="0.8009" stop-color="#06E775"/>
            <stop offset="1" stop-color="#00F076"/>
        </linearGradient>
    </defs>
</svg>
