<svg width="155" height="46" viewBox="0 0 155 46" fill="none" xmlns="http://www.w3.org/2000/svg">
    <path d="M149.485 46H5.42959C2.43637 46 0 43.5528 0 40.557V5.4349C0 2.438 2.43637 0 5.42959 0H149.485C152.478 0 155 2.438 155 5.4349V40.557C155 43.5528 152.478 46 149.485 46Z" fill="#A6A6A6"/>
    <path d="M153.889 40.5581C153.889 42.9915 151.921 44.9626 149.487 44.9626H5.42959C2.99667 44.9626 1.02185 42.9915 1.02185 40.5581V5.43369C1.02185 3.00144 2.99667 1.02344 5.42959 1.02344H149.485C151.921 1.02344 153.887 3.00144 153.887 5.43369L153.889 40.5581Z" fill="#0B111A"/>
    <path d="M34.5914 22.7516C34.5581 19.0452 37.6214 17.242 37.7614 17.158C36.0266 14.6246 33.3376 14.2784 32.3927 14.2508C30.1343 14.0128 27.9436 15.6044 26.7932 15.6044C25.6198 15.6044 23.8482 14.2738 21.9388 14.3129C19.4818 14.3509 17.1832 15.7757 15.9225 17.9883C13.3208 22.4998 15.2612 29.1295 17.7538 32.7762C19.0007 34.5621 20.4577 36.5562 22.3648 36.4861C24.2305 36.409 24.9275 35.2947 27.179 35.2947C29.4098 35.2947 30.0643 36.4861 32.0092 36.4412C34.0116 36.409 35.2723 34.6472 36.4755 32.8452C37.9164 30.7982 38.4951 28.7822 38.5181 28.6787C38.471 28.6626 34.6293 27.1941 34.5914 22.7516Z" fill="white"/>
    <path d="M30.9173 11.8518C31.9208 10.5948 32.6074 8.88476 32.4168 7.14941C30.9644 7.21381 29.148 8.15566 28.102 9.38501C27.1766 10.4683 26.35 12.2439 26.5635 13.9137C28.195 14.0356 29.8702 13.0892 30.9173 11.8518Z" fill="white"/>
    <path d="M61.5924 36.2295H58.985L57.5567 31.7341H52.5921L51.2315 36.2295H48.693L53.6117 20.9253H56.6497L61.5924 36.2295ZM57.1261 29.8481L55.8345 25.8519C55.6978 25.4436 55.4418 24.4822 55.0641 22.9688H55.0181C54.8677 23.6197 54.6255 24.5811 54.2925 25.8519L53.0238 29.8481H57.1261Z" fill="white"/>
    <path d="M74.2416 30.5763C74.2416 32.4531 73.7353 33.9366 72.7226 35.0257C71.8156 35.9951 70.6893 36.4793 69.3448 36.4793C67.8935 36.4793 66.851 35.9572 66.2161 34.913H66.1701V40.7262H63.7223V28.8272C63.7223 27.6473 63.6913 26.4363 63.6316 25.1943H65.7844L65.921 26.9435H65.9669C66.7833 25.6256 68.0221 24.9678 69.6846 24.9678C70.9843 24.9678 72.0693 25.4818 72.9373 26.5111C73.8076 27.5415 74.2416 28.8962 74.2416 30.5763ZM71.7479 30.666C71.7479 29.5919 71.5067 28.7064 71.0222 28.0095C70.4929 27.2827 69.7822 26.9193 68.8913 26.9193C68.2873 26.9193 67.7385 27.1217 67.2483 27.5208C66.7568 27.9233 66.4354 28.4488 66.285 29.0997C66.2092 29.4033 66.1713 29.6517 66.1713 29.8472V31.6872C66.1713 32.4899 66.417 33.1673 66.9084 33.7204C67.3998 34.2736 68.0382 34.5496 68.8235 34.5496C69.7455 34.5496 70.4631 34.1931 70.9763 33.4824C71.4907 32.7705 71.7479 31.8321 71.7479 30.666Z" fill="white"/>
    <path d="M86.9137 30.5763C86.9137 32.4531 86.4074 33.9366 85.3936 35.0257C84.4877 35.9951 83.3613 36.4793 82.0168 36.4793C80.5656 36.4793 79.5231 35.9572 78.8893 34.913H78.8434V40.7262H76.3955V28.8272C76.3955 27.6473 76.3645 26.4363 76.3048 25.1943H78.4576L78.5942 26.9435H78.6401C79.4553 25.6256 80.6942 24.9678 82.3579 24.9678C83.6564 24.9678 84.7414 25.4818 85.6117 26.5111C86.4786 27.5415 86.9137 28.8962 86.9137 30.5763ZM84.4199 30.666C84.4199 29.5919 84.1777 28.7064 83.6931 28.0095C83.1638 27.2827 82.4554 26.9193 81.5633 26.9193C80.9583 26.9193 80.4106 27.1217 79.9192 27.5208C79.4278 27.9233 79.1074 28.4488 78.957 29.0997C78.8824 29.4033 78.8434 29.6517 78.8434 29.8472V31.6872C78.8434 32.4899 79.0891 33.1673 79.5782 33.7204C80.0696 34.2724 80.708 34.5496 81.4956 34.5496C82.4176 34.5496 83.1351 34.1931 83.6484 33.4824C84.1627 32.7705 84.4199 31.8321 84.4199 30.666Z" fill="white"/>
    <path d="M101.082 31.9378C101.082 33.2396 100.631 34.2988 99.7248 35.1164C98.7293 36.01 97.3435 36.4562 95.5628 36.4562C93.9186 36.4562 92.6005 36.1388 91.6028 35.5028L92.17 33.4593C93.2446 34.1102 94.4238 34.4368 95.7086 34.4368C96.6305 34.4368 97.3481 34.2275 97.8636 33.8112C98.3769 33.3949 98.6329 32.836 98.6329 32.1391C98.6329 31.5181 98.4216 30.9948 97.998 30.5705C97.5766 30.1461 96.8728 29.7517 95.89 29.3871C93.2148 28.3878 91.8783 26.9238 91.8783 24.9987C91.8783 23.7406 92.3468 22.7091 93.2848 21.9064C94.2194 21.1025 95.4663 20.7012 97.0255 20.7012C98.4159 20.7012 99.5709 20.9438 100.493 21.428L99.8809 23.4267C99.0198 22.9575 98.0462 22.7229 96.9566 22.7229C96.0955 22.7229 95.4227 22.9356 94.9405 23.3588C94.5329 23.7372 94.3285 24.1983 94.3285 24.7446C94.3285 25.3495 94.5616 25.8497 95.03 26.243C95.4376 26.6064 96.1782 26.9997 97.2528 27.4241C98.5675 27.9542 99.5331 28.5741 100.154 29.2848C100.773 29.9932 101.082 30.8798 101.082 31.9378Z" fill="white"/>
    <path d="M109.175 27.034H106.477V32.3918C106.477 33.7546 106.952 34.4354 107.905 34.4354C108.343 34.4354 108.706 34.3974 108.993 34.3215L109.06 36.1834C108.578 36.3639 107.943 36.4548 107.157 36.4548C106.19 36.4548 105.434 36.1592 104.889 35.5693C104.346 34.9782 104.073 33.9869 104.073 32.5942V27.0317H102.465V25.1917H104.073V23.1711L106.477 22.4443V25.1917H109.175V27.034Z" fill="white"/>
    <path d="M121.349 30.621C121.349 32.3173 120.864 33.7099 119.898 34.799C118.884 35.9202 117.538 36.4791 115.861 36.4791C114.244 36.4791 112.957 35.9421 111.997 34.868C111.037 33.7939 110.557 32.438 110.557 30.8039C110.557 29.0938 111.051 27.6931 112.042 26.6041C113.031 25.5139 114.365 24.9688 116.042 24.9688C117.659 24.9688 118.96 25.5058 119.941 26.5811C120.88 27.6241 121.349 28.9708 121.349 30.621ZM118.809 30.7004C118.809 29.6826 118.592 28.8098 118.152 28.0818C117.639 27.2009 116.906 26.7616 115.955 26.7616C114.971 26.7616 114.224 27.2021 113.71 28.0818C113.271 28.8109 113.054 29.6976 113.054 30.7464C113.054 31.7641 113.271 32.637 113.71 33.3638C114.24 34.2447 114.979 34.684 115.933 34.684C116.868 34.684 117.601 34.2355 118.131 33.3408C118.582 32.599 118.809 31.717 118.809 30.7004Z" fill="white"/>
    <path d="M129.306 27.3506C129.063 27.3057 128.805 27.2827 128.534 27.2827C127.673 27.2827 127.007 27.6082 126.539 28.2602C126.131 28.8352 125.927 29.562 125.927 30.4395V36.2297H123.48L123.503 28.6696C123.503 27.3977 123.472 26.2397 123.411 25.1955H125.543L125.633 27.3069H125.7C125.959 26.5812 126.366 25.997 126.924 25.5589C127.47 25.1644 128.059 24.9678 128.694 24.9678C128.92 24.9678 129.124 24.9839 129.306 25.0126V27.3506Z" fill="white"/>
    <path d="M140.253 30.1896C140.253 30.6289 140.225 30.9992 140.164 31.3017H132.82C132.849 32.3919 133.204 33.2256 133.886 33.8006C134.504 34.3147 135.305 34.5723 136.288 34.5723C137.375 34.5723 138.367 34.3986 139.259 34.0502L139.642 35.7522C138.6 36.2076 137.369 36.4341 135.949 36.4341C134.24 36.4341 132.899 35.9304 131.923 34.9242C130.95 33.9179 130.462 32.5667 130.462 30.8716C130.462 29.2075 130.915 27.8218 131.824 26.7166C132.774 25.5367 134.059 24.9468 135.676 24.9468C137.263 24.9468 138.466 25.5367 139.282 26.7166C139.928 27.6539 140.253 28.8131 140.253 30.1896ZM137.919 29.5537C137.935 28.8269 137.776 28.199 137.444 27.6688C137.02 26.9869 136.369 26.6465 135.493 26.6465C134.693 26.6465 134.042 26.9788 133.545 27.6458C133.137 28.176 132.895 28.8119 132.82 29.5525H137.919V29.5537Z" fill="white"/>
    <path d="M56.3166 11.5105C56.3166 12.864 55.9113 13.8829 55.1019 14.5672C54.3522 15.1985 53.2867 15.5148 51.9066 15.5148C51.2223 15.5148 50.6367 15.4849 50.1465 15.4251V8.02945C50.786 7.92595 51.4749 7.87305 52.2189 7.87305C53.5335 7.87305 54.5244 8.1594 55.1926 8.7321C55.9412 9.37955 56.3166 10.3053 56.3166 11.5105ZM55.0479 11.5438C55.0479 10.6664 54.816 9.99365 54.3522 9.52445C53.8883 9.0564 53.2109 8.8218 52.3188 8.8218C51.9399 8.8218 51.6173 8.8471 51.3497 8.9V14.5223C51.4979 14.5453 51.7688 14.5557 52.1626 14.5557C53.0834 14.5557 53.7942 14.2992 54.2947 13.7863C54.7953 13.2734 55.0479 12.5259 55.0479 11.5438Z" fill="white"/>
    <path d="M63.0437 12.6926C63.0437 13.5264 62.806 14.2095 62.3307 14.7454C61.8324 15.2962 61.1722 15.5711 60.3478 15.5711C59.5533 15.5711 58.9207 15.3077 58.4488 14.7787C57.978 14.2509 57.7427 13.585 57.7427 12.7823C57.7427 11.9428 57.9849 11.254 58.4717 10.7192C58.9586 10.1845 59.613 9.9165 60.4374 9.9165C61.2319 9.9165 61.8703 10.1799 62.3536 10.7077C62.8129 11.2206 63.0437 11.883 63.0437 12.6926ZM61.7956 12.7317C61.7956 12.2315 61.6877 11.8025 61.473 11.4449C61.2204 11.0125 60.861 10.7963 60.3938 10.7963C59.9104 10.7963 59.543 11.0125 59.2904 11.4449C59.0745 11.8025 58.9678 12.2384 58.9678 12.7536C58.9678 13.2538 59.0757 13.6828 59.2904 14.0404C59.551 14.4728 59.9138 14.689 60.3823 14.689C60.8415 14.689 61.202 14.4694 61.4615 14.0289C61.6843 13.6644 61.7956 13.232 61.7956 12.7317Z" fill="white"/>
    <path d="M72.0635 10.0269L70.37 15.448H69.2678L68.5663 13.0939C68.3883 12.5063 68.2436 11.9221 68.1311 11.3425H68.1093C68.0048 11.9382 67.8602 12.5212 67.6742 13.0939L66.929 15.448H65.8142L64.2217 10.0269H65.4582L66.0702 12.604C66.2183 13.2135 66.34 13.7943 66.4376 14.344H66.4594C66.549 13.8909 66.6971 13.3136 66.906 12.6155L67.6742 10.028H68.6547L69.3906 12.5603C69.5686 13.1779 69.7133 13.7724 69.8246 14.3451H69.8579C69.9395 13.7874 70.0623 13.1928 70.2254 12.5603L70.8821 10.028H72.0635V10.0269Z" fill="white"/>
    <path d="M78.3014 15.448H77.0981V12.343C77.0981 11.3862 76.7353 10.9078 76.0074 10.9078C75.6503 10.9078 75.3621 11.0389 75.1383 11.3023C74.9167 11.5656 74.8041 11.8761 74.8041 12.2315V15.4469H73.6009V11.576C73.6009 11.0999 73.586 10.5835 73.5573 10.0246H74.6147L74.671 10.8722H74.7043C74.8443 10.6088 75.0533 10.3915 75.3277 10.2178C75.6538 10.0154 76.0189 9.91309 76.4184 9.91309C76.9236 9.91309 77.3438 10.0764 77.678 10.4041C78.0936 10.8055 78.3014 11.4046 78.3014 12.2004V15.448Z" fill="white"/>
    <path d="M81.6196 15.4481H80.4175V7.53955H81.6196V15.4481Z" fill="white"/>
    <path d="M88.7036 12.6926C88.7036 13.5264 88.4659 14.2095 87.9906 14.7454C87.4923 15.2962 86.831 15.5711 86.0077 15.5711C85.2121 15.5711 84.5794 15.3077 84.1087 14.7787C83.638 14.2509 83.4026 13.585 83.4026 12.7823C83.4026 11.9428 83.6448 11.254 84.1317 10.7192C84.6185 10.1845 85.2729 9.9165 86.0961 9.9165C86.8918 9.9165 87.529 10.1799 88.0135 10.7077C88.4728 11.2206 88.7036 11.883 88.7036 12.6926ZM87.4544 12.7317C87.4544 12.2315 87.3465 11.8025 87.1318 11.4449C86.8803 11.0125 86.5198 10.7963 86.0537 10.7963C85.5691 10.7963 85.2017 11.0125 84.9503 11.4449C84.7344 11.8025 84.6277 12.2384 84.6277 12.7536C84.6277 13.2538 84.7356 13.6828 84.9503 14.0404C85.2109 14.4728 85.5737 14.689 86.0422 14.689C86.5014 14.689 86.8608 14.4694 87.1203 14.0289C87.3442 13.6644 87.4544 13.232 87.4544 12.7317Z" fill="white"/>
    <path d="M94.5271 15.448H93.4467L93.3571 14.8236H93.3238C92.9541 15.3215 92.4271 15.5711 91.7428 15.5711C91.2319 15.5711 90.8186 15.4066 90.5074 15.08C90.225 14.7833 90.0837 14.4142 90.0837 13.976C90.0837 13.3136 90.3593 12.8088 90.9139 12.4592C91.4673 12.1096 92.2457 11.9382 93.248 11.9463V11.8451C93.248 11.1309 92.8737 10.7744 92.124 10.7744C91.5901 10.7744 91.1194 10.909 90.7129 11.1758L90.4684 10.3846C90.9713 10.0729 91.5924 9.9165 92.3249 9.9165C93.7394 9.9165 94.449 10.664 94.449 12.159V14.1554C94.449 14.6971 94.4754 15.1283 94.5271 15.448ZM93.2779 13.585V12.749C91.9506 12.726 91.287 13.0905 91.287 13.8415C91.287 14.1244 91.3628 14.336 91.5178 14.4774C91.6728 14.6189 91.8703 14.689 92.1056 14.689C92.3697 14.689 92.6166 14.6051 92.8416 14.4383C93.0678 14.2704 93.2067 14.0577 93.2584 13.7966C93.271 13.738 93.2779 13.6667 93.2779 13.585Z" fill="white"/>
    <path d="M101.364 15.4481H100.296L100.24 14.5776H100.207C99.8658 15.24 99.2849 15.5712 98.4685 15.5712C97.8164 15.5712 97.2733 15.3147 96.8428 14.8018C96.4122 14.2889 96.1975 13.6231 96.1975 12.8054C96.1975 11.928 96.4306 11.2173 96.899 10.6745C97.3525 10.1685 97.9082 9.91545 98.5696 9.91545C99.2963 9.91545 99.805 10.1604 100.094 10.6515H100.117V7.53955H101.322V13.9876C101.322 14.5155 101.335 15.0019 101.364 15.4481ZM100.117 13.1619V12.258C100.117 12.1016 100.106 11.9751 100.084 11.8785C100.016 11.5887 99.8704 11.3449 99.6488 11.1483C99.4249 10.9516 99.1551 10.8527 98.844 10.8527C98.3951 10.8527 98.0437 11.031 97.7854 11.3886C97.5294 11.7463 97.3996 12.2028 97.3996 12.7606C97.3996 13.2965 97.5225 13.7312 97.7693 14.0658C98.0299 14.4223 98.3813 14.6006 98.821 14.6006C99.216 14.6006 99.5317 14.4522 99.7717 14.1544C100.004 13.8795 100.117 13.5483 100.117 13.1619Z" fill="white"/>
    <path d="M111.655 12.6926C111.655 13.5264 111.417 14.2095 110.942 14.7454C110.444 15.2962 109.785 15.5711 108.959 15.5711C108.166 15.5711 107.533 15.3077 107.06 14.7787C106.59 14.2509 106.354 13.585 106.354 12.7823C106.354 11.9428 106.596 11.254 107.083 10.7192C107.57 10.1845 108.224 9.9165 109.05 9.9165C109.843 9.9165 110.483 10.1799 110.965 10.7077C111.424 11.2206 111.655 11.883 111.655 12.6926ZM110.408 12.7317C110.408 12.2315 110.3 11.8025 110.086 11.4449C109.832 11.0125 109.474 10.7963 109.005 10.7963C108.523 10.7963 108.156 11.0125 107.902 11.4449C107.686 11.8025 107.579 12.2384 107.579 12.7536C107.579 13.2538 107.687 13.6828 107.902 14.0404C108.162 14.4728 108.525 14.689 108.994 14.689C109.453 14.689 109.815 14.4694 110.074 14.0289C110.296 13.6644 110.408 13.232 110.408 12.7317Z" fill="white"/>
    <path d="M118.125 15.448H116.923V12.343C116.923 11.3862 116.56 10.9078 115.831 10.9078C115.474 10.9078 115.186 11.0389 114.963 11.3023C114.74 11.5656 114.629 11.8761 114.629 12.2315V15.4469H113.424V11.576C113.424 11.0999 113.411 10.5835 113.382 10.0246H114.438L114.494 10.8722H114.528C114.669 10.6088 114.878 10.3915 115.151 10.2178C115.478 10.0154 115.842 9.91309 116.243 9.91309C116.747 9.91309 117.167 10.0764 117.501 10.4041C117.918 10.8055 118.125 11.4046 118.125 12.2004V15.448Z" fill="white"/>
    <path d="M126.223 10.9296H124.898V13.5631C124.898 14.2324 125.133 14.5671 125.599 14.5671C125.815 14.5671 125.994 14.5487 126.136 14.5107L126.167 15.425C125.929 15.5147 125.617 15.5595 125.232 15.5595C124.757 15.5595 124.387 15.4146 124.119 15.1248C123.851 14.835 123.718 14.3474 123.718 13.6632V10.9296H122.927V10.0269H123.718V9.03326L124.897 8.67676V10.0257H126.222V10.9296H126.223Z" fill="white"/>
    <path d="M132.593 15.4481H131.388V12.3661C131.388 11.3944 131.026 10.9079 130.299 10.9079C129.741 10.9079 129.36 11.1897 129.151 11.7532C129.115 11.8716 129.094 12.0165 129.094 12.1867V15.447H127.892V7.53955H129.094V10.8067H129.117C129.496 10.2122 130.039 9.91545 130.743 9.91545C131.241 9.91545 131.654 10.0788 131.981 10.4065C132.388 10.8148 132.593 11.422 132.593 12.2247V15.4481Z" fill="white"/>
    <path d="M139.164 12.4811C139.164 12.6973 139.147 12.879 139.119 13.0273H135.51C135.526 13.5633 135.698 13.9715 136.033 14.2544C136.338 14.5074 136.732 14.6339 137.214 14.6339C137.748 14.6339 138.235 14.5488 138.673 14.3774L138.862 15.2146C138.348 15.4377 137.744 15.5493 137.045 15.5493C136.207 15.5493 135.547 15.3021 135.069 14.8076C134.589 14.3131 134.352 13.6495 134.352 12.8169C134.352 11.9993 134.573 11.3184 135.02 10.7756C135.486 10.196 136.116 9.90625 136.912 9.90625C137.691 9.90625 138.282 10.196 138.681 10.7756C139.004 11.2356 139.164 11.8049 139.164 12.4811ZM138.015 12.1694C138.025 11.8118 137.945 11.5036 137.782 11.2437C137.573 10.9091 137.255 10.7411 136.825 10.7411C136.432 10.7411 136.112 10.9044 135.867 11.2322C135.667 11.4933 135.549 11.8049 135.51 12.1694H138.015Z" fill="white"/>
</svg>
