<svg width="289" height="231" viewBox="0 0 289 231" fill="none" xmlns="http://www.w3.org/2000/svg">
    <path opacity="0.1" d="M45.8209 206.208C45.8209 206.208 18.6123 174.972 29.9743 138.256C40.171 105.303 86.2759 83.9751 110.774 100.296C122.626 108.191 132.201 76.4581 171.533 64.8409C200.62 56.2503 243.63 75.5162 232.706 134.517C224.4 179.374 265.598 157.01 256.601 206.564L45.8209 206.208Z" fill="#404D63"/>
    <path opacity="0.1" d="M137.423 206.987C137.423 206.987 156.151 120.667 212.69 75.9187C213.428 75.3356 214.52 75.7061 214.746 76.6185C218.304 91.0658 236.821 183.265 137.423 206.987Z" fill="#404D63"/>
    <path opacity="0.62" d="M206.688 100.814C206.039 103.318 205.281 105.788 204.489 108.244C203.69 110.7 202.849 113.142 201.962 115.563C200.172 120.407 198.225 125.188 196.129 129.908C195.61 131.088 195.056 132.254 194.524 133.434C193.984 134.607 193.41 135.759 192.85 136.926C192.297 138.092 191.703 139.237 191.122 140.39L190.248 142.119L189.34 143.827C186.922 148.389 184.374 152.882 181.635 157.259C178.883 161.629 176.021 165.93 172.934 170.067C172.551 170.588 172.176 171.109 171.786 171.631L170.605 173.16L169.423 174.69C169.027 175.198 168.644 175.719 168.228 176.213L165.769 179.204L165.154 179.952L164.512 180.679L163.235 182.133C156.446 189.913 148.851 196.972 140.641 203.187C140.573 203.235 140.477 203.221 140.43 203.16C140.382 203.091 140.389 203.002 140.457 202.947H140.464L143.448 200.505L144.944 199.291L146.392 198.015L149.281 195.463L152.075 192.808C152.539 192.362 153.01 191.93 153.468 191.477L154.82 190.105C155.715 189.186 156.63 188.287 157.511 187.347C159.246 185.447 161.015 183.588 162.661 181.619L163.918 180.158L164.546 179.431L165.154 178.683L167.586 175.692C167.996 175.198 168.378 174.683 168.774 174.176L169.949 172.646L171.124 171.116C171.506 170.602 171.882 170.08 172.258 169.559C175.317 165.429 178.145 161.135 180.87 156.772C183.609 152.422 186.17 147.957 188.588 143.422L189.497 141.721L190.378 140.006C190.958 138.86 191.559 137.721 192.113 136.562C193.253 134.257 194.346 131.931 195.432 129.592C197.577 124.914 199.571 120.166 201.415 115.358C202.351 112.957 203.232 110.542 204.072 108.106C204.495 106.892 204.898 105.671 205.295 104.443C205.691 103.222 206.073 101.987 206.428 100.752C206.449 100.67 206.538 100.622 206.62 100.65C206.667 100.65 206.715 100.739 206.688 100.814Z" fill="white"/>
    <path d="M152.867 202.793V206.045C152.867 206.304 152.789 206.545 152.654 206.745C152.511 206.956 152.307 207.121 152.066 207.215C151.993 207.243 151.916 207.264 151.837 207.279C151.765 207.292 151.691 207.298 151.615 207.298L99.9323 207.29C99.7253 207.29 99.5279 207.239 99.3561 207.149C98.9902 206.957 98.7286 206.587 98.6868 206.158C98.6852 206.139 98.6836 206.121 98.682 206.102C98.682 206.081 98.6804 206.058 98.6804 206.037V202.785C98.6804 202.764 98.6804 202.742 98.682 202.721C98.7157 202.061 99.2646 201.532 99.9307 201.532L151.614 201.54C151.689 201.54 151.763 201.547 151.835 201.561C151.914 201.574 151.991 201.597 152.065 201.626C152.304 201.719 152.509 201.884 152.652 202.095C152.789 202.293 152.867 202.534 152.867 202.793Z" fill="#FFB93E"/>
    <path d="M127.488 207.293L99.7997 207.289C99.6151 207.289 99.4402 207.237 99.2861 207.147C98.9587 206.956 98.7259 206.586 98.689 206.156C98.6874 206.137 98.6858 206.119 98.6842 206.1C98.6842 206.079 98.6826 206.057 98.6826 206.036V202.784C98.6826 202.763 98.6826 202.74 98.6842 202.719C98.7147 202.06 99.2042 201.531 99.7997 201.531L124.088 201.534C124.466 203.182 125.331 205.445 127.318 207.15C127.374 207.2 127.43 207.247 127.488 207.293Z" fill="#EF9E1B"/>
    <path d="M146.579 201.539H145.992V207.297H146.579V201.539Z" fill="#EF9E1B"/>
    <path d="M144.592 201.539H144.004V207.297H144.592V201.539Z" fill="#EF9E1B"/>
    <path d="M142.206 201.539H141.618V207.297H142.206V201.539Z" fill="#EF9E1B"/>
    <path d="M138.551 201.537H137.964V207.295H138.551V201.537Z" fill="#EF9E1B"/>
    <path d="M134.687 201.537H134.099V207.295H134.687V201.537Z" fill="#EF9E1B"/>
    <path d="M128.763 201.537H128.175V207.295H128.763V201.537Z" fill="#EF9E1B"/>
    <path d="M123.213 201.536H122.626V207.294H123.213V201.536Z" fill="#EF9E1B"/>
    <path d="M118.261 201.536H117.673V207.294H118.261V201.536Z" fill="#EF9E1B"/>
    <path d="M148.472 201.539H147.884V207.297H148.472V201.539Z" fill="#EF9E1B"/>
    <path d="M149.723 201.539H149.136V207.297H149.723V201.539Z" fill="#EF9E1B"/>
    <path d="M150.93 201.54H150.343V207.298H150.93V201.54Z" fill="#EF9E1B"/>
    <path d="M151.84 201.56V207.277C151.768 207.29 151.694 207.298 151.62 207.298H151.253V201.54H151.62C151.694 201.54 151.768 201.547 151.84 201.56Z" fill="#EF9E1B"/>
    <path d="M152.654 202.093V206.745C152.511 206.955 152.307 207.121 152.067 207.214L152.068 201.625C152.307 201.717 152.511 201.883 152.654 202.093Z" fill="#EF9E1B"/>
    <path d="M155.506 203.287V206.029C155.506 206.248 155.572 206.451 155.686 206.619C155.807 206.797 155.978 206.937 156.181 207.016C156.244 207.04 156.309 207.058 156.375 207.07C156.436 207.081 156.498 207.086 156.562 207.086L200.15 207.079C200.325 207.079 200.491 207.036 200.636 206.96C200.945 206.799 201.165 206.487 201.2 206.124C201.202 206.108 201.203 206.093 201.204 206.077C201.204 206.059 201.206 206.04 201.206 206.023V203.28C201.206 203.262 201.206 203.243 201.204 203.226C201.176 202.67 200.713 202.223 200.151 202.223L156.563 202.23C156.5 202.23 156.437 202.235 156.376 202.248C156.31 202.259 156.245 202.278 156.183 202.302C155.981 202.381 155.808 202.52 155.687 202.698C155.572 202.865 155.506 203.068 155.506 203.287Z" fill="#FFB93E"/>
    <path d="M176.911 207.082L200.262 207.078C200.418 207.078 200.566 207.035 200.696 206.959C200.972 206.797 201.168 206.485 201.199 206.123C201.2 206.107 201.202 206.092 201.203 206.076C201.203 206.058 201.204 206.039 201.204 206.022V203.279C201.204 203.261 201.204 203.242 201.203 203.225C201.177 202.668 200.765 202.222 200.262 202.222L179.778 202.225C179.46 203.615 178.73 205.524 177.054 206.962C177.007 207.004 176.96 207.043 176.911 207.082Z" fill="#EF9E1B"/>
    <path d="M160.81 202.229H161.306V207.085H160.81V202.229Z" fill="#EF9E1B"/>
    <path d="M162.486 202.229H162.981V207.085H162.486V202.229Z" fill="#EF9E1B"/>
    <path d="M164.498 202.229H164.993V207.085H164.498V202.229Z" fill="#EF9E1B"/>
    <path d="M167.579 202.228H168.074V207.084H167.579V202.228Z" fill="#EF9E1B"/>
    <path d="M170.84 202.228H171.335V207.084H170.84V202.228Z" fill="#EF9E1B"/>
    <path d="M175.836 202.228H176.332V207.084H175.836V202.228Z" fill="#EF9E1B"/>
    <path d="M180.516 202.226H181.011V207.082H180.516V202.226Z" fill="#EF9E1B"/>
    <path d="M184.693 202.226H185.188V207.082H184.693V202.226Z" fill="#EF9E1B"/>
    <path d="M159.214 202.229H159.709V207.085H159.214V202.229Z" fill="#EF9E1B"/>
    <path d="M158.159 202.229H158.654V207.085H158.159V202.229Z" fill="#EF9E1B"/>
    <path d="M157.14 202.23H157.636V207.086H157.14V202.23Z" fill="#EF9E1B"/>
    <path d="M156.373 202.247V207.069C156.434 207.08 156.497 207.086 156.559 207.086H156.869V202.23H156.559C156.497 202.23 156.434 202.236 156.373 202.247Z" fill="#EF9E1B"/>
    <path d="M155.685 202.697V206.62C155.806 206.798 155.978 206.937 156.181 207.016L156.179 202.302C155.978 202.38 155.806 202.519 155.685 202.697Z" fill="#EF9E1B"/>
    <path d="M155.111 185.488V188.74C155.111 188.999 155.032 189.24 154.897 189.44C154.755 189.65 154.551 189.816 154.31 189.909C154.236 189.938 154.159 189.959 154.08 189.974C154.008 189.987 153.934 189.993 153.859 189.993L102.176 189.985C101.969 189.985 101.771 189.934 101.6 189.843C101.234 189.652 100.972 189.282 100.93 188.853C100.929 188.833 100.927 188.816 100.926 188.796C100.926 188.776 100.924 188.753 100.924 188.732V185.48C100.924 185.459 100.924 185.437 100.926 185.416C100.959 184.756 101.508 184.227 102.174 184.227L153.857 184.235C153.933 184.235 154.007 184.242 154.079 184.256C154.157 184.269 154.235 184.291 154.308 184.32C154.547 184.414 154.753 184.579 154.896 184.79C155.032 184.988 155.111 185.229 155.111 185.488Z" fill="#FFB93E"/>
    <path d="M129.731 189.988L102.043 189.983C101.859 189.983 101.684 189.932 101.53 189.842C101.202 189.65 100.969 189.281 100.933 188.851C100.931 188.832 100.929 188.814 100.928 188.795C100.928 188.774 100.926 188.751 100.926 188.73V185.478C100.926 185.457 100.926 185.435 100.928 185.414C100.958 184.755 101.448 184.225 102.043 184.225L126.332 184.229C126.709 185.877 127.574 188.14 129.561 189.845C129.617 189.895 129.674 189.942 129.731 189.988Z" fill="#EF9E1B"/>
    <path d="M148.823 184.234H148.235V189.992H148.823V184.234Z" fill="#EF9E1B"/>
    <path d="M146.835 184.234H146.248V189.992H146.835V184.234Z" fill="#EF9E1B"/>
    <path d="M144.449 184.234H143.862V189.992H144.449V184.234Z" fill="#EF9E1B"/>
    <path d="M140.795 184.232H140.207V189.99H140.795V184.232Z" fill="#EF9E1B"/>
    <path d="M136.931 184.232H136.343V189.99H136.931V184.232Z" fill="#EF9E1B"/>
    <path d="M131.006 184.232H130.419V189.99H131.006V184.232Z" fill="#EF9E1B"/>
    <path d="M125.457 184.231H124.87V189.989H125.457V184.231Z" fill="#EF9E1B"/>
    <path d="M120.504 184.231H119.917V189.989H120.504V184.231Z" fill="#EF9E1B"/>
    <path d="M150.715 184.234H150.127V189.992H150.715V184.234Z" fill="#EF9E1B"/>
    <path d="M151.965 184.234H151.378V189.992H151.965V184.234Z" fill="#EF9E1B"/>
    <path d="M153.174 184.235H152.586V189.993H153.174V184.235Z" fill="#EF9E1B"/>
    <path d="M154.084 184.255V189.972C154.012 189.985 153.938 189.993 153.864 189.993H153.496V184.235H153.864C153.938 184.235 154.012 184.242 154.084 184.255Z" fill="#EF9E1B"/>
    <path d="M154.898 184.789V189.44C154.755 189.651 154.551 189.816 154.31 189.91L154.312 184.321C154.551 184.412 154.755 184.578 154.898 184.789Z" fill="#EF9E1B"/>
    <path d="M153.613 188.747V191.49C153.613 191.708 153.68 191.911 153.793 192.08C153.914 192.257 154.086 192.397 154.289 192.476C154.351 192.5 154.416 192.518 154.482 192.53C154.543 192.541 154.606 192.546 154.669 192.546L198.257 192.539C198.432 192.539 198.599 192.496 198.743 192.42C199.052 192.259 199.273 191.947 199.308 191.584C199.309 191.568 199.311 191.553 199.312 191.537C199.312 191.519 199.313 191.5 199.313 191.483V188.74C199.313 188.722 199.313 188.703 199.312 188.686C199.283 188.13 198.821 187.683 198.259 187.683L154.671 187.69C154.607 187.69 154.545 187.696 154.484 187.708C154.417 187.719 154.353 187.738 154.29 187.762C154.089 187.841 153.915 187.98 153.795 188.158C153.68 188.325 153.613 188.528 153.613 188.747Z" fill="#FFB93E"/>
    <path d="M175.018 192.542L198.37 192.538C198.525 192.538 198.673 192.495 198.803 192.419C199.079 192.257 199.275 191.945 199.306 191.583C199.308 191.567 199.309 191.552 199.31 191.536C199.31 191.518 199.312 191.499 199.312 191.482V188.739C199.312 188.721 199.312 188.702 199.31 188.685C199.285 188.128 198.872 187.682 198.37 187.682L177.885 187.685C177.567 189.075 176.838 190.984 175.162 192.422C175.114 192.464 175.067 192.503 175.018 192.542Z" fill="#EF9E1B"/>
    <path d="M158.917 187.689H159.412V192.545H158.917V187.689Z" fill="#EF9E1B"/>
    <path d="M160.593 187.689H161.088V192.545H160.593V187.689Z" fill="#EF9E1B"/>
    <path d="M162.605 187.689H163.1V192.545H162.605V187.689Z" fill="#EF9E1B"/>
    <path d="M165.686 187.687H166.181V192.543H165.686V187.687Z" fill="#EF9E1B"/>
    <path d="M168.947 187.687H169.442V192.543H168.947V187.687Z" fill="#EF9E1B"/>
    <path d="M173.943 187.687H174.438V192.543H173.943V187.687Z" fill="#EF9E1B"/>
    <path d="M178.623 187.686H179.118V192.542H178.623V187.686Z" fill="#EF9E1B"/>
    <path d="M182.799 187.686H183.295V192.542H182.799V187.686Z" fill="#EF9E1B"/>
    <path d="M157.32 187.689H157.816V192.545H157.32V187.689Z" fill="#EF9E1B"/>
    <path d="M156.265 187.689H156.761V192.545H156.265V187.689Z" fill="#EF9E1B"/>
    <path d="M155.247 187.69H155.743V192.546H155.247V187.69Z" fill="#EF9E1B"/>
    <path d="M154.48 187.707V192.529C154.541 192.54 154.603 192.546 154.665 192.546H154.975V187.69H154.665C154.603 187.69 154.541 187.696 154.48 187.707Z" fill="#EF9E1B"/>
    <path d="M153.792 188.157V192.08C153.912 192.257 154.084 192.397 154.287 192.476L154.286 187.762C154.084 187.839 153.912 187.979 153.792 188.157Z" fill="#EF9E1B"/>
    <path d="M157.355 168.183V171.435C157.355 171.694 157.276 171.935 157.142 172.135C156.999 172.345 156.795 172.511 156.554 172.604C156.48 172.633 156.403 172.654 156.325 172.669C156.252 172.682 156.179 172.688 156.103 172.688L104.42 172.68C104.213 172.68 104.016 172.629 103.844 172.538C103.478 172.347 103.216 171.977 103.175 171.548C103.173 171.528 103.171 171.511 103.17 171.491C103.17 171.471 103.168 171.448 103.168 171.427V168.175C103.168 168.154 103.168 168.132 103.17 168.111C103.204 167.451 103.752 166.922 104.419 166.922L156.102 166.93C156.177 166.93 156.251 166.937 156.323 166.951C156.402 166.964 156.479 166.986 156.553 167.015C156.792 167.109 156.997 167.274 157.14 167.485C157.276 167.683 157.355 167.924 157.355 168.183Z" fill="#FFB93E"/>
    <path d="M131.976 172.683L104.287 172.679C104.103 172.679 103.928 172.627 103.774 172.537C103.446 172.346 103.214 171.976 103.177 171.546C103.175 171.527 103.174 171.509 103.172 171.49C103.172 171.469 103.17 171.447 103.17 171.426V168.174C103.17 168.153 103.17 168.13 103.172 168.109C103.203 167.45 103.692 166.921 104.287 166.921L128.576 166.924C128.953 168.572 129.818 170.835 131.805 172.54C131.862 172.59 131.918 172.637 131.976 172.683Z" fill="#EF9E1B"/>
    <path d="M151.067 166.929H150.479V172.687H151.067V166.929Z" fill="#EF9E1B"/>
    <path d="M149.079 166.929H148.492V172.687H149.079V166.929Z" fill="#EF9E1B"/>
    <path d="M146.693 166.929H146.106V172.687H146.693V166.929Z" fill="#EF9E1B"/>
    <path d="M143.039 166.927H142.451V172.685H143.039V166.927Z" fill="#EF9E1B"/>
    <path d="M139.174 166.927H138.587V172.685H139.174V166.927Z" fill="#EF9E1B"/>
    <path d="M133.25 166.927H132.663V172.685H133.25V166.927Z" fill="#EF9E1B"/>
    <path d="M127.701 166.926H127.113V172.683H127.701V166.926Z" fill="#EF9E1B"/>
    <path d="M122.748 166.926H122.161V172.683H122.748V166.926Z" fill="#EF9E1B"/>
    <path d="M152.959 166.929H152.371V172.687H152.959V166.929Z" fill="#EF9E1B"/>
    <path d="M154.209 166.929H153.622V172.687H154.209V166.929Z" fill="#EF9E1B"/>
    <path d="M155.417 166.931H154.83V172.689H155.417V166.931Z" fill="#EF9E1B"/>
    <path d="M156.328 166.95V172.668C156.255 172.681 156.182 172.689 156.108 172.689H155.74V166.931H156.108C156.182 166.931 156.255 166.937 156.328 166.95Z" fill="#EF9E1B"/>
    <path d="M157.141 167.484V172.135C156.999 172.346 156.795 172.511 156.554 172.605L156.556 167.016C156.795 167.107 156.999 167.273 157.141 167.484Z" fill="#EF9E1B"/>
    <path d="M156.607 150.879V154.131C156.607 154.39 156.528 154.631 156.393 154.83C156.251 155.041 156.047 155.207 155.806 155.3C155.732 155.329 155.655 155.35 155.576 155.364C155.504 155.377 155.43 155.384 155.355 155.384L103.672 155.375C103.465 155.375 103.267 155.324 103.096 155.234C102.73 155.043 102.468 154.673 102.426 154.243C102.425 154.224 102.423 154.206 102.422 154.187C102.422 154.166 102.42 154.143 102.42 154.123V150.87C102.42 150.85 102.42 150.827 102.422 150.806C102.455 150.147 103.004 149.618 103.67 149.618L155.353 149.626C155.429 149.626 155.503 149.632 155.575 149.646C155.653 149.659 155.73 149.682 155.804 149.711C156.043 149.804 156.249 149.97 156.392 150.18C156.528 150.378 156.607 150.62 156.607 150.879Z" fill="#FFB93E"/>
    <path d="M131.227 155.379L103.539 155.374C103.355 155.374 103.18 155.322 103.026 155.232C102.698 155.041 102.465 154.671 102.429 154.242C102.427 154.222 102.425 154.205 102.424 154.185C102.424 154.164 102.422 154.142 102.422 154.121V150.869C102.422 150.848 102.422 150.825 102.424 150.805C102.454 150.145 102.944 149.616 103.539 149.616L127.828 149.619C128.205 151.268 129.07 153.531 131.057 155.236C131.113 155.285 131.17 155.332 131.227 155.379Z" fill="#EF9E1B"/>
    <path d="M150.319 149.624H149.731V155.382H150.319V149.624Z" fill="#EF9E1B"/>
    <path d="M148.331 149.624H147.744V155.382H148.331V149.624Z" fill="#EF9E1B"/>
    <path d="M145.945 149.624H145.358V155.382H145.945V149.624Z" fill="#EF9E1B"/>
    <path d="M142.291 149.622H141.703V155.38H142.291V149.622Z" fill="#EF9E1B"/>
    <path d="M138.426 149.622H137.839V155.38H138.426V149.622Z" fill="#EF9E1B"/>
    <path d="M132.502 149.622H131.915V155.38H132.502V149.622Z" fill="#EF9E1B"/>
    <path d="M126.953 149.621H126.365V155.379H126.953V149.621Z" fill="#EF9E1B"/>
    <path d="M122 149.621H121.413V155.379H122V149.621Z" fill="#EF9E1B"/>
    <path d="M152.211 149.624H151.623V155.382H152.211V149.624Z" fill="#EF9E1B"/>
    <path d="M153.461 149.624H152.874V155.382H153.461V149.624Z" fill="#EF9E1B"/>
    <path d="M154.669 149.626H154.082V155.384H154.669V149.626Z" fill="#EF9E1B"/>
    <path d="M155.58 149.645V155.363C155.507 155.376 155.434 155.384 155.36 155.384H154.992V149.626H155.36C155.434 149.626 155.507 149.632 155.58 149.645Z" fill="#EF9E1B"/>
    <path d="M156.393 150.179V154.83C156.251 155.041 156.047 155.206 155.806 155.3L155.808 149.711C156.047 149.802 156.251 149.968 156.393 150.179Z" fill="#EF9E1B"/>
    <path d="M147.213 197.025V200.277C147.213 200.536 147.134 200.778 146.998 200.977C146.855 201.188 146.651 201.353 146.411 201.445C146.337 201.474 146.261 201.495 146.181 201.509C146.109 201.522 146.037 201.53 145.961 201.53L94.278 201.522C93.6119 201.522 93.063 200.993 93.0293 200.334C93.0293 200.313 93.0277 200.29 93.0277 200.269V197.017C93.0277 196.996 93.0277 196.974 93.0293 196.953C93.0598 196.343 93.5333 195.845 94.1304 195.774C94.1785 195.768 94.2283 195.764 94.278 195.764L145.963 195.772C146.038 195.772 146.11 195.779 146.183 195.793C146.261 195.808 146.338 195.829 146.411 195.858C146.651 195.951 146.855 196.117 146.998 196.327C147.134 196.527 147.213 196.766 147.213 197.025Z" fill="#FFB93E"/>
    <path d="M121.832 201.525L94.1426 201.522C93.5471 201.522 93.0576 200.993 93.0271 200.334C93.0271 200.313 93.0255 200.29 93.0255 200.269V197.017C93.0255 196.996 93.0255 196.974 93.0271 196.953C93.0544 196.343 93.4765 195.845 94.011 195.774C94.0543 195.768 94.0977 195.764 94.1426 195.764L118.431 195.768C118.431 195.771 118.433 195.774 118.433 195.776C118.823 197.471 119.727 199.809 121.832 201.525Z" fill="#EF9E1B"/>
    <path d="M140.923 195.771H140.335V201.529H140.923V195.771Z" fill="#EF9E1B"/>
    <path d="M138.935 195.771H138.347V201.529H138.935V195.771Z" fill="#EF9E1B"/>
    <path d="M136.551 195.771H135.963V201.529H136.551V195.771Z" fill="#EF9E1B"/>
    <path d="M132.896 195.771H132.308V201.529H132.896V195.771Z" fill="#EF9E1B"/>
    <path d="M129.031 195.77H128.443V201.527H129.031V195.77Z" fill="#EF9E1B"/>
    <path d="M123.106 195.77H122.519V201.527H123.106V195.77Z" fill="#EF9E1B"/>
    <path d="M117.559 195.768H116.971V201.526H117.559V195.768Z" fill="#EF9E1B"/>
    <path d="M112.604 195.768H112.016V201.526H112.604V195.768Z" fill="#EF9E1B"/>
    <path d="M142.817 195.771H142.229V201.529H142.817V195.771Z" fill="#EF9E1B"/>
    <path d="M144.066 195.773H143.479V201.531H144.066V195.773Z" fill="#EF9E1B"/>
    <path d="M145.274 195.773H144.687V201.531H145.274V195.773Z" fill="#EF9E1B"/>
    <path d="M146.182 195.792L146.18 201.51C146.108 201.523 146.036 201.531 145.961 201.531H145.593L145.595 195.773H145.962C146.038 195.773 146.11 195.779 146.182 195.792Z" fill="#EF9E1B"/>
    <path d="M146.997 196.326V200.977C146.854 201.188 146.651 201.354 146.41 201.447V195.858C146.651 195.949 146.856 196.115 146.997 196.326Z" fill="#EF9E1B"/>
    <path d="M160.274 198.43V201.173C160.274 201.392 160.34 201.595 160.455 201.763C160.576 201.941 160.748 202.081 160.951 202.158C161.013 202.182 161.077 202.2 161.144 202.212C161.205 202.223 161.266 202.23 161.33 202.23L204.918 202.223C205.48 202.223 205.943 201.777 205.971 201.221C205.971 201.203 205.972 201.184 205.972 201.166V198.424C205.972 198.406 205.972 198.387 205.971 198.369C205.945 197.855 205.546 197.435 205.042 197.375C205.002 197.37 204.96 197.367 204.918 197.367L161.328 197.374C161.265 197.374 161.204 197.379 161.143 197.391C161.077 197.404 161.012 197.421 160.951 197.446C160.748 197.524 160.576 197.664 160.455 197.842C160.34 198.01 160.274 198.212 160.274 198.43Z" fill="#FFB93E"/>
    <path d="M181.679 202.226L205.032 202.223C205.534 202.223 205.947 201.777 205.972 201.221C205.972 201.203 205.974 201.184 205.974 201.166V198.424C205.974 198.406 205.974 198.387 205.972 198.369C205.949 197.855 205.593 197.435 205.143 197.375C205.106 197.37 205.07 197.367 205.032 197.367L184.547 197.37C184.547 197.372 184.546 197.375 184.546 197.376C184.217 198.806 183.455 200.778 181.679 202.226Z" fill="#EF9E1B"/>
    <path d="M165.579 197.373H166.075V202.229H165.579V197.373Z" fill="#EF9E1B"/>
    <path d="M167.255 197.373H167.75V202.229H167.255V197.373Z" fill="#EF9E1B"/>
    <path d="M169.265 197.373H169.761V202.229H169.265V197.373Z" fill="#EF9E1B"/>
    <path d="M172.348 197.373H172.843V202.229H172.348V197.373Z" fill="#EF9E1B"/>
    <path d="M175.607 197.372H176.103V202.228H175.607V197.372Z" fill="#EF9E1B"/>
    <path d="M180.605 197.372H181.101V202.228H180.605V197.372Z" fill="#EF9E1B"/>
    <path d="M185.282 197.37H185.777V202.226H185.282V197.37Z" fill="#EF9E1B"/>
    <path d="M189.462 197.37H189.957V202.226H189.462V197.37Z" fill="#EF9E1B"/>
    <path d="M163.981 197.373H164.476V202.229H163.981V197.373Z" fill="#EF9E1B"/>
    <path d="M162.926 197.374H163.422V202.23H162.926V197.374Z" fill="#EF9E1B"/>
    <path d="M161.908 197.374H162.403V202.23H161.908V197.374Z" fill="#EF9E1B"/>
    <path d="M161.142 197.39L161.144 202.213C161.205 202.223 161.265 202.23 161.329 202.23H161.639L161.638 197.374H161.328C161.264 197.374 161.203 197.38 161.142 197.39Z" fill="#EF9E1B"/>
    <path d="M160.454 197.841V201.764C160.575 201.941 160.746 202.081 160.949 202.16V197.446C160.746 197.523 160.573 197.663 160.454 197.841Z" fill="#EF9E1B"/>
    <path d="M149.457 179.72V182.973C149.457 183.231 149.379 183.473 149.242 183.672C149.099 183.883 148.896 184.049 148.655 184.14C148.581 184.169 148.506 184.19 148.425 184.205C148.353 184.217 148.281 184.225 148.205 184.225L96.5223 184.217C95.8562 184.217 95.3073 183.688 95.2736 183.029C95.2736 183.008 95.272 182.985 95.272 182.964V179.712C95.272 179.691 95.272 179.669 95.2736 179.648C95.3041 179.038 95.7776 178.54 96.3746 178.469C96.4228 178.463 96.4725 178.459 96.5223 178.459L148.207 178.468C148.282 178.468 148.355 178.474 148.427 178.488C148.506 178.503 148.583 178.524 148.655 178.553C148.896 178.646 149.099 178.812 149.242 179.022C149.379 179.222 149.457 179.461 149.457 179.72Z" fill="#FFB93E"/>
    <path d="M124.077 184.221L96.3869 184.217C95.7914 184.217 95.3019 183.688 95.2714 183.029C95.2714 183.008 95.2698 182.985 95.2698 182.964V179.712C95.2698 179.691 95.2698 179.669 95.2714 179.648C95.2986 179.038 95.7208 178.54 96.2552 178.469C96.2986 178.463 96.3419 178.459 96.3869 178.459L120.676 178.463C120.676 178.466 120.677 178.469 120.677 178.471C121.067 180.166 121.971 182.504 124.077 184.221Z" fill="#EF9E1B"/>
    <path d="M143.167 178.466H142.579V184.224H143.167V178.466Z" fill="#EF9E1B"/>
    <path d="M141.179 178.466H140.592V184.224H141.179V178.466Z" fill="#EF9E1B"/>
    <path d="M138.795 178.466H138.208V184.224H138.795V178.466Z" fill="#EF9E1B"/>
    <path d="M135.14 178.466H134.553V184.224H135.14V178.466Z" fill="#EF9E1B"/>
    <path d="M131.275 178.464H130.688V184.222H131.275V178.464Z" fill="#EF9E1B"/>
    <path d="M125.35 178.464H124.763V184.222H125.35V178.464Z" fill="#EF9E1B"/>
    <path d="M119.803 178.463H119.216V184.221H119.803V178.463Z" fill="#EF9E1B"/>
    <path d="M114.848 178.463H114.261V184.221H114.848V178.463Z" fill="#EF9E1B"/>
    <path d="M145.061 178.466H144.474V184.224H145.061V178.466Z" fill="#EF9E1B"/>
    <path d="M146.311 178.468H145.723V184.225H146.311V178.468Z" fill="#EF9E1B"/>
    <path d="M147.518 178.468H146.931V184.225H147.518V178.468Z" fill="#EF9E1B"/>
    <path d="M148.427 178.487L148.425 184.205C148.353 184.217 148.281 184.225 148.205 184.225H147.838L147.839 178.468H148.207C148.282 178.468 148.354 178.474 148.427 178.487Z" fill="#EF9E1B"/>
    <path d="M149.242 179.021V183.672C149.099 183.883 148.895 184.048 148.654 184.142V178.553C148.895 178.644 149.1 178.81 149.242 179.021Z" fill="#EF9E1B"/>
    <path d="M158.382 183.89V186.633C158.382 186.852 158.449 187.055 158.564 187.223C158.684 187.401 158.856 187.541 159.059 187.618C159.122 187.642 159.185 187.66 159.253 187.672C159.314 187.683 159.375 187.69 159.438 187.69L203.026 187.683C203.588 187.683 204.051 187.237 204.08 186.681C204.08 186.663 204.081 186.644 204.081 186.626V183.884C204.081 183.866 204.081 183.847 204.08 183.829C204.054 183.315 203.655 182.895 203.151 182.835C203.11 182.83 203.068 182.827 203.026 182.827L159.437 182.834C159.373 182.834 159.312 182.839 159.252 182.851C159.185 182.864 159.12 182.881 159.059 182.906C158.856 182.984 158.684 183.124 158.564 183.302C158.449 183.47 158.382 183.672 158.382 183.89Z" fill="#FFB93E"/>
    <path d="M179.788 187.686L203.14 187.683C203.642 187.683 204.055 187.237 204.081 186.681C204.081 186.663 204.082 186.644 204.082 186.626V183.884C204.082 183.866 204.082 183.847 204.081 183.829C204.058 183.315 203.702 182.895 203.251 182.835C203.215 182.83 203.178 182.827 203.14 182.827L182.656 182.83C182.656 182.832 182.654 182.835 182.654 182.837C182.326 184.266 181.563 186.238 179.788 187.686Z" fill="#EF9E1B"/>
    <path d="M163.688 182.833H164.184V187.689H163.688V182.833Z" fill="#EF9E1B"/>
    <path d="M165.364 182.833H165.86V187.689H165.364V182.833Z" fill="#EF9E1B"/>
    <path d="M167.375 182.833H167.87V187.689H167.375V182.833Z" fill="#EF9E1B"/>
    <path d="M170.457 182.833H170.953V187.689H170.457V182.833Z" fill="#EF9E1B"/>
    <path d="M173.717 182.831H174.212V187.687H173.717V182.831Z" fill="#EF9E1B"/>
    <path d="M178.715 182.831H179.21V187.687H178.715V182.831Z" fill="#EF9E1B"/>
    <path d="M183.391 182.83H183.887V187.686H183.391V182.83Z" fill="#EF9E1B"/>
    <path d="M187.571 182.83H188.066V187.686H187.571V182.83Z" fill="#EF9E1B"/>
    <path d="M162.09 182.833H162.586V187.689H162.09V182.833Z" fill="#EF9E1B"/>
    <path d="M161.035 182.834H161.531V187.69H161.035V182.834Z" fill="#EF9E1B"/>
    <path d="M160.017 182.834H160.512V187.69H160.017V182.834Z" fill="#EF9E1B"/>
    <path d="M159.252 182.85L159.253 187.673C159.314 187.683 159.375 187.69 159.438 187.69H159.748L159.747 182.834H159.437C159.373 182.834 159.313 182.84 159.252 182.85Z" fill="#EF9E1B"/>
    <path d="M158.563 183.301V187.223C158.684 187.401 158.856 187.541 159.059 187.62V182.906C158.856 182.983 158.683 183.123 158.563 183.301Z" fill="#EF9E1B"/>
    <path d="M151.701 162.415V165.667C151.701 165.926 151.622 166.167 151.486 166.367C151.343 166.578 151.139 166.743 150.898 166.835C150.824 166.864 150.749 166.885 150.669 166.899C150.597 166.912 150.524 166.92 150.449 166.92L98.7658 166.912C98.0997 166.912 97.5508 166.383 97.5171 165.724C97.5171 165.703 97.5155 165.68 97.5155 165.659V162.407C97.5155 162.386 97.5155 162.364 97.5171 162.343C97.5476 161.733 98.0211 161.235 98.6181 161.164C98.6663 161.157 98.7161 161.154 98.7658 161.154L150.451 161.162C150.526 161.162 150.598 161.169 150.67 161.183C150.749 161.198 150.826 161.219 150.898 161.247C151.139 161.341 151.343 161.506 151.486 161.717C151.622 161.917 151.701 162.156 151.701 162.415Z" fill="#FFB93E"/>
    <path d="M126.32 166.915L98.6304 166.912C98.0349 166.912 97.5454 166.383 97.5149 165.724C97.5149 165.703 97.5133 165.68 97.5133 165.659V162.407C97.5133 162.386 97.5133 162.364 97.5149 162.343C97.5422 161.733 97.9643 161.235 98.4988 161.164C98.5421 161.157 98.5854 161.154 98.6304 161.154L122.919 161.157C122.919 161.161 122.921 161.164 122.921 161.165C123.311 162.861 124.214 165.199 126.32 166.915Z" fill="#EF9E1B"/>
    <path d="M145.411 161.161H144.823V166.919H145.411V161.161Z" fill="#EF9E1B"/>
    <path d="M143.423 161.161H142.836V166.919H143.423V161.161Z" fill="#EF9E1B"/>
    <path d="M141.039 161.161H140.451V166.919H141.039V161.161Z" fill="#EF9E1B"/>
    <path d="M137.384 161.161H136.797V166.919H137.384V161.161Z" fill="#EF9E1B"/>
    <path d="M133.519 161.159H132.932V166.917H133.519V161.159Z" fill="#EF9E1B"/>
    <path d="M127.594 161.159H127.007V166.917H127.594V161.159Z" fill="#EF9E1B"/>
    <path d="M122.047 161.158H121.459V166.916H122.047V161.158Z" fill="#EF9E1B"/>
    <path d="M117.092 161.158H116.505V166.916H117.092V161.158Z" fill="#EF9E1B"/>
    <path d="M147.305 161.161H146.717V166.919H147.305V161.161Z" fill="#EF9E1B"/>
    <path d="M148.555 161.162H147.967V166.92H148.555V161.162Z" fill="#EF9E1B"/>
    <path d="M149.762 161.162H149.175V166.92H149.762V161.162Z" fill="#EF9E1B"/>
    <path d="M150.671 161.182L150.669 166.899C150.597 166.912 150.525 166.92 150.449 166.92H150.082L150.084 161.162H150.451C150.527 161.162 150.599 161.169 150.671 161.182Z" fill="#EF9E1B"/>
    <path d="M151.486 161.716V166.367C151.343 166.578 151.139 166.743 150.899 166.837V161.248C151.139 161.339 151.345 161.505 151.486 161.716Z" fill="#EF9E1B"/>
    <path d="M150.953 145.11V148.362C150.953 148.621 150.874 148.863 150.738 149.062C150.595 149.273 150.391 149.438 150.151 149.53C150.077 149.559 150.001 149.58 149.921 149.594C149.849 149.607 149.777 149.615 149.701 149.615L98.0181 149.607C97.3521 149.607 96.8031 149.078 96.7694 148.419C96.7694 148.398 96.7678 148.375 96.7678 148.354V145.102C96.7678 145.081 96.7678 145.059 96.7694 145.038C96.7999 144.428 97.2734 143.93 97.8705 143.859C97.9186 143.853 97.9684 143.849 98.0181 143.849L149.703 143.857C149.778 143.857 149.85 143.864 149.923 143.878C150.001 143.893 150.078 143.914 150.151 143.943C150.391 144.036 150.595 144.202 150.738 144.412C150.874 144.612 150.953 144.851 150.953 145.11Z" fill="#FFB93E"/>
    <path d="M125.572 149.61L97.8827 149.607C97.2872 149.607 96.7977 149.078 96.7672 148.419C96.7672 148.398 96.7656 148.375 96.7656 148.354V145.102C96.7656 145.081 96.7656 145.059 96.7672 145.038C96.7945 144.428 97.2166 143.93 97.7511 143.859C97.7944 143.853 97.8378 143.849 97.8827 143.849L122.171 143.853C122.171 143.856 122.173 143.859 122.173 143.861C122.563 145.556 123.467 147.894 125.572 149.61Z" fill="#EF9E1B"/>
    <path d="M144.663 143.856H144.075V149.614H144.663V143.856Z" fill="#EF9E1B"/>
    <path d="M142.675 143.856H142.088V149.614H142.675V143.856Z" fill="#EF9E1B"/>
    <path d="M140.291 143.856H139.703V149.614H140.291V143.856Z" fill="#EF9E1B"/>
    <path d="M136.636 143.856H136.049V149.614H136.636V143.856Z" fill="#EF9E1B"/>
    <path d="M132.771 143.854H132.184V149.612H132.771V143.854Z" fill="#EF9E1B"/>
    <path d="M126.846 143.854H126.259V149.612H126.846V143.854Z" fill="#EF9E1B"/>
    <path d="M121.299 143.853H120.711V149.61H121.299V143.853Z" fill="#EF9E1B"/>
    <path d="M116.344 143.853H115.757V149.61H116.344V143.853Z" fill="#EF9E1B"/>
    <path d="M146.557 143.856H145.969V149.614H146.557V143.856Z" fill="#EF9E1B"/>
    <path d="M147.807 143.857H147.219V149.615H147.807V143.857Z" fill="#EF9E1B"/>
    <path d="M149.014 143.857H148.427V149.615H149.014V143.857Z" fill="#EF9E1B"/>
    <path d="M149.923 143.877L149.921 149.594C149.849 149.607 149.777 149.615 149.702 149.615H149.334L149.336 143.857H149.703C149.779 143.857 149.851 143.864 149.923 143.877Z" fill="#EF9E1B"/>
    <path d="M150.738 144.41V149.062C150.595 149.273 150.392 149.438 150.151 149.531V143.942C150.392 144.034 150.597 144.2 150.738 144.41Z" fill="#EF9E1B"/>
    <path d="M152.606 191.258V194.51C152.606 194.769 152.527 195.008 152.391 195.209C152.248 195.42 152.044 195.586 151.803 195.679C151.729 195.708 151.654 195.729 151.574 195.743C151.55 195.748 151.526 195.751 151.502 195.755C151.489 195.756 151.474 195.758 151.461 195.759C151.449 195.761 151.434 195.761 151.421 195.763C151.399 195.764 151.378 195.764 151.355 195.764L99.6724 195.756C99.0063 195.756 98.4574 195.227 98.4237 194.568C98.4221 194.547 98.4221 194.524 98.4221 194.503V191.251C98.4221 191.23 98.4221 191.208 98.4237 191.187C98.4237 191.169 98.4253 191.152 98.4269 191.134C98.4767 190.603 98.8619 190.166 99.3643 190.037C99.3771 190.034 99.3899 190.031 99.4028 190.027C99.4895 190.008 99.5809 189.998 99.6724 189.998L151.355 190.006C151.394 190.006 151.431 190.008 151.468 190.011C151.484 190.013 151.502 190.014 151.518 190.018C151.537 190.021 151.556 190.024 151.575 190.027C151.654 190.042 151.731 190.063 151.805 190.092C152.044 190.185 152.249 190.351 152.392 190.561C152.527 190.757 152.606 190.997 152.606 191.258Z" fill="#FFB93E"/>
    <path d="M127.226 195.758L99.5363 195.753C98.9424 195.753 98.4513 195.224 98.4208 194.565C98.4192 194.544 98.4192 194.521 98.4192 194.5V191.248C98.4192 191.227 98.4192 191.205 98.4208 191.184C98.4208 191.166 98.4224 191.148 98.424 191.131C98.4689 190.589 98.8269 190.143 99.2907 190.026C99.3068 190.021 99.3228 190.018 99.3389 190.015C99.4031 190.002 99.4689 189.995 99.5363 189.994L123.825 189.997C123.828 190.01 123.831 190.024 123.835 190.037C124.226 191.726 125.13 194.042 127.213 195.745C127.218 195.752 127.223 195.755 127.226 195.758Z" fill="#EF9E1B"/>
    <path d="M146.316 190.003H145.728V195.761H146.316V190.003Z" fill="#EF9E1B"/>
    <path d="M144.329 190.003H143.741V195.761H144.329V190.003Z" fill="#EF9E1B"/>
    <path d="M141.944 190.002H141.356V195.76H141.944V190.002Z" fill="#EF9E1B"/>
    <path d="M138.289 190.002H137.702V195.76H138.289V190.002Z" fill="#EF9E1B"/>
    <path d="M134.424 190.002H133.837V195.76H134.424V190.002Z" fill="#EF9E1B"/>
    <path d="M128.499 190H127.912V195.758H128.499V190Z" fill="#EF9E1B"/>
    <path d="M122.952 190H122.365V195.758H122.952V190Z" fill="#EF9E1B"/>
    <path d="M117.997 189.998H117.41V195.756H117.997V189.998Z" fill="#EF9E1B"/>
    <path d="M148.21 190.003H147.622V195.761H148.21V190.003Z" fill="#EF9E1B"/>
    <path d="M149.46 190.003H148.872V195.761H149.46V190.003Z" fill="#EF9E1B"/>
    <path d="M150.666 190.003H150.079V195.761H150.666V190.003Z" fill="#EF9E1B"/>
    <path d="M151.575 190.024L151.574 195.742C151.502 195.755 151.429 195.763 151.354 195.763H150.986V190.005H151.354C151.431 190.003 151.505 190.01 151.575 190.024Z" fill="#EF9E1B"/>
    <path d="M152.39 190.556V195.208C152.248 195.418 152.044 195.584 151.803 195.677V190.088C152.044 190.18 152.249 190.345 152.39 190.556Z" fill="#EF9E1B"/>
    <path d="M155.725 193.582V196.325C155.725 196.543 155.791 196.745 155.906 196.915C156.027 197.092 156.199 197.232 156.402 197.311C156.464 197.335 156.528 197.353 156.595 197.365C156.616 197.369 156.636 197.372 156.656 197.374C156.667 197.376 156.679 197.377 156.69 197.379C156.701 197.38 156.713 197.38 156.724 197.381C156.743 197.383 156.761 197.383 156.78 197.383L200.368 197.376C200.929 197.376 201.392 196.93 201.421 196.373C201.422 196.356 201.422 196.337 201.422 196.319V193.576C201.422 193.559 201.422 193.54 201.421 193.522C201.421 193.507 201.419 193.492 201.418 193.477C201.376 193.03 201.051 192.661 200.628 192.552C200.617 192.55 200.606 192.547 200.595 192.544C200.522 192.528 200.445 192.52 200.368 192.52L156.78 192.527C156.747 192.527 156.716 192.528 156.685 192.531C156.671 192.532 156.656 192.533 156.643 192.536C156.627 192.539 156.61 192.541 156.594 192.544C156.528 192.556 156.463 192.574 156.4 192.598C156.199 192.677 156.026 192.817 155.905 192.995C155.791 193.16 155.725 193.362 155.725 193.582Z" fill="#FFB93E"/>
    <path d="M177.13 197.377L200.483 197.373C200.984 197.373 201.398 196.927 201.424 196.371C201.425 196.353 201.425 196.334 201.425 196.317V193.574C201.425 193.556 201.425 193.537 201.424 193.52C201.424 193.505 201.422 193.49 201.421 193.475C201.383 193.018 201.081 192.642 200.69 192.543C200.677 192.539 200.663 192.536 200.649 192.534C200.595 192.523 200.54 192.517 200.483 192.516L179.998 192.519C179.996 192.529 179.993 192.542 179.99 192.553C179.66 193.977 178.898 195.93 177.141 197.367C177.137 197.372 177.133 197.375 177.13 197.377Z" fill="#EF9E1B"/>
    <path d="M161.031 192.524H161.527V197.38H161.031V192.524Z" fill="#EF9E1B"/>
    <path d="M162.706 192.524H163.201V197.38H162.706V192.524Z" fill="#EF9E1B"/>
    <path d="M164.717 192.522H165.213V197.378H164.717V192.522Z" fill="#EF9E1B"/>
    <path d="M167.8 192.522H168.295V197.378H167.8V192.522Z" fill="#EF9E1B"/>
    <path d="M171.059 192.522H171.555V197.378H171.059V192.522Z" fill="#EF9E1B"/>
    <path d="M176.057 192.521H176.553V197.377H176.057V192.521Z" fill="#EF9E1B"/>
    <path d="M180.734 192.521H181.229V197.377H180.734V192.521Z" fill="#EF9E1B"/>
    <path d="M184.914 192.519H185.409V197.376H184.914V192.519Z" fill="#EF9E1B"/>
    <path d="M159.433 192.524H159.928V197.38H159.433V192.524Z" fill="#EF9E1B"/>
    <path d="M158.378 192.524H158.874V197.38H158.378V192.524Z" fill="#EF9E1B"/>
    <path d="M157.36 192.524H157.855V197.38H157.36V192.524Z" fill="#EF9E1B"/>
    <path d="M156.594 192.541L156.596 197.363C156.657 197.374 156.717 197.381 156.781 197.381H157.091V192.525H156.781C156.716 192.524 156.654 192.529 156.594 192.541Z" fill="#EF9E1B"/>
    <path d="M155.906 192.99V196.913C156.027 197.091 156.199 197.23 156.402 197.309V192.595C156.199 192.673 156.025 192.812 155.906 192.99Z" fill="#EF9E1B"/>
    <path d="M154.85 173.953V177.205C154.85 177.464 154.771 177.704 154.635 177.905C154.492 178.115 154.288 178.281 154.047 178.374C153.974 178.403 153.898 178.424 153.818 178.439C153.794 178.443 153.77 178.447 153.746 178.45C153.733 178.451 153.718 178.453 153.706 178.455C153.693 178.456 153.678 178.456 153.665 178.458C153.643 178.459 153.622 178.459 153.6 178.459L101.917 178.451C101.25 178.451 100.702 177.922 100.668 177.263C100.666 177.242 100.666 177.219 100.666 177.198V173.946C100.666 173.925 100.666 173.903 100.668 173.882C100.668 173.864 100.669 173.847 100.671 173.829C100.721 173.298 101.106 172.861 101.608 172.732C101.621 172.729 101.634 172.726 101.647 172.722C101.734 172.703 101.825 172.693 101.917 172.693L153.6 172.702C153.638 172.702 153.675 172.703 153.712 172.706C153.728 172.708 153.746 172.71 153.762 172.713C153.781 172.716 153.8 172.719 153.82 172.722C153.898 172.737 153.975 172.758 154.049 172.787C154.288 172.88 154.494 173.046 154.636 173.256C154.771 173.453 154.85 173.692 154.85 173.953Z" fill="#FFB93E"/>
    <path d="M129.47 178.453L101.78 178.448C101.187 178.448 100.695 177.919 100.665 177.26C100.663 177.239 100.663 177.216 100.663 177.195V173.943C100.663 173.922 100.663 173.9 100.665 173.879C100.665 173.861 100.667 173.844 100.668 173.826C100.713 173.284 101.071 172.838 101.535 172.721C101.551 172.716 101.567 172.713 101.583 172.71C101.647 172.697 101.713 172.69 101.78 172.689L126.069 172.692C126.072 172.705 126.076 172.719 126.079 172.732C126.47 174.421 127.374 176.737 129.457 178.44C129.462 178.447 129.467 178.45 129.47 178.453Z" fill="#EF9E1B"/>
    <path d="M148.56 172.698H147.973V178.456H148.56V172.698Z" fill="#EF9E1B"/>
    <path d="M146.573 172.698H145.986V178.456H146.573V172.698Z" fill="#EF9E1B"/>
    <path d="M144.188 172.696H143.601V178.454H144.188V172.696Z" fill="#EF9E1B"/>
    <path d="M140.533 172.696H139.946V178.454H140.533V172.696Z" fill="#EF9E1B"/>
    <path d="M136.668 172.696H136.081V178.454H136.668V172.696Z" fill="#EF9E1B"/>
    <path d="M130.744 172.695H130.156V178.453H130.744V172.695Z" fill="#EF9E1B"/>
    <path d="M125.196 172.695H124.609V178.453H125.196V172.695Z" fill="#EF9E1B"/>
    <path d="M120.241 172.693H119.654V178.451H120.241V172.693Z" fill="#EF9E1B"/>
    <path d="M150.454 172.698H149.866V178.456H150.454V172.698Z" fill="#EF9E1B"/>
    <path d="M151.704 172.698H151.117V178.456H151.704V172.698Z" fill="#EF9E1B"/>
    <path d="M152.911 172.698H152.323V178.456H152.911V172.698Z" fill="#EF9E1B"/>
    <path d="M153.82 172.719L153.818 178.437C153.746 178.45 153.674 178.458 153.598 178.458H153.231V172.7H153.598C153.675 172.698 153.749 172.705 153.82 172.719Z" fill="#EF9E1B"/>
    <path d="M154.635 173.251V177.903C154.492 178.113 154.288 178.279 154.047 178.372V172.783C154.288 172.875 154.494 173.041 154.635 173.251Z" fill="#EF9E1B"/>
    <path d="M157.094 156.648V159.9C157.094 160.159 157.016 160.398 156.879 160.599C156.736 160.81 156.532 160.976 156.292 161.069C156.218 161.098 156.142 161.119 156.062 161.133C156.038 161.138 156.014 161.141 155.99 161.144C155.977 161.146 155.963 161.148 155.95 161.149C155.937 161.151 155.923 161.151 155.91 161.153C155.887 161.154 155.866 161.154 155.844 161.154L104.161 161.146C103.495 161.146 102.946 160.617 102.912 159.958C102.911 159.937 102.911 159.914 102.911 159.893V156.641C102.911 156.62 102.911 156.598 102.912 156.577C102.912 156.559 102.914 156.541 102.915 156.524C102.965 155.993 103.35 155.555 103.853 155.427C103.866 155.424 103.878 155.42 103.891 155.417C103.978 155.398 104.069 155.388 104.161 155.388L155.844 155.396C155.882 155.396 155.919 155.398 155.956 155.401C155.972 155.403 155.99 155.404 156.006 155.407C156.025 155.411 156.045 155.414 156.064 155.417C156.142 155.432 156.219 155.453 156.293 155.481C156.532 155.575 156.738 155.74 156.881 155.951C157.016 156.147 157.094 156.387 157.094 156.648Z" fill="#FFB93E"/>
    <path d="M131.714 161.148L104.025 161.143C103.431 161.143 102.94 160.614 102.909 159.954C102.908 159.933 102.908 159.911 102.908 159.89V156.638C102.908 156.617 102.908 156.595 102.909 156.574C102.909 156.556 102.911 156.538 102.912 156.521C102.957 155.979 103.315 155.533 103.779 155.416C103.795 155.411 103.811 155.408 103.827 155.404C103.891 155.391 103.957 155.385 104.025 155.383L128.313 155.387C128.317 155.4 128.32 155.414 128.323 155.427C128.715 157.116 129.618 159.432 131.702 161.135C131.706 161.141 131.711 161.145 131.714 161.148Z" fill="#EF9E1B"/>
    <path d="M150.804 155.393H150.216V161.151H150.804V155.393Z" fill="#EF9E1B"/>
    <path d="M148.817 155.393H148.229V161.151H148.817V155.393Z" fill="#EF9E1B"/>
    <path d="M146.432 155.391H145.844V161.149H146.432V155.391Z" fill="#EF9E1B"/>
    <path d="M142.777 155.391H142.19V161.149H142.777V155.391Z" fill="#EF9E1B"/>
    <path d="M138.912 155.391H138.325V161.149H138.912V155.391Z" fill="#EF9E1B"/>
    <path d="M132.987 155.39H132.4V161.147H132.987V155.39Z" fill="#EF9E1B"/>
    <path d="M127.44 155.39H126.853V161.147H127.44V155.39Z" fill="#EF9E1B"/>
    <path d="M122.485 155.388H121.898V161.146H122.485V155.388Z" fill="#EF9E1B"/>
    <path d="M152.699 155.393H152.111V161.151H152.699V155.393Z" fill="#EF9E1B"/>
    <path d="M153.948 155.393H153.36V161.151H153.948V155.393Z" fill="#EF9E1B"/>
    <path d="M155.155 155.393H154.567V161.151H155.155V155.393Z" fill="#EF9E1B"/>
    <path d="M156.063 155.414L156.062 161.132C155.99 161.145 155.917 161.153 155.842 161.153H155.474V155.395H155.842C155.919 155.393 155.993 155.399 156.063 155.414Z" fill="#EF9E1B"/>
    <path d="M156.879 155.946V160.597C156.736 160.808 156.532 160.974 156.291 161.067V155.478C156.532 155.57 156.737 155.735 156.879 155.946Z" fill="#EF9E1B"/>
    <path opacity="0.2" d="M185.031 202.316C185.031 202.316 206.279 148.271 237.844 142.366C238.405 142.26 238.914 142.711 238.888 143.284C238.567 149.955 234.522 185.234 185.031 202.316Z" fill="#404D63"/>
    <path opacity="0.2" d="M83.3011 203.815C83.3011 203.815 62.0532 149.77 30.4883 143.865C29.9271 143.759 29.4186 144.21 29.445 144.783C29.7651 151.454 33.8106 186.733 83.3011 203.815Z" fill="#404D63"/>
    <path opacity="0.62" d="M232.139 151.496C230.525 153.789 228.836 156.018 227.121 158.233C226.695 158.788 226.258 159.332 225.824 159.884C225.387 160.432 224.961 160.987 224.52 161.528L223.197 163.156C222.752 163.697 222.318 164.248 221.866 164.781C220.965 165.851 220.067 166.928 219.159 167.994L216.403 171.165C214.533 173.248 212.663 175.334 210.733 177.368L209.297 178.903C208.826 179.421 208.324 179.909 207.838 180.415L204.909 183.429L201.904 186.371C201.403 186.859 200.905 187.354 200.392 187.835L198.843 189.257C197.806 190.203 196.785 191.16 195.729 192.087L192.528 194.819L191.725 195.498C191.454 195.723 191.194 195.952 190.915 196.17L189.26 197.472C188.71 197.907 188.152 198.331 187.601 198.763C187.047 199.195 186.493 199.622 185.935 200.047C185.893 200.08 185.829 200.073 185.799 200.028C185.769 199.986 185.773 199.93 185.814 199.896L185.818 199.893C186.35 199.439 186.885 198.988 187.424 198.538C187.959 198.088 188.495 197.633 189.034 197.191L190.651 195.851C191.183 195.397 191.699 194.924 192.231 194.466L195.397 191.711L198.5 188.886L200.053 187.475C200.313 187.238 200.558 186.99 200.815 186.75L201.576 186.026L204.618 183.136C206.598 181.159 208.611 179.211 210.518 177.166C211.483 176.152 212.46 175.15 213.391 174.107C214.33 173.071 215.28 172.043 216.215 171L218.982 167.844C219.894 166.785 220.791 165.712 221.7 164.642C222.156 164.113 222.593 163.565 223.038 163.025L224.369 161.4C224.814 160.86 225.244 160.308 225.681 159.76C226.114 159.212 226.555 158.668 226.985 158.116C228.697 155.906 230.386 153.673 231.992 151.387C232.022 151.342 232.082 151.331 232.127 151.365C232.158 151.391 232.169 151.451 232.139 151.496Z" fill="white"/>
    <path opacity="0.62" d="M36.1938 152.995C37.8074 155.288 39.4963 157.518 41.2116 159.732C41.6376 160.287 42.0749 160.831 42.5084 161.383C42.9457 161.931 43.3717 162.486 43.8128 163.027L45.136 164.655C45.5809 165.196 46.0144 165.747 46.4668 166.28C47.3678 167.35 48.265 168.427 49.1736 169.493L51.9294 172.664C53.7992 174.747 55.6691 176.833 57.5993 178.867L59.0356 180.402C59.5068 180.92 60.0082 181.408 60.4945 181.915L63.4237 184.928L66.4284 187.87C66.9297 188.358 67.4274 188.854 67.9401 189.334L69.4895 190.756C70.5262 191.702 71.5479 192.659 72.6034 193.586L75.8041 196.318L76.607 196.997C76.8785 197.222 77.1386 197.451 77.4176 197.669L79.0726 198.971C79.623 199.407 80.1809 199.831 80.7313 200.262C81.2855 200.694 81.8397 201.122 82.3976 201.546C82.4391 201.579 82.5032 201.572 82.5333 201.527C82.5635 201.486 82.5597 201.429 82.5182 201.396L82.5145 201.392C81.9829 200.938 81.4476 200.487 80.9085 200.037C80.3732 199.587 79.8378 199.133 79.2988 198.69L77.6815 197.35C77.1499 196.896 76.6334 196.423 76.1019 195.965L72.9352 193.211L69.8326 190.385L68.2794 188.974C68.0192 188.737 67.7742 188.49 67.5178 188.249L66.7563 187.525L63.714 184.635C61.7348 182.658 59.7217 180.71 57.8142 178.665C56.8491 177.651 55.8727 176.649 54.9415 175.606C54.0028 174.57 53.0528 173.542 52.1178 172.499L49.3508 169.343C48.4384 168.284 47.5412 167.211 46.6327 166.142C46.1765 165.612 45.7392 165.064 45.2943 164.524L43.9636 162.899C43.5187 162.359 43.089 161.807 42.6517 161.259C42.2181 160.711 41.777 160.167 41.3473 159.615C39.6357 157.405 37.9468 155.172 36.3409 152.887C36.3107 152.841 36.2504 152.83 36.2052 152.864C36.175 152.89 36.1637 152.95 36.1938 152.995Z" fill="white"/>
    <path opacity="0.1" d="M108.038 202.353C108.038 202.353 100.737 125.774 56.4579 81.2182C55.8773 80.6351 54.9006 80.8409 54.6138 81.6092C50.0513 93.7378 24.5478 171.524 108.038 202.353Z" fill="#404D63"/>
    <path opacity="0.62" d="M59.3735 103.333C60.1316 107.751 61.1083 112.134 62.2216 116.477C63.3212 120.826 64.5575 125.134 65.9371 129.401C66.6338 131.528 67.3441 133.655 68.0886 135.767C68.4506 136.831 68.8467 137.873 69.2361 138.923L69.8234 140.501L70.4381 142.065C72.0637 146.236 73.819 150.359 75.7383 154.406C77.6439 158.454 79.6451 162.46 81.8648 166.35C82.138 166.837 82.4044 167.331 82.6844 167.811L83.5382 169.251L84.392 170.692C84.6788 171.172 84.9589 171.659 85.2594 172.126L87.0489 174.959L87.4928 175.672L87.9573 176.372L88.893 177.765C90.1156 179.644 91.4542 181.435 92.752 183.253C93.4145 184.152 94.1111 185.03 94.7941 185.915L95.8186 187.245C96.167 187.684 96.529 188.11 96.8841 188.542L99.0219 191.128L101.249 193.639L102.362 194.894L103.523 196.102L105.845 198.53C105.907 198.592 105.9 198.688 105.838 198.75C105.777 198.805 105.688 198.805 105.627 198.75C99.1517 192.535 93.3052 185.647 88.2305 178.218L87.2742 176.832L86.7961 176.139L86.3385 175.432L84.5217 172.592C84.2144 172.126 83.9343 171.632 83.6407 171.152L82.7732 169.704L81.9058 168.257C81.6258 167.77 81.3526 167.276 81.0794 166.789C78.8391 162.892 76.8038 158.872 74.8709 154.811C72.9516 150.743 71.2099 146.586 69.5912 142.394L68.9833 140.823L68.4028 139.239C68.0203 138.182 67.6242 137.126 67.2622 136.062C66.9002 134.999 66.5177 133.943 66.1762 132.866C65.8347 131.795 65.4864 130.725 65.1585 129.648C62.5289 121.046 60.3365 112.299 59.0524 103.388C59.0388 103.306 59.1003 103.223 59.1822 103.216C59.2778 103.189 59.353 103.244 59.3735 103.333Z" fill="white"/>
    <path d="M195.362 208.364C208.916 208.364 219.903 197.354 219.903 183.772C219.903 170.191 208.916 159.181 195.362 159.181C181.809 159.181 170.822 170.191 170.822 183.772C170.822 197.354 181.809 208.364 195.362 208.364Z" fill="#FF9431"/>
    <path d="M209.922 198.364C217.965 190.305 217.965 177.239 209.922 169.18C201.88 161.121 188.841 161.121 180.799 169.18C172.757 177.239 172.757 190.305 180.799 198.364C188.841 206.423 201.88 206.423 209.922 198.364Z" fill="#F48014"/>
    <path d="M206.663 180.191C207.146 176.962 204.689 175.226 201.332 174.067L202.421 169.692L199.763 169.03L198.701 173.29C198.003 173.114 197.286 172.951 196.57 172.787L197.64 168.5L194.981 167.836L193.892 172.21C193.313 172.077 192.744 171.948 192.193 171.809L192.196 171.795L188.528 170.879L187.82 173.722C187.82 173.722 189.794 174.175 189.753 174.203C190.83 174.473 191.024 175.186 190.991 175.753L189.751 180.737C189.825 180.755 189.921 180.783 190.028 180.824L189.747 180.755L188.008 187.737C187.876 188.063 187.542 188.555 186.788 188.368C186.816 188.407 184.856 187.886 184.856 187.886L183.536 190.933L186.997 191.798C187.64 191.959 188.271 192.129 188.891 192.288L187.791 196.712L190.448 197.375L191.538 192.999C192.264 193.195 192.968 193.377 193.658 193.549L192.572 197.906L195.23 198.568L196.33 194.153C200.866 195.013 204.275 194.666 205.711 190.559C206.868 187.253 205.654 185.344 203.268 184.101C205.006 183.701 206.314 182.556 206.663 180.191ZM200.586 188.723C199.766 192.03 194.204 190.242 192.401 189.793L193.862 183.932C195.666 184.383 201.446 185.275 200.586 188.723ZM201.409 180.143C200.66 183.152 196.032 181.622 194.532 181.248L195.855 175.933C197.355 176.307 202.191 177.005 201.409 180.143Z" fill="white"/>
    <path d="M40.9819 207.692C40.9819 208.177 41.3746 208.571 41.8587 208.571H260.452C260.936 208.571 261.329 208.177 261.329 207.692C261.329 207.207 260.936 206.814 260.452 206.814H41.8587C41.3746 206.814 40.9819 207.207 40.9819 207.692Z" fill="#4F5E74"/>
    <path d="M99.7885 200.709C109.325 191.153 109.325 175.659 99.7885 166.103C90.2523 156.547 74.7911 156.547 65.2549 166.103C55.7187 175.659 55.7187 191.153 65.2549 200.709C74.7911 210.265 90.2523 210.265 99.7885 200.709Z" fill="#FF4747"/>
    <path d="M96.415 168.312C104.733 176.001 105.259 188.99 97.5859 197.327C89.9132 205.663 76.951 206.19 68.6313 198.501C60.3131 190.812 59.7876 177.823 67.4604 169.486C75.1331 161.149 88.0967 160.624 96.415 168.312Z" fill="#E73737"/>
    <path d="M90.1825 175.125L70.5848 171.584L80.8984 197.069L95.2694 179.875L90.1825 175.125ZM89.8675 176.686L92.8658 179.485L84.6666 180.942L89.8675 176.686ZM82.885 180.65L74.2431 173.612L88.3683 176.164L82.885 180.65ZM82.2699 181.896L80.8603 193.337L73.2627 174.557L82.2699 181.894V181.896ZM83.5735 182.502L92.654 180.889L82.2386 193.347L83.5735 182.502Z" fill="white"/>
    <path d="M148.495 82.9834C148.495 82.9834 148.787 82.3938 148.769 81.0329C148.748 79.3501 148.411 76.8086 148.344 76.584C148.223 76.1776 153.656 74.4704 153.656 74.4704C153.656 74.4704 162.374 74.0239 163.672 73.048C164.97 72.0735 166.061 71.6713 165.457 72.6816C164.362 74.5104 161.807 77.1921 161.24 77.5585C160.672 77.9248 153.9 79.6305 153.779 79.6305C153.658 79.6305 153.698 83.8978 153.698 83.8978L148.495 82.9834Z" fill="#F99D7F"/>
    <path d="M154.152 81.1641C154.152 81.1641 148.507 80.2025 148.404 80.7677C146.124 93.2832 145.737 97.4202 145.484 97.5505C144.624 97.9926 132.338 87.1872 130.307 86.4803C129.336 86.1425 128.279 86.1984 127.265 86.2284C124.85 86.3 125.664 86.2413 124.391 86.3043L124.392 86.3071C124.324 86.3114 124.284 86.3143 124.284 86.3143L124.296 88.591C127.018 91.0451 133.247 128.208 133.773 128.182C134.36 128.155 146.672 131.26 146.455 130.22C146.419 130.051 138.107 123.234 135.749 113.397C134.958 110.095 134.567 106.539 134.138 103.426C136.874 104.801 147.559 110.07 149.253 109.375C154.525 107.21 154.152 81.1641 154.152 81.1641Z" fill="#2864FF"/>
    <path d="M175.36 147.149C175.36 147.149 186.815 156.141 187.198 157.735C187.749 160.032 198.24 157.013 195.709 156.546C195.127 156.439 193.264 155.965 193.112 155.884C192.292 155.444 182.099 143.135 182.099 143.135L175.36 147.149Z" fill="#F99D7F"/>
    <path d="M200.627 156.546L193.313 155.95C193.313 155.95 191.222 157.684 187.204 157.766C187.204 157.766 186.561 159.604 186.867 161.755C186.92 162.126 186.981 163.248 187.355 163.222C188.706 163.13 192.308 162.232 196.409 161.41C196.409 161.41 201.923 160.24 205.107 158.331C208.29 156.421 200.627 156.546 200.627 156.546Z" fill="#184655"/>
    <path d="M124.027 124.592C124.027 124.592 132.417 126.004 141.695 123.829C152.431 121.312 164.302 118.985 167.781 121.012C170.581 122.643 188.064 149.116 188.064 149.116L181.313 154.053L162.061 132.451C162.061 132.451 137.501 141.532 131.984 140.526C119.421 138.235 119.242 128.181 124.027 124.592Z" fill="#404D63"/>
    <path d="M133.199 119.25L141.593 129.246L126.02 133.999L124.026 124.592L133.199 119.25Z" fill="#404D63"/>
    <path d="M150.257 164.911C150.257 164.911 149.748 178.796 149.43 181.147C149.115 183.488 155.311 190.538 154.519 188.086C154.336 187.522 153.867 185.654 153.866 185.48C153.862 184.55 156.164 168.71 156.164 168.71L150.257 164.911Z" fill="#F99D7F"/>
    <path d="M156.856 192.423L153.906 185.69C153.906 185.69 151.39 184.67 149.409 181.167C149.409 181.167 147.488 181.474 145.746 182.765C145.445 182.988 143.395 184.49 143.538 184.836C144.064 186.111 146.854 188.843 149.904 191.825C149.904 191.825 154.228 195.321 157.419 197.221C160.609 199.121 156.856 192.423 156.856 192.423Z" fill="#184655"/>
    <path d="M163.854 137.535C160.919 133.616 137.244 129.892 137.244 129.892L130.642 117.177L116.044 126.198C116.044 126.198 117.503 137.837 118.598 140.948C120.058 145.092 129.868 145.304 135.86 145.243C141.374 145.185 151.444 146.312 151.444 146.312L148.039 176.423C148.039 176.423 154.733 177.95 156.615 177.703C156.828 177.676 167.504 142.412 163.854 137.535Z" fill="#404D63"/>
    <path d="M124.368 86.3345L116.131 86.7867C116.131 86.7867 115.943 86.8526 115.886 86.864C115.215 86.9885 115.824 111.041 116.423 120.023C117.021 129.007 118.235 132.78 118.235 132.78C118.235 132.78 129.405 130.793 132.833 129.459C134.256 128.905 137.7 124.592 137.7 124.592C137.7 124.592 134.183 119.853 132.411 112.155C131.044 106.218 129.359 95.6933 128.394 93.4967C126.177 88.451 124.368 86.3345 124.368 86.3345Z" fill="white"/>
    <path d="M116.366 79.5083L116.132 86.795C116.132 86.795 121.464 96.0006 124.2 94.7184C126.497 93.6423 124.459 86.639 124.459 86.639C124.459 86.639 124.062 85.0334 123.509 83.1888C123.124 81.8995 122.804 80.5043 122.827 79.4797C122.885 76.9898 116.366 79.5083 116.366 79.5083Z" fill="#F99D7F"/>
    <path d="M122.735 62.887C122.735 62.887 125.452 66.9911 125.655 70.4455C125.858 73.8999 125.128 76.2568 125.128 76.2568L116.41 65.8134L122.735 62.887Z" fill="#404D63"/>
    <path d="M126.558 69.7388C126.681 70.948 126.212 71.9869 125.51 72.0585C124.807 72.13 124.14 71.2085 124.017 69.9978C123.894 68.7886 124.363 67.7497 125.065 67.6782C125.767 67.6081 126.435 68.5296 126.558 69.7388Z" fill="#F99D7F"/>
    <path d="M113.588 67.4862C113.388 67.4433 113.408 77.4975 116.315 79.8629C119.222 82.2283 124.285 82.4373 125.763 80.0532C127.398 77.4173 125.843 66.8237 121.517 64.5727C117.192 62.3246 113.588 67.4862 113.588 67.4862Z" fill="#F99D7F"/>
    <path d="M112.85 61.2513C110.629 63.2018 109.555 64.627 108.053 68.0943C106.206 72.3587 109.871 76.7762 112.942 78.532C116.015 80.2879 116.275 82.4429 116.275 82.4429L116.397 81.1021C116.528 80.0603 116.214 79.4665 115.92 78.8368C115.658 78.2759 114.819 76.3569 114.49 75.8504C113.626 74.5138 113.455 74.2247 113.882 72.9554C114.21 71.9781 113.831 69.823 114.338 68.2117L118.473 67.3173C118.473 67.3173 121.062 66.6934 122.369 65.1823C126.124 60.8435 118.704 56.0053 112.85 61.2513Z" fill="#404D63"/>
    <path d="M114.869 74.0548C115.379 75.1581 115.273 76.2929 114.634 76.5906C113.994 76.8868 113.061 76.2342 112.553 75.1309C112.043 74.0276 112.149 72.8929 112.789 72.5952C113.427 72.299 114.36 72.953 114.869 74.0548Z" fill="#F99D7F"/>
    <path d="M86.6847 46.3206C87.1545 48.2553 88.0027 51.3148 88.0027 51.3148C87.9356 52.1562 87.6872 55.655 87.393 59.9437L93.6834 57.4208C93.6834 57.4208 93.6077 50.4318 93.8891 50.004C94.1261 49.6419 94.5245 50.0941 96.4538 47.328C97.0107 46.5295 97.115 45.1042 97.115 45.1042C97.115 45.1042 97.2292 43.3484 96.8365 43.1853C96.4438 43.0221 95.9925 43.284 95.8497 43.5874C95.7069 43.8907 95.7441 44.5977 95.6013 44.901C95.4585 45.2044 94.5488 45.5693 94.1661 45.5507C93.7834 45.5321 94.2132 40.359 94.2132 40.359C94.2132 40.359 94.4274 38.8923 94.536 38.4115C94.6288 38.0022 95.0001 36.8016 95.0001 36.8016C95.0001 36.8016 95.437 35.0601 94.8972 34.927C94.5788 34.8483 93.7691 36.2635 93.2136 37.7647C92.6153 39.3817 92.2768 41.096 92.1055 41.0731C91.7042 41.0187 91.917 38.1825 91.917 38.1825C91.917 38.1825 92.3168 36.8832 92.3068 36.2707C92.6852 35.5194 92.9351 34.1256 92.2697 34.0097C92.1469 33.9883 91.2701 35.7584 91.2701 35.7584C91.2701 35.7584 90.9259 37.0048 90.7246 37.5872C90.3704 38.6147 90.3161 40.2374 90.1319 40.9529C89.9777 41.5482 89.8392 41.3035 89.7763 41.3278C89.7278 41.3464 89.8135 40.5265 89.9106 39.3974C89.9606 38.8293 89.8949 38.1739 90.0534 37.5257C90.2005 36.9261 90.2847 36.0689 90.3233 35.5509C90.4304 34.0841 89.5093 34.2344 89.1909 35.5752C89.0695 36.0861 88.9424 36.6442 88.8139 37.2094C88.3183 39.4089 88.3326 41.5282 88.0956 41.5453C87.7885 41.5682 87.9913 37.7103 87.9913 37.7103C87.9913 37.7103 87.5201 35.5752 87.0517 37.5572C86.509 39.8568 86.5647 41.7314 86.5719 41.8144C86.6204 42.3782 86.2149 44.3859 86.6847 46.3206Z" fill="#F99D7F"/>
    <path d="M116.12 86.7991C116.12 86.7991 107.966 86.4142 105.86 85.4597C104.583 84.8802 94.0901 76.4087 94.0901 76.4087L94.2072 53.7245L86.8286 53.1621C86.8286 53.1621 83.0029 78.2346 84.3281 80.9793C85.6961 83.8141 101.055 95.481 104.126 100.544C105.896 103.46 109.586 143.13 110.144 143.488C114.118 145.56 126.389 147.631 126.101 146.373C118.112 111.63 116.12 86.7991 116.12 86.7991Z" fill="#2864FF"/>
    <path d="M152.579 76.9424C166.133 76.9424 177.12 65.9323 177.12 52.3507C177.12 38.7691 166.133 27.759 152.579 27.759C139.026 27.759 128.039 38.7691 128.039 52.3507C128.039 65.9323 139.026 76.9424 152.579 76.9424Z" fill="#4F5155"/>
    <path d="M167.14 66.942C175.182 58.8831 175.182 45.8174 167.141 37.759C159.099 29.7007 146.06 29.7011 138.018 37.7601C129.976 45.819 129.976 58.8847 138.017 66.943C146.059 75.0014 159.097 75.0009 167.14 66.942Z" fill="#3C3F44"/>
    <path d="M160.166 42.657H163.543L156.513 49.6339C155.284 50.8474 153.628 51.5276 151.902 51.5276C150.177 51.5276 148.521 50.8474 147.292 49.6339L140.256 42.657H143.639L148.98 47.9544C149.758 48.7237 150.807 49.155 151.9 49.155C152.993 49.155 154.042 48.7237 154.82 47.9544L160.166 42.657ZM143.598 62.0557H140.215L147.292 55.0367C148.521 53.8231 150.177 53.1429 151.902 53.1429C153.628 53.1429 155.284 53.8231 156.513 55.0367L163.59 62.0545H160.206L154.824 56.7115C154.046 55.9422 152.998 55.5108 151.905 55.5108C150.812 55.5108 149.763 55.9422 148.985 56.7115L143.597 62.0557H143.598Z" fill="white"/>
    <path d="M151.952 77.0699C151.952 77.0699 154.223 76.094 154.831 75.8908C155.439 75.6875 157.386 75.3212 157.386 75.3212C157.386 75.3212 160.407 72.2131 161.177 72.1315C161.947 72.05 159.413 75.5244 159.413 75.5244L158.36 76.5404C158.36 76.5404 160.063 75.0779 160.387 74.8747C160.712 74.6715 163.266 70.9738 163.916 71.2171C164.564 71.4604 162.821 74.0619 161.97 75.4428C161.119 76.8238 157.226 77.6781 157.226 77.6781L151.952 77.0699Z" fill="#F99C7F"/>
</svg>
