<svg width="22" height="22" viewBox="0 0 22 22" fill="none" xmlns="http://www.w3.org/2000/svg">
    <path d="M20.3602 5.19488C19.6712 5.50088 18.931 5.7068 18.1542 5.79968C18.9476 5.32448 19.556 4.57209 19.8426 3.67497C19.101 4.11489 18.2787 4.43456 17.4032 4.60736C16.7026 3.86072 15.7047 3.39417 14.6002 3.39417C12.4791 3.39417 10.7598 5.11425 10.7598 7.23464C10.7598 7.5356 10.7943 7.82936 10.8591 8.10944C7.66737 7.9496 4.83777 6.42032 2.94273 4.09616C2.61297 4.66352 2.42361 5.32304 2.42361 6.02792C2.42361 7.35992 3.10113 8.53568 4.13145 9.224C3.50217 9.20384 2.90961 9.03104 2.39193 8.74376C2.39193 8.76032 2.39193 8.77544 2.39193 8.792C2.39193 10.6532 3.71529 12.2055 5.47281 12.5576C5.15097 12.6454 4.81113 12.6922 4.46049 12.6922C4.21353 12.6922 3.97233 12.6678 3.73833 12.6238C4.22721 14.1495 5.64561 15.2605 7.32609 15.2914C6.01209 16.3218 4.35609 16.9359 2.55609 16.9359C2.24649 16.9359 1.94049 16.9179 1.63953 16.8819C3.33945 17.9713 5.35761 18.607 7.52697 18.607C14.5916 18.607 18.4537 12.7549 18.4537 7.6796C18.4537 7.51328 18.4501 7.34768 18.4429 7.1828C19.1938 6.64064 19.8454 5.96456 20.3602 5.19488Z" fill="white"/>
</svg>

