<svg width="22" height="22" viewBox="0 0 22 22" fill="none" xmlns="http://www.w3.org/2000/svg">
    <path d="M14.0242 4.95221H16.1842C16.4226 4.95221 16.6162 4.75867 16.6162 4.52021V1.60982C16.6162 1.38346 16.4421 1.1951 16.2166 1.17912C15.5292 1.1303 14.1866 1.06421 13.2211 1.06421C10.5682 1.06421 8.84016 2.65397 8.84016 5.54318V8.40821H5.81616C5.57769 8.40821 5.38416 8.60174 5.38416 8.84021V11.8642C5.38416 12.1027 5.57769 12.2962 5.81616 12.2962H8.84016V20.5042C8.84016 20.7427 9.03369 20.9362 9.27216 20.9362H12.2962C12.5346 20.9362 12.7282 20.7427 12.7282 20.5042V12.2962H15.8481C16.0684 12.2962 16.2533 12.1308 16.2775 11.9117L16.6136 8.88773C16.6421 8.63198 16.4416 8.40821 16.1842 8.40821H12.7282V6.24821C12.7282 5.53238 13.3083 4.95221 14.0242 4.95221Z" fill="white"/>
</svg>
