<svg width="87" height="30" viewBox="0 0 87 30" fill="none" xmlns="http://www.w3.org/2000/svg">
    <path fill-rule="evenodd" clip-rule="evenodd" d="M69.5808 9.44141C69.467 9.4831 69.242 9.55171 68.9762 9.55171C68.6783 9.55171 68.4328 9.47406 68.2402 9.28656C68.0709 9.11979 67.9655 8.85178 67.9655 8.53899C67.9688 7.94031 68.3716 7.50244 69.0316 7.50244C69.2596 7.50244 69.4378 7.55318 69.5224 7.59487L69.461 7.80641C69.3558 7.75876 69.2245 7.71994 69.0259 7.71994C68.5468 7.71994 68.2342 8.02369 68.2342 8.52707C68.2342 9.03641 68.5351 9.33707 68.9937 9.33707C69.1603 9.33707 69.2741 9.31325 69.3327 9.28369V8.68479H68.9325V8.47656H69.5808V9.44141Z" fill="white"/>
    <path fill-rule="evenodd" clip-rule="evenodd" d="M70.016 7.52368H70.2702V9.31354H71.1112V9.53104H70.016V7.52368Z" fill="white"/>
    <path fill-rule="evenodd" clip-rule="evenodd" d="M71.4822 8.5392C71.4822 8.96803 71.7102 9.35229 72.1101 9.35229C72.5134 9.35229 72.741 8.97398 72.741 8.51847C72.741 8.1192 72.5365 7.70229 72.1132 7.70229C71.6926 7.70229 71.4822 8.09825 71.4822 8.5392ZM73.0098 8.50655C73.0098 9.19744 72.598 9.56383 72.0957 9.56383C71.5758 9.56383 71.2104 9.15288 71.2104 8.54516C71.2104 7.90788 71.5992 7.49097 72.1249 7.49097C72.6624 7.49097 73.0098 7.91075 73.0098 8.50655Z" fill="white"/>
    <path fill-rule="evenodd" clip-rule="evenodd" d="M73.6405 9.33438C73.69 9.34342 73.7632 9.34629 73.8538 9.34629C74.1166 9.34629 74.3591 9.24791 74.3591 8.95607C74.3591 8.6821 74.1283 8.56894 73.8508 8.56894H73.6405V9.33438ZM73.6405 8.37239H73.8713C74.14 8.37239 74.2977 8.22945 74.2977 8.03577C74.2977 7.80063 74.1227 7.7082 73.8655 7.7082C73.7487 7.7082 73.6814 7.71702 73.6405 7.72607V8.37239ZM73.3865 7.55026C73.4975 7.52644 73.6725 7.50879 73.8508 7.50879C74.105 7.50879 74.2685 7.55335 74.3912 7.6546C74.4933 7.73202 74.5549 7.85114 74.5549 8.00908C74.5549 8.20254 74.4292 8.37239 74.222 8.44982V8.45577C74.4087 8.50342 74.6278 8.66136 74.6278 8.95916C74.6278 9.13188 74.5605 9.26291 74.4615 9.36107C74.3239 9.48923 74.1019 9.54879 73.7807 9.54879C73.6055 9.54879 73.4713 9.53688 73.3865 9.52497V7.55026Z" fill="white"/>
    <path fill-rule="evenodd" clip-rule="evenodd" d="M75.9799 8.69699L75.7872 8.11927C75.7435 7.98824 75.714 7.86912 75.685 7.75287H75.6792C75.6502 7.87199 75.6178 7.9942 75.5797 8.11618L75.387 8.69699H75.9799ZM75.3346 8.89949L75.13 9.53104H74.8671L75.5358 7.52368H75.8425L76.5144 9.53104H76.243L76.0327 8.89949H75.3346Z" fill="white"/>
    <path fill-rule="evenodd" clip-rule="evenodd" d="M76.8503 7.52368H77.1045V9.31354H77.9455V9.53104H76.8503V7.52368Z" fill="white"/>
    <path fill-rule="evenodd" clip-rule="evenodd" d="M67.9655 10.5151H68.3216V13.0219H69.4995V13.3265H67.9655V10.5151Z" fill="white"/>
    <path fill-rule="evenodd" clip-rule="evenodd" d="M71.3894 12.0083H70.3175V13.0219H71.5118V13.3265H69.9616V10.5151H71.4504V10.8195H70.3175V11.7081H71.3894V12.0083Z" fill="white"/>
    <path fill-rule="evenodd" clip-rule="evenodd" d="M74.1379 13.2015C73.9785 13.26 73.6635 13.3559 73.291 13.3559C72.8737 13.3559 72.5302 13.2474 72.2602 12.9847C72.0231 12.7511 71.8756 12.3756 71.8756 11.9378C71.8799 11.0993 72.4445 10.4861 73.3687 10.4861C73.688 10.4861 73.9374 10.5569 74.0562 10.6153L73.9703 10.9116C73.823 10.8448 73.6389 10.7905 73.3607 10.7905C72.6896 10.7905 72.252 11.2162 72.252 11.921C72.252 12.6342 72.6732 13.0555 73.3155 13.0555C73.5487 13.0555 73.7083 13.0222 73.7901 12.9805V12.142H73.23V11.8502H74.1379V13.2015Z" fill="white"/>
    <path fill-rule="evenodd" clip-rule="evenodd" d="M76.0973 12.1585L75.8274 11.3494C75.7662 11.1657 75.7251 10.9989 75.6842 10.8361H75.6762C75.6353 11.0031 75.5901 11.1743 75.5368 11.345L75.2669 12.1585H76.0973ZM75.1933 12.4422L74.9071 13.3265H74.5389L75.4754 10.5151H75.905L76.8461 13.3265H76.4655L76.1709 12.4422H75.1933Z" fill="white"/>
    <path fill-rule="evenodd" clip-rule="evenodd" d="M77.3165 10.5151H77.6724V13.0219H78.8505V13.3265H77.3165V10.5151Z" fill="white"/>
    <path fill-rule="evenodd" clip-rule="evenodd" d="M69.3932 15.9841H68.3215V16.998H69.5156V17.3026H67.9655V14.491H69.4546V14.7954H68.3215V15.6841H69.3932V15.9841Z" fill="white"/>
    <path fill-rule="evenodd" clip-rule="evenodd" d="M70.0435 17.3026V14.491H70.4318L71.3157 15.9135C71.5202 16.2429 71.6796 16.5391 71.8107 16.827L71.8187 16.8228C71.7862 16.4474 71.7778 16.1055 71.7778 15.6674V14.491H72.1133V17.3026H71.7531L70.8779 15.8758C70.6858 15.563 70.5017 15.2418 70.3626 14.9374L70.3501 14.9416C70.3708 15.2961 70.3788 15.6341 70.3788 16.1013V17.3026H70.0435Z" fill="white"/>
    <path fill-rule="evenodd" clip-rule="evenodd" d="M73.3241 14.7998H72.4854V14.4912H74.5268V14.7998H73.6838V17.3026H73.3241V14.7998Z" fill="white"/>
    <mask id="mask0_1_1994" style="mask-type:alpha" maskUnits="userSpaceOnUse" x="0" y="0" width="87" height="30">
        <path d="M0 29.9632H86.7496V0H0V29.9632Z" fill="white"/>
    </mask>
    <g mask="url(#mask0_1_1994)">
        <path fill-rule="evenodd" clip-rule="evenodd" d="M74.8987 17.3026H75.2547V14.491H74.8987V17.3026Z" fill="white"/>
        <path fill-rule="evenodd" clip-rule="evenodd" d="M76.4657 14.7998H75.6272V14.4912H77.6684V14.7998H76.8254V17.3026H76.4657V14.7998Z" fill="white"/>
        <path fill-rule="evenodd" clip-rule="evenodd" d="M78.7687 17.3026V16.1096L77.8973 14.491H78.3023L78.691 15.2668C78.7973 15.4796 78.879 15.6506 78.9649 15.8467H78.9729C79.0508 15.6632 79.1447 15.4796 79.2513 15.2668L79.6481 14.491H80.053L79.1284 16.1055V17.3026H78.7687Z" fill="white"/>
        <path fill-rule="evenodd" clip-rule="evenodd" d="M67.9654 21.2765H68.3215V18.4651H67.9654V21.2765Z" fill="white"/>
        <path fill-rule="evenodd" clip-rule="evenodd" d="M69.3647 20.9886C69.4547 21.0051 69.5856 21.0096 69.7245 21.0096C70.4857 21.0096 70.8987 20.5757 70.8987 19.8166C70.9026 19.1533 70.5344 18.7322 69.782 18.7322C69.5979 18.7322 69.4588 18.7487 69.3647 18.7693V20.9886ZM69.0087 18.5024C69.2254 18.469 69.4833 18.4443 69.7658 18.4443C70.277 18.4443 70.6406 18.5652 70.8825 18.7946C71.1278 19.0238 71.2712 19.3492 71.2712 19.804C71.2712 20.2629 71.1319 20.6381 70.874 20.8968C70.6166 21.1596 70.1909 21.3016 69.655 21.3016C69.4015 21.3016 69.1891 21.289 69.0087 21.2683V18.5024Z" fill="white"/>
        <path fill-rule="evenodd" clip-rule="evenodd" d="M73.2263 19.9582H72.1546V20.972H73.3487V21.2765H71.7985V18.4648H73.2875V18.7693H72.1546V19.6582H73.2263V19.9582Z" fill="white"/>
        <path fill-rule="evenodd" clip-rule="evenodd" d="M73.8765 21.2765V18.4651H74.265L75.1487 19.8874C75.3533 20.217 75.5125 20.5132 75.6436 20.8011L75.6516 20.7967C75.6192 20.4215 75.6107 20.0794 75.6107 19.6415V18.4651H75.9463V21.2765H75.5861L74.7106 19.8499C74.5187 19.5369 74.3346 19.216 74.1955 18.9113L74.1832 18.9155C74.2038 19.27 74.2118 19.6082 74.2118 20.0754V21.2765H73.8765Z" fill="white"/>
        <path fill-rule="evenodd" clip-rule="evenodd" d="M77.157 18.7737H76.3183V18.4651H78.3598V18.7737H77.5167V21.2765H77.157V18.7737Z" fill="white"/>
        <path fill-rule="evenodd" clip-rule="evenodd" d="M78.7318 21.2765H79.0878V18.4651H78.7318V21.2765Z" fill="white"/>
        <path fill-rule="evenodd" clip-rule="evenodd" d="M79.7751 18.4651H81.2598V18.7695H80.131V19.7039H81.1741V20.0044H80.131V21.2765H79.7751V18.4651Z" fill="white"/>
        <path fill-rule="evenodd" clip-rule="evenodd" d="M81.8325 21.2765H82.1886V18.4651H81.8325V21.2765Z" fill="white"/>
        <path fill-rule="evenodd" clip-rule="evenodd" d="M84.3034 19.9582H83.2317V20.972H84.426V21.2765H82.8759V18.4648H84.3648V18.7693H83.2317V19.6582H84.3034V19.9582Z" fill="white"/>
        <path fill-rule="evenodd" clip-rule="evenodd" d="M85.3096 19.7831H85.6737C86.054 19.7831 86.2954 19.5702 86.2954 19.249C86.2954 18.8864 86.0378 18.7278 85.6614 18.7236C85.4896 18.7236 85.3667 18.7401 85.3096 18.7569V19.7831ZM84.9536 18.5024C85.134 18.4649 85.3914 18.4443 85.6369 18.4443C86.0172 18.4443 86.2628 18.5149 86.4345 18.6735C86.5738 18.7986 86.6511 18.9905 86.6511 19.2076C86.6511 19.5788 86.4224 19.8246 86.1319 19.9251V19.9373C86.3445 20.0125 86.4713 20.2128 86.5368 20.5046C86.6268 20.8968 86.6924 21.1679 86.7495 21.2765H86.3813C86.3361 21.1971 86.2751 20.9551 86.1974 20.605C86.1154 20.217 85.9681 20.071 85.6451 20.0584H85.3096V21.2765H84.9536V18.5024Z" fill="white"/>
        <path fill-rule="evenodd" clip-rule="evenodd" d="M67.9655 22.55H68.8948V22.7404H68.1881V23.3254H68.8412V23.5134H68.1881V24.3099H67.9655V22.55Z" fill="white"/>
        <path fill-rule="evenodd" clip-rule="evenodd" d="M69.389 23.4405C69.389 23.8163 69.5889 24.153 69.9395 24.153C70.293 24.153 70.4927 23.8216 70.4927 23.4221C70.4927 23.0723 70.3134 22.7068 69.9424 22.7068C69.5735 22.7068 69.389 23.054 69.389 23.4405ZM70.7281 23.4116C70.7281 24.0173 70.3672 24.3385 69.9268 24.3385C69.471 24.3385 69.1508 23.9782 69.1508 23.4455C69.1508 22.8868 69.4915 22.5215 69.9523 22.5215C70.4235 22.5215 70.7281 22.8894 70.7281 23.4116Z" fill="white"/>
        <path fill-rule="evenodd" clip-rule="evenodd" d="M71.2813 22.55V23.5919C71.2813 23.9861 71.4528 24.1531 71.6832 24.1531C71.9393 24.1531 72.1031 23.9808 72.1031 23.5919V22.55H72.3285V23.576C72.3285 24.1167 72.0494 24.3384 71.6754 24.3384C71.3221 24.3384 71.0558 24.1323 71.0558 23.5866V22.55H71.2813Z" fill="white"/>
        <path fill-rule="evenodd" clip-rule="evenodd" d="M72.756 24.3099V22.55H72.9991L73.5523 23.4406C73.6803 23.6466 73.7801 23.8321 73.8621 24.0121L73.8672 24.0097C73.8467 23.7745 73.8417 23.5606 73.8417 23.2864V22.55H74.0516V24.3099H73.8261L73.2784 23.417C73.1579 23.2209 73.0428 23.0199 72.9557 22.8295L72.9481 22.8322C72.9608 23.0541 72.966 23.2656 72.966 23.5579V24.3099H72.756Z" fill="white"/>
        <path fill-rule="evenodd" clip-rule="evenodd" d="M74.7044 24.1295C74.7609 24.1401 74.8429 24.1427 74.9296 24.1427C75.4059 24.1427 75.6645 23.8712 75.6645 23.3961C75.6671 22.9809 75.4367 22.7173 74.9655 22.7173C74.8504 22.7173 74.7632 22.7277 74.7044 22.7405V24.1295ZM74.4818 22.5735C74.6174 22.5527 74.7786 22.5369 74.9553 22.5369C75.2755 22.5369 75.5031 22.6127 75.6545 22.7561C75.8081 22.9 75.8977 23.1036 75.8977 23.3881C75.8977 23.6751 75.8105 23.9102 75.6491 24.0722C75.4879 24.2365 75.2216 24.3256 74.8861 24.3256C74.7273 24.3256 74.5943 24.3177 74.4818 24.3047V22.5735Z" fill="white"/>
        <path fill-rule="evenodd" clip-rule="evenodd" d="M77.0369 23.5789L76.868 23.0724C76.8295 22.9575 76.8037 22.8532 76.7782 22.7512H76.7732C76.7477 22.8558 76.7193 22.9628 76.686 23.0698L76.5171 23.5789H77.0369ZM76.471 23.7567L76.2919 24.3099H76.0613L76.6475 22.5503H76.9164L77.5055 24.3099H77.2671L77.0828 23.7567H76.471Z" fill="white"/>
        <path fill-rule="evenodd" clip-rule="evenodd" d="M77.9307 22.7433H77.4056V22.55H78.6833V22.7433H78.1559V24.3099H77.9307V22.7433Z" fill="white"/>
        <path fill-rule="evenodd" clip-rule="evenodd" d="M78.9164 24.3099H79.139V22.55H78.9164V24.3099Z" fill="white"/>
        <path fill-rule="evenodd" clip-rule="evenodd" d="M79.7049 23.4405C79.7049 23.8163 79.9047 24.153 80.2556 24.153C80.6089 24.153 80.8085 23.8216 80.8085 23.4221C80.8085 23.0723 80.6292 22.7068 80.2582 22.7068C79.8896 22.7068 79.7049 23.054 79.7049 23.4405ZM81.0441 23.4116C81.0441 24.0173 80.6831 24.3385 80.2426 24.3385C79.7868 24.3385 79.4667 23.9782 79.4667 23.4455C79.4667 22.8868 79.8076 22.5215 80.2682 22.5215C80.7395 22.5215 81.0441 22.8894 81.0441 23.4116Z" fill="white"/>
        <path fill-rule="evenodd" clip-rule="evenodd" d="M81.3744 24.3099V22.55H81.6175L82.1707 23.4406C82.2985 23.6466 82.3985 23.8321 82.4805 24.0121L82.4854 24.0097C82.4651 23.7745 82.4599 23.5606 82.4599 23.2864V22.55H82.67V24.3099H82.4446L81.8966 23.417C81.7763 23.2209 81.661 23.0199 81.5741 22.8295L81.5665 22.8322C81.5793 23.0541 81.5842 23.2656 81.5842 23.5579V24.3099H81.3744Z" fill="white"/>
        <path fill-rule="evenodd" clip-rule="evenodd" d="M12.258 27.0289C5.50862 27.0289 0.0332005 21.6403 0.00118429 14.9814C0.00118429 15.0207 -0.000546319 15.0595 -0.000113668 15.0997C-0.000113668 23.3082 6.73778 29.9631 15.0497 29.9631C22.5639 29.9631 28.7913 24.5237 29.9166 17.4145H24.2554C23.092 22.9052 18.1635 27.0289 12.258 27.0289Z" fill="white"/>
        <path fill-rule="evenodd" clip-rule="evenodd" d="M17.6584 2.93449C24.4086 2.93449 29.8838 8.32213 29.9154 14.9815C29.9163 14.9418 29.9169 14.9025 29.9169 14.8632C29.9169 6.65404 23.179 0 14.8671 0C7.35263 0 1.12656 5.43904 -6.10352e-05 12.5482H5.66205C6.82545 7.05772 11.7542 2.93471 17.6584 2.93449Z" fill="white"/>
        <path fill-rule="evenodd" clip-rule="evenodd" d="M34.3498 7.53711H36.1892V22.6686H42.4603V24.3256H34.3498V7.53711Z" fill="white"/>
        <path fill-rule="evenodd" clip-rule="evenodd" d="M44.1964 7.53711H53.3253V9.19439H46.0358V15.0197H53.2736V16.6772H46.0358V22.6686H53.3253V24.3256H44.1964V7.53711Z" fill="white"/>
        <path fill-rule="evenodd" clip-rule="evenodd" d="M56.2267 24.3256H58.0662V7.53711H56.2267V24.3256Z" fill="white"/>
        <path fill-rule="evenodd" clip-rule="evenodd" d="M12.1056 18.4543C12.8007 19.0543 13.3713 19.7017 13.7758 20.3125C14.8408 19.8676 15.9075 19.2122 16.9026 18.3625C16.3387 17.7041 15.6888 17.0496 14.9602 16.4278C14.2282 15.8028 13.4845 15.2672 12.7611 14.8274C12.0907 15.7766 11.4906 16.7119 10.9887 17.6154C11.3578 17.8534 11.7342 18.1338 12.1056 18.4543Z" fill="white"/>
        <path fill-rule="evenodd" clip-rule="evenodd" d="M10.2228 12.538C10.9706 12.805 11.8033 13.2523 12.6733 13.8219C13.0236 13.2958 13.4039 12.7767 13.8106 12.2709C14.1247 11.8803 14.4472 11.5042 14.7743 11.1481C13.845 10.5735 12.9427 10.1405 12.1185 9.86077L12.1195 9.859C12.0776 9.84555 12.0382 9.83364 11.9978 9.82084C11.8574 9.77562 11.7193 9.73459 11.5837 9.69775C10.8214 10.566 10.1811 11.5432 9.68848 12.3989C9.95586 12.4593 10.1575 12.5182 10.2228 12.538Z" fill="white"/>
        <path fill-rule="evenodd" clip-rule="evenodd" d="M12.1819 8.74891C12.6573 8.48288 12.9838 8.37545 12.9838 8.37545C12.7906 8.52082 12.6035 8.67854 12.4207 8.84398C12.5738 8.90619 12.7365 8.97457 12.9059 9.04957C13.6847 9.42457 14.5151 9.92597 15.3528 10.5403C16.1058 9.78347 16.8718 9.13913 17.6038 8.65604C16.2953 7.66825 15.1349 7.1267 14.0875 6.98486C12.8525 7.1631 11.7263 7.63229 10.7671 8.31655C10.9449 8.34655 11.1303 8.38825 11.322 8.44052C11.3765 8.45773 11.7124 8.56604 12.1819 8.74891Z" fill="white"/>
        <path fill-rule="evenodd" clip-rule="evenodd" d="M10.7392 17.4627C11.1074 16.5236 11.6103 15.52 12.2258 14.518C11.2636 13.9893 10.3511 13.6447 9.56302 13.5018L9.56345 13.4996C9.56345 13.4996 9.39233 13.4572 9.12647 13.4372C8.76088 14.1574 8.56294 14.6429 8.56294 14.6429C8.59517 14.2108 8.65704 13.808 8.74033 13.4294C8.69858 13.4308 8.65726 13.4316 8.61356 13.4345C8.61399 13.4332 8.61421 13.4319 8.61464 13.4303C8.55321 13.4339 8.49653 13.4436 8.43791 13.4508C8.4338 13.4515 8.4299 13.4517 8.42579 13.4524C8.36414 13.4603 8.30335 13.4691 8.24516 13.4813C8.21401 13.487 8.18286 13.4925 8.15127 13.4996L8.15084 13.5049C7.91872 13.5642 7.71127 13.6544 7.5408 13.7866C7.4666 14.4111 7.46401 15.0543 7.54383 15.7066C7.60419 16.2 7.7104 16.6765 7.85404 17.1336C7.87459 17.0928 7.89904 17.0548 7.92738 17.02C8.35332 16.4983 9.48189 16.7122 10.7392 17.4627Z" fill="white"/>
        <path fill-rule="evenodd" clip-rule="evenodd" d="M22.7871 13.7678C22.3393 10.107 19.4813 7.35512 16.0386 6.9563C16.5978 7.28056 17.1806 7.6838 17.7576 8.16336C17.8491 8.23924 17.9397 8.31645 18.0275 8.39321C18.2114 8.28689 18.3931 8.19137 18.5705 8.10777C18.4249 8.22975 18.2789 8.35659 18.1333 8.48806C19.3571 9.58174 20.2384 10.7641 20.5776 11.6974C20.0151 10.8578 19.2089 9.96733 18.2261 9.14939C18.0808 9.0285 17.9367 8.91468 17.7948 8.80328C17.1497 9.41939 16.4957 10.1275 15.8323 10.9024C16.0151 11.0447 16.1968 11.1914 16.3785 11.3438C17.8021 12.5398 18.9554 13.8433 19.7183 15.0404C20.1097 14.3826 20.5071 13.4045 20.7446 12.7463C20.6364 13.5303 20.3176 14.6458 19.9515 15.4269C20.1882 15.8387 20.3753 16.2323 20.5071 16.6031C20.3037 16.2945 20.0792 15.9817 19.8339 15.6673C19.4633 16.4001 18.9779 17.1126 18.3767 17.7726C18.0851 18.0901 17.7796 18.3828 17.461 18.6506C17.7152 19.0818 18.4483 20.3528 18.5792 20.7371C18.3525 20.3824 17.5547 19.1661 17.2685 18.807C16.2165 19.6485 15.0485 20.2132 13.8827 20.4795C14.0761 20.7936 14.2232 21.0949 14.318 21.372C14.143 21.0956 13.9303 20.8099 13.6868 20.5225C13.4194 20.5763 13.1498 20.6151 12.8844 20.6374C13.1141 20.5662 13.3463 20.4859 13.5779 20.3934C13.2809 20.0542 12.9391 19.7136 12.5606 19.3862C11.9367 18.8473 11.2992 18.4187 10.7142 18.1245C10.5284 18.4801 10.208 19.1764 10.0568 19.5195C10.1356 19.159 10.3932 18.4306 10.529 18.0351C9.585 17.5964 8.79931 17.5264 8.46984 17.9337C8.38894 18.0338 8.45816 18.3298 8.73398 18.7298C10.2212 21.0596 12.8212 22.9282 16.1163 22.5089C20.3256 21.9737 23.3122 18.0601 22.7871 13.7678Z" fill="white"/>
        <path fill-rule="evenodd" clip-rule="evenodd" d="M18.1021 17.2036C18.6589 16.5959 19.1404 15.9597 19.5486 15.3132C18.8497 14.4642 18.0127 13.6125 17.0594 12.8097C16.4826 12.324 15.9016 11.8883 15.3259 11.5034C15.0545 11.8297 14.7806 12.1658 14.5048 12.5111C14.0561 13.0729 13.6258 13.6356 13.2161 14.1935C13.5953 14.4653 13.9767 14.7633 14.357 15.0871C15.5157 16.074 16.4731 17.1425 17.1468 18.1486C17.4747 17.8535 17.7947 17.5392 18.1021 17.2036Z" fill="white"/>
        <path fill-rule="evenodd" clip-rule="evenodd" d="M9.08628 12.2874C9.57128 11.0554 10.3079 10.1784 11.0116 9.57108C10.5752 9.49012 10.3548 9.4963 10.3548 9.4963L10.3542 9.49696C9.98079 9.48284 9.64483 9.52167 9.35517 9.61564C8.64411 10.4552 8.17404 11.2257 7.86188 12.3046C8.21384 12.2087 8.66856 12.2289 9.08628 12.2874Z" fill="white"/>
        <path fill-rule="evenodd" clip-rule="evenodd" d="M63.1782 28.7545H63.4064V3.58911H63.1782V28.7545Z" fill="white"/>
    </g>
</svg>
