<svg width="289" height="231" viewBox="0 0 289 231" fill="none" xmlns="http://www.w3.org/2000/svg">
    <path opacity="0.1" d="M211.222 179.56C208.225 182.621 204.929 185.372 201.382 187.771C169.306 210.612 131.342 203.948 123.291 202.326C111.384 199.927 88.3592 195.287 71.7128 175.867C46.5324 146.504 50.456 100.168 69.9856 69.6271C73.5624 64.0395 92.4256 33.0146 130.791 28.0607C154.006 25.0488 181.07 31.1271 200.668 47.4129C241.808 81.5859 238.877 150.668 211.222 179.56Z" fill="#404D63"/>
    <path opacity="0.2" d="M143.371 197.611C143.371 197.611 178.391 108.74 230.411 99.0302C230.628 98.991 230.85 99.0012 231.062 99.0602C231.274 99.1191 231.47 99.2253 231.636 99.3707C231.801 99.5161 231.931 99.697 232.017 99.9C232.103 100.103 232.142 100.323 232.132 100.543C231.615 111.527 224.951 169.536 143.371 197.611Z" fill="#404D63"/>
    <path opacity="0.62" d="M221.075 113.463C218.416 117.272 215.635 120.958 212.813 124.658C212.133 125.578 211.385 126.484 210.678 127.384C209.97 128.283 209.25 129.217 208.529 130.11L206.346 132.835C205.612 133.728 204.898 134.648 204.156 135.561C202.674 137.339 201.192 139.125 199.696 140.896L195.16 146.15C192.08 149.612 188.999 153.073 185.817 156.453L183.457 159.008C182.675 159.867 181.852 160.678 181.05 161.523L176.229 166.531L171.278 171.417C170.449 172.228 169.633 173.052 168.79 173.85L166.233 176.214C164.526 177.781 162.833 179.376 161.106 180.916L155.836 185.454L154.516 186.585C154.068 186.96 153.639 187.342 153.156 187.703L150.436 189.863C149.532 190.585 148.614 191.294 147.716 192.009C146.819 192.725 145.887 193.44 144.996 194.142C144.98 194.155 144.96 194.165 144.94 194.17C144.919 194.176 144.898 194.177 144.877 194.174C144.856 194.17 144.836 194.163 144.818 194.152C144.8 194.14 144.784 194.126 144.772 194.108C144.744 194.08 144.729 194.042 144.729 194.003C144.729 193.963 144.744 193.925 144.772 193.897C145.649 193.141 146.526 192.391 147.417 191.641C148.308 190.892 149.178 190.142 150.069 189.406L152.728 187.178C153.605 186.422 154.455 185.638 155.332 184.875L160.548 180.296L165.655 175.601L168.218 173.257C168.647 172.862 169.048 172.453 169.47 172.051L170.728 170.851L175.732 166.047C178.996 162.763 182.308 159.526 185.45 156.126C187.041 154.443 188.652 152.78 190.21 151.043C191.767 149.305 193.324 147.636 194.861 145.878L199.417 140.637C200.92 138.879 202.402 137.094 203.898 135.316C204.646 134.437 205.367 133.523 206.101 132.631L208.291 129.905C209.025 129.012 209.732 128.093 210.453 127.179C211.174 126.266 211.895 125.367 212.602 124.454C215.417 120.774 218.198 117.067 220.844 113.272C220.855 113.254 220.87 113.238 220.888 113.226C220.906 113.215 220.926 113.206 220.947 113.203C220.968 113.199 220.99 113.199 221.01 113.204C221.031 113.209 221.051 113.218 221.068 113.231C221.095 113.263 221.111 113.303 221.112 113.346C221.114 113.388 221.1 113.429 221.075 113.463Z" fill="white"/>
    <g opacity="0.79">
        <path opacity="0.1" d="M134.878 146.661C134.878 146.661 151.905 68.1893 203.32 27.5087C203.474 27.3865 203.656 27.3051 203.849 27.2718C204.042 27.2385 204.241 27.2545 204.426 27.3183C204.612 27.3821 204.779 27.4916 204.911 27.6368C205.043 27.7821 205.137 27.9583 205.183 28.1493C208.406 41.2801 225.236 125.094 134.878 146.661Z" fill="#404D63"/>
        <path opacity="0.62" d="M197.88 50.1454C197.288 52.4213 196.602 54.6632 195.881 56.8982C195.16 59.1333 194.392 61.3479 193.582 63.5488C191.914 67.9735 190.137 72.3209 188.251 76.5911C187.775 77.661 187.272 78.724 186.789 79.7938C186.306 80.8636 185.776 81.913 185.266 82.9692C184.756 84.0254 184.226 85.0748 183.695 86.1173L182.92 87.6914L182.077 89.2655C179.88 93.4153 177.562 97.497 175.073 101.476C172.584 105.456 170 109.34 167.164 113.115C166.818 113.585 166.484 114.062 166.117 114.532L165.043 115.895L163.968 117.258C163.608 117.721 163.288 118.198 162.887 118.621L160.65 121.347L160.092 122.028L159.508 122.709L158.345 124.031C152.172 131.099 145.29 137.513 137.809 143.172C137.782 143.198 137.747 143.212 137.71 143.212C137.674 143.212 137.638 143.198 137.612 143.172C137.587 143.147 137.573 143.113 137.573 143.077C137.573 143.041 137.587 143.007 137.612 142.981L140.332 140.76L141.692 139.656L143.011 138.498L145.636 136.181L148.172 133.762C148.594 133.36 149.022 132.965 149.437 132.556L150.668 131.309C151.484 130.471 152.313 129.653 153.116 128.801C154.693 127.07 156.298 125.394 157.794 123.595L158.936 122.266L159.508 121.585L160.065 120.904L162.275 118.178C162.649 117.728 162.996 117.258 163.356 116.815L164.424 115.452L165.492 114.089C165.838 113.619 166.172 113.142 166.518 112.672C169.3 108.918 171.87 105.013 174.352 101.047C176.834 97.0813 179.166 93.0337 181.37 88.9111L182.192 87.3643L182.995 85.8039C183.518 84.7613 184.069 83.7256 184.572 82.6762C185.606 80.5774 186.612 78.465 187.585 76.339C189.539 72.087 191.352 67.7713 193.025 63.3921C193.877 61.2116 194.682 59.0151 195.439 56.8028C195.826 55.6989 196.194 54.5882 196.554 53.4707C196.914 52.3532 197.234 51.2356 197.588 50.1113C197.591 50.0932 197.599 50.0761 197.61 50.0613C197.621 50.0465 197.635 50.0344 197.651 50.0259C197.668 50.0174 197.686 50.0127 197.704 50.0121C197.722 50.0116 197.741 50.0152 197.758 50.0227C197.826 49.9955 197.88 50.0772 197.88 50.1454Z" fill="white"/>
    </g>
    <g opacity="0.76">
        <path opacity="0.1" d="M108.168 142.45C108.168 142.45 101.531 72.8366 61.2476 32.3264C61.1278 32.2045 60.9793 32.1149 60.8158 32.0659C60.6522 32.0169 60.479 32.0101 60.3121 32.0461C60.1452 32.0821 59.9901 32.1598 59.8612 32.272C59.7323 32.3841 59.6338 32.5271 59.5748 32.6876C55.454 43.7129 32.266 114.423 108.168 142.45Z" fill="#404D63"/>
        <path opacity="0.62" d="M63.92 52.469C64.6 56.4825 65.4976 60.4688 66.5108 64.4142C67.524 68.3596 68.6324 72.2846 69.9108 76.1618C70.5432 78.0971 71.1892 80.0323 71.8624 81.9539C72.1956 82.9215 72.5424 83.8687 72.9096 84.8226L73.44 86.2536L73.9976 87.6778C75.48 91.4664 77.0712 95.2142 78.8188 98.8939C80.5664 102.574 82.3684 106.219 84.388 109.756C84.6328 110.199 84.8776 110.648 85.136 111.084L85.9112 112.393L86.6864 113.701C86.9448 114.137 87.2032 114.58 87.4752 115.003L89.08 117.544L89.4812 118.192L89.9096 118.832L90.7596 120.1C91.868 121.803 93.0852 123.432 94.2616 125.088C94.8668 125.905 95.4992 126.702 96.1248 127.507L97.0496 128.713C97.3692 129.115 97.7296 129.503 98.022 129.891L99.9668 132.242L102.007 134.525L103.02 135.67L104.074 136.767L106.189 138.975C106.214 139.001 106.228 139.037 106.228 139.074C106.228 139.11 106.214 139.146 106.189 139.172C106.163 139.196 106.129 139.209 106.094 139.209C106.059 139.209 106.025 139.196 105.998 139.172C100.097 133.515 94.7966 127.26 90.1816 120.508L89.2908 119.248L88.8556 118.621L88.4408 117.939L86.7884 115.364C86.5096 114.934 86.258 114.485 85.986 114.049L85.1972 112.733L84.4152 111.418C84.1568 110.975 83.9052 110.526 83.6604 110.055C81.6204 106.512 79.7708 102.86 78.0164 99.1528C76.262 95.4459 74.6912 91.6572 73.2156 87.8686L72.6648 86.4376L72.1344 84.9998C71.7876 84.039 71.4544 83.0782 71.1008 82.1106C70.7472 81.143 70.4208 80.1822 70.1148 79.2078C69.8088 78.2333 69.4824 77.2589 69.19 76.2777C66.7299 68.4825 64.8726 60.5091 63.6344 52.4281C63.6316 52.4097 63.6325 52.3909 63.6372 52.3728C63.6419 52.3548 63.6502 52.3379 63.6617 52.3232C63.6732 52.3085 63.6875 52.2963 63.7039 52.2874C63.7203 52.2785 63.7383 52.273 63.7568 52.2714C63.7832 52.2619 63.8118 52.2607 63.8388 52.2681C63.8658 52.2755 63.8899 52.2911 63.9078 52.3127C63.9256 52.3343 63.9364 52.3609 63.9386 52.3889C63.9408 52.4169 63.9343 52.4449 63.92 52.469Z" fill="white"/>
    </g>
    <path d="M88.5768 36.4694C87.9988 63.7805 86.1288 158.014 87.0264 191.41C87.1216 194.946 89.5356 197.788 92.548 197.897C107.433 198.476 162.024 199.941 186.388 198.721C191.461 198.476 195.5 193.645 195.602 187.676C196.112 159.002 197.227 78.356 194.575 41.4097C194.256 36.9873 191.298 33.4643 187.537 33.0214C171.319 31.1135 116.498 26.4526 95.4584 28.0539C91.6436 28.3469 88.672 32.0266 88.5768 36.4694Z" fill="#657285"/>
    <path d="M95.2 44.8508C94.3976 66.9014 91.8748 140.249 92.6772 167.376C92.7928 171.342 95.4516 174.545 98.7972 174.776C112.676 175.73 159.997 177.829 180.397 175.914C184.056 175.574 186.932 172.085 187.129 167.737C188.163 145.251 191.121 76.9455 190.352 50.1249C190.23 45.8457 187.408 42.35 183.777 41.948C168.762 40.3671 118.456 36.5988 101.164 37.7096C97.92 37.9685 95.3564 41.0349 95.2 44.8508Z" fill="white"/>
    <path d="M132.444 33.4779C132.419 33.8525 132.537 34.2225 132.772 34.5142C133.008 34.8059 133.345 34.998 133.715 35.052C137.224 35.2701 147.138 35.8833 151.565 36.1832C151.786 36.1701 152.001 36.1083 152.195 36.002C152.389 35.8957 152.557 35.7476 152.687 35.5684C152.817 35.3892 152.906 35.1833 152.947 34.9656C152.988 34.7479 152.981 34.5237 152.925 34.3093V34.1321C152.889 33.8198 152.753 33.5276 152.537 33.2992C152.321 33.0708 152.038 32.9184 151.728 32.8647C148.736 32.5376 139.706 31.6449 133.722 31.8971C133.349 31.9496 133.009 32.1419 132.772 32.4353C132.535 32.7287 132.418 33.1012 132.444 33.4779Z" fill="#A6B0BD"/>
    <path d="M139.4 91.0917C143.52 91.1011 147.55 89.8854 150.981 87.5985C154.411 85.3116 157.087 82.0562 158.671 78.2445C160.254 74.4328 160.673 70.236 159.875 66.1855C159.077 62.1349 157.098 58.4127 154.188 55.4899C151.277 52.5671 147.568 50.5752 143.527 49.7662C139.487 48.9573 135.298 49.3677 131.491 50.9455C127.683 52.5233 124.428 55.1976 122.138 58.6298C119.848 62.0621 118.626 66.098 118.626 70.2267C118.622 72.9637 119.157 75.6747 120.199 78.2046C121.241 80.7346 122.771 83.034 124.7 84.9716C126.629 86.9092 128.92 88.4469 131.442 89.497C133.965 90.5471 136.669 91.089 139.4 91.0917Z" fill="#2864FF"/>
    <path d="M145.724 62.3496C145.724 65.8793 142.875 69.6953 139.352 69.6953C135.83 69.6953 132.981 65.8862 132.981 62.3496C132.981 58.8131 135.837 56.3123 139.352 56.3123C142.868 56.3123 145.724 58.8199 145.724 62.3496Z" fill="white"/>
    <path d="M131.444 83.2963H146.996C147.794 83.296 148.572 83.041 149.216 82.5681C149.861 82.0951 150.338 81.429 150.579 80.666L151.416 78.0426C151.711 77.1174 151.64 76.1138 151.217 75.2398C150.794 74.3657 150.052 73.6881 149.144 73.3476C142.814 71.024 136.279 71.3034 129.574 73.5588C128.67 73.8724 127.919 74.5183 127.472 75.3658C127.025 76.2134 126.916 77.1993 127.167 78.1243L127.847 80.5093C128.063 81.3025 128.53 82.0037 129.179 82.5066C129.829 83.0095 130.624 83.2867 131.444 83.2963Z" fill="white"/>
    <path opacity="0.4" d="M179.404 120.236H103.768C103.713 120.235 103.658 120.223 103.607 120.201C103.556 120.179 103.51 120.147 103.472 120.107C103.433 120.067 103.403 120.02 103.383 119.969C103.362 119.917 103.352 119.862 103.353 119.807V108.536C103.352 108.48 103.362 108.425 103.383 108.374C103.403 108.322 103.433 108.275 103.472 108.235C103.51 108.195 103.556 108.163 103.607 108.141C103.658 108.119 103.713 108.108 103.768 108.107H179.404C179.46 108.108 179.514 108.119 179.565 108.141C179.616 108.163 179.662 108.195 179.701 108.235C179.739 108.275 179.769 108.322 179.79 108.374C179.81 108.425 179.82 108.48 179.819 108.536V119.807C179.82 119.862 179.81 119.917 179.79 119.969C179.769 120.02 179.739 120.067 179.701 120.107C179.662 120.147 179.616 120.179 179.565 120.201C179.514 120.223 179.46 120.235 179.404 120.236Z" fill="#A6B0BD"/>
    <path opacity="0.4" d="M179.404 138.423H103.768C103.713 138.422 103.658 138.41 103.607 138.388C103.556 138.366 103.51 138.334 103.472 138.294C103.433 138.254 103.403 138.207 103.383 138.156C103.362 138.104 103.352 138.049 103.353 137.994V126.743C103.352 126.688 103.362 126.633 103.383 126.581C103.403 126.53 103.433 126.482 103.472 126.443C103.51 126.403 103.556 126.371 103.607 126.349C103.658 126.327 103.713 126.315 103.768 126.314H179.404C179.46 126.315 179.514 126.327 179.565 126.349C179.616 126.371 179.662 126.403 179.701 126.443C179.739 126.482 179.769 126.53 179.79 126.581C179.81 126.633 179.82 126.688 179.819 126.743V138.014C179.817 138.123 179.773 138.227 179.695 138.304C179.618 138.38 179.513 138.423 179.404 138.423Z" fill="#A6B0BD"/>
    <path d="M179.024 164.698H104.149C103.707 164.698 103.353 164.48 103.353 164.214V151.036C103.353 150.77 103.707 150.552 104.149 150.552H179.024C179.466 150.552 179.819 150.77 179.819 151.036V164.221C179.833 164.48 179.466 164.698 179.024 164.698Z" fill="#2864FF"/>
    <path d="M170.347 111.418L169.157 109.476C168.771 108.847 168.243 108.317 167.616 107.929C166.989 107.541 166.28 107.305 165.546 107.241L155.679 106.369C155.679 106.369 155.414 108.161 161.724 108.413C161.398 108.933 161.215 109.53 161.192 110.144C161.169 110.757 161.308 111.366 161.595 111.909C162.622 113.626 170.87 114.233 170.347 111.418Z" fill="#F99D7F"/>
    <path d="M204.218 54.9017C204.218 46.0433 211.698 38.8339 220.68 38.8407C229.398 38.8407 236.28 45.6549 236.28 54.0635C236.28 62.4722 229.398 69.6475 220.68 70.1109C211.704 70.5742 204.218 63.7805 204.218 54.9017Z" fill="#2864FF"/>
    <path d="M215.349 53.8932H213.874V47.9853C213.872 46.8646 214.28 45.7821 215.02 44.9422C215.761 44.1023 216.782 43.5632 217.892 43.4266L220.912 43.0586C221.554 42.9815 222.206 43.0419 222.824 43.2359C223.442 43.4298 224.011 43.7529 224.495 44.1837C224.979 44.6146 225.366 45.1434 225.631 45.7353C225.896 46.3272 226.033 46.9686 226.032 47.6173V52.7756H224.556V47.6173C224.558 47.1775 224.465 46.7425 224.286 46.341C224.107 45.9395 223.845 45.5806 223.517 45.2882C223.189 44.9958 222.803 44.7764 222.385 44.6446C221.966 44.5128 221.524 44.4716 221.088 44.5237L218.069 44.8916C217.319 44.9862 216.628 45.3519 216.127 45.9202C215.627 46.4885 215.35 47.2203 215.349 47.9785V53.8932Z" fill="white"/>
    <path d="M213.438 52.5645L226.358 51.8831C226.483 51.8766 226.608 51.8956 226.725 51.9388C226.843 51.9821 226.95 52.0487 227.041 52.1347C227.132 52.2207 227.204 52.3242 227.254 52.4391C227.304 52.5539 227.33 52.6777 227.331 52.803V63.0651C227.333 63.3049 227.24 63.5359 227.074 63.708C226.907 63.8802 226.679 63.9797 226.44 63.985H213.799C213.561 63.9834 213.332 63.8897 213.161 63.7234C212.99 63.5571 212.89 63.331 212.881 63.0924L212.575 53.5525C212.565 53.4304 212.579 53.3074 212.617 53.191C212.656 53.0746 212.717 52.9671 212.797 52.8749C212.878 52.7827 212.976 52.7077 213.086 52.6543C213.197 52.601 213.316 52.5705 213.438 52.5645Z" fill="white"/>
    <path d="M222.068 61.0345L221.286 58.7653C221.238 58.633 221.228 58.4897 221.258 58.3522C221.288 58.2147 221.357 58.0885 221.456 57.9885C221.755 57.6822 221.956 57.2921 222.03 56.8695C222.105 56.447 222.05 56.0117 221.873 55.6209C221.696 55.2301 221.405 54.9022 221.039 54.6802C220.672 54.4582 220.247 54.3525 219.82 54.377C219.392 54.4016 218.982 54.5552 218.643 54.8177C218.305 55.0802 218.053 55.4392 217.922 55.8477C217.79 56.2562 217.786 56.6949 217.908 57.1062C218.03 57.5175 218.274 57.8821 218.606 58.1521C218.729 58.2493 218.818 58.3821 218.862 58.5322C218.906 58.6823 218.902 58.8423 218.851 58.9902L218.171 61.0345C218.131 61.1497 218.119 61.2729 218.136 61.3937C218.153 61.5146 218.199 61.6295 218.269 61.729C218.34 61.8284 218.433 61.9095 218.542 61.9653C218.65 62.0211 218.77 62.0501 218.892 62.0498H221.388C221.506 62.0452 221.623 62.0125 221.726 61.9544C221.83 61.8963 221.919 61.8144 221.985 61.7155C222.052 61.6165 222.094 61.5032 222.108 61.3848C222.122 61.2665 222.108 61.1464 222.068 61.0345Z" fill="#2864FF"/>
    <path d="M184.96 111.902C186.538 112.216 190.475 107.255 190.72 104.577C190.892 106.225 190.919 107.885 190.801 109.538C190.42 118.396 184.402 125.667 184.402 125.817C184.402 126.75 194.466 122.008 194.976 121.933C195.486 121.858 194.568 88.8226 196.506 86.2536L196.132 84.2911H196.037C194.936 84.4479 195.643 84.3661 193.555 84.7068C192.659 84.7892 191.785 85.0364 190.978 85.4359C189.346 86.3831 184.076 105.79 183.26 105.558C183.022 105.483 174.93 107.35 168.796 107.466C168.613 106.996 168.946 113.64 168.946 113.64C168.946 113.64 179.166 112.89 184.96 111.902Z" fill="#2864FF"/>
    <path d="M183.756 182.797C183.756 182.797 184.314 197.324 183.6 197.706C183.151 197.923 182.754 198.234 182.437 198.619C181.676 199.689 187.986 200.043 188.469 198.033C188.299 196.623 189.666 186.32 189.666 186.32L183.756 182.797Z" fill="#F99D7F"/>
    <path d="M173.788 202.162C176.922 203.048 181.859 202.762 181.859 202.762C185.518 202.51 188.768 202.442 189.938 202.21C190.257 202.142 190.053 201.181 190.012 200.847C189.853 199.674 189.442 198.549 188.809 197.549C185.409 198.408 183.219 197.42 183.219 197.42L177.167 199.614C177.167 199.614 170.68 201.283 173.788 202.162Z" fill="#184655"/>
    <path d="M201.47 136.011C199.641 141.734 194.48 158.893 194.48 158.893L190.828 191.546L183.348 191.471C183.348 191.471 184.11 165.455 183.654 156.61C184.817 151.077 188.414 124.583 191.012 119.5C195.126 119.5 199.757 119.813 199.757 119.813C203.959 122.961 212.486 134 201.47 136.011Z" fill="#404D63"/>
    <path d="M208.828 181.209C208.828 181.209 209.671 197.222 209.732 198.033C209.732 198.183 209.127 198.864 209.005 199.396C208.481 201.597 214.962 199.818 214.526 197.795C214.091 195.771 213.731 177.502 213.731 177.502L208.828 181.209Z" fill="#F99D7F"/>
    <path d="M200.709 204.67C203.083 204.981 205.488 204.981 207.862 204.67C211.596 204.418 215.506 203.784 216.58 203.232C216.872 203.082 216.356 200.916 216.281 200.595C216.003 199.444 215.481 198.365 214.751 197.433C211.439 198.64 209.182 197.89 209.182 197.89L204.211 200.248C204.211 200.248 197.499 204.118 200.709 204.67Z" fill="#184655"/>
    <path d="M209.338 190.02C210.99 190.238 216.859 188.698 216.859 188.698L212.779 161.134C212.779 161.134 212.405 138.852 213.683 135.241C214.642 132.515 215.927 122.294 215.927 122.294L203.123 114.382L194.004 129.312C194.004 129.312 201.484 147.792 202.327 154.838C203.17 161.884 209.148 189.999 209.338 190.02Z" fill="#404D63"/>
    <path d="M193.8 91.1666C193.338 93.2108 193.65 102.567 193.467 107.902C193.229 114.825 189.122 122.28 189.122 122.28C189.122 122.28 194.684 122.634 195.996 122.873C199.172 123.438 209.12 123.275 209.12 123.275C209.12 123.275 209.535 119.82 208.542 111.991C207.55 104.161 206.849 83.671 206.251 83.671L203.232 83.3303L196.064 84.3252C196.064 84.3252 194.874 86.4512 193.8 91.1666Z" fill="white"/>
    <path d="M197.703 78.2402C197.87 79.337 197.881 80.4519 197.737 81.5519C197.567 83.2282 197.499 84.6796 197.499 84.6796C197.499 84.6796 196.914 91.0508 199.07 91.5891C201.64 92.2705 204.666 83.4939 204.666 83.4939L203.266 77.1772C203.266 77.1772 197.234 76.1074 197.703 78.2402Z" fill="#F99D7F"/>
    <path d="M199.696 66.9559L196.092 78.3356C195.061 76.9633 194.264 75.43 193.732 73.7974C192.746 70.9286 193.589 66.6902 193.589 66.6902L199.696 66.9559Z" fill="#404D63"/>
    <path d="M193.29 71.3579C193.882 71.1807 194.609 71.8689 194.915 72.8911C195.221 73.9132 194.976 74.8808 194.385 75.058C193.793 75.2351 193.066 74.5469 192.766 73.5248C192.467 72.5027 192.698 71.5487 193.29 71.3579Z" fill="#F99D7F"/>
    <path d="M194.426 67.7531C191.665 71.0239 193.922 80.1413 196.126 81.729C198.118 83.1736 202.157 81.3133 203.728 78.4241C205.299 75.5349 201.96 67.3715 201.831 67.4601C201.831 67.4601 197.2 64.4892 194.426 67.7531Z" fill="#F99D7F"/>
    <path d="M193.433 68.4346C194.99 69.225 197.302 68.8639 197.302 68.8639L200.954 68.1824C201.899 69.3204 202.314 71.1943 202.898 71.8825C203.667 72.7684 203.626 73.0614 203.368 74.431C203.266 74.9489 203.225 76.7887 203.198 77.3339C203.102 78.0216 203.231 78.7219 203.565 79.3304L204.109 80.373C204.109 80.373 203.606 78.54 205.516 76.0937C207.427 73.6474 208.916 68.8366 206.013 65.9883C203.64 63.6783 202.3 62.881 199.845 62.0361C193.358 59.767 188.945 66.1655 193.433 68.4346Z" fill="#404D63"/>
    <path d="M203.402 71.099C204.082 71.099 204.551 72.0666 204.503 73.2045C204.456 74.3425 203.878 75.2488 203.225 75.2011C202.572 75.1534 202.076 74.2267 202.123 73.0955C202.171 71.9644 202.749 71.0649 203.402 71.099Z" fill="#F99D7F"/>
    <path d="M204.136 132.195C204.095 133.326 214.336 129.469 217.389 127.03C217.811 126.628 213.425 102.097 213.194 99.037C213.248 97.5651 215.601 103.35 217.002 109.081C217.532 111.561 211.521 117.258 211.521 117.258L214.921 123.588C214.921 123.588 223.448 113.899 223.761 109.551C223.87 108.066 216.179 86.5603 214.554 85.1361C211.507 84.3729 206.251 83.6847 206.251 83.6847C206.251 83.6847 205.19 100.945 204.136 132.195Z" fill="#2864FF"/>
    <path d="M210.616 127.813C211.296 126.593 212.371 124.617 212.371 124.617C212.813 124.222 213.33 123.657 215.56 121.612L212.432 118.73C212.432 118.73 209.08 122.335 208.726 122.416C208.372 122.498 208.447 122.062 206.115 122.532C205.583 122.691 205.094 122.966 204.68 123.336C204.68 123.336 203.769 124.181 203.891 124.454C203.955 124.572 204.057 124.665 204.181 124.716C204.305 124.767 204.443 124.773 204.571 124.733C204.796 124.645 205.122 124.27 205.34 124.181C205.723 124.166 206.097 124.298 206.387 124.549C206.577 124.747 203.844 127.179 203.844 127.179C203.844 127.179 203.021 127.82 202.728 128.018C202.436 128.215 201.715 128.61 201.715 128.61C201.715 128.61 200.641 129.292 200.858 129.619C200.981 129.81 202.082 129.483 203.096 128.992C204.109 128.501 205.19 127.745 205.265 127.84C205.442 128.065 203.959 129.408 203.959 129.408C203.557 129.629 203.178 129.891 202.83 130.191C202.273 130.396 201.47 130.982 201.749 131.37C202.213 131.273 202.668 131.136 203.109 130.961C203.109 130.961 203.891 130.491 204.279 130.28C204.949 129.836 205.595 129.358 206.217 128.849C206.584 128.624 206.536 128.815 206.577 128.849C206.261 129.176 205.925 129.483 205.571 129.769C205.268 130.089 204.941 130.386 204.592 130.655C204.204 130.916 203.838 131.208 203.497 131.527C202.728 132.208 203.272 132.597 204.082 132.072L205.068 131.391C206.394 130.512 207.414 129.421 207.543 129.53C207.672 129.639 205.734 131.534 205.734 131.534C205.734 131.534 204.938 132.856 206.135 132.072C206.993 131.528 207.783 130.883 208.488 130.15C209.296 129.468 210.012 128.682 210.616 127.813Z" fill="#F99D7F"/>
</svg>
