<svg width="289" height="231" viewBox="0 0 289 231" fill="none" xmlns="http://www.w3.org/2000/svg">
    <path opacity="0.1" d="M52.4892 198.176C52.4892 198.176 25.2892 166.94 36.6452 130.225C46.8452 97.2721 92.9492 75.9438 117.443 92.2637C129.295 100.161 138.87 68.4142 178.208 56.8301C207.291 48.217 250.301 67.4602 239.36 126.484C231.057 171.342 272.252 148.971 263.255 198.537L52.4892 198.176Z" fill="#404D63"/>
    <path d="M108.338 194.824V197.12C108.339 197.295 108.287 197.466 108.188 197.611C108.086 197.761 107.942 197.877 107.773 197.944L107.644 197.979H107.61C107.558 197.986 107.506 197.986 107.454 197.979H70.8288C70.6343 197.941 70.4578 197.84 70.3273 197.69C70.1967 197.541 70.1196 197.352 70.108 197.154V194.769C70.1185 194.543 70.2156 194.33 70.3789 194.174C70.5423 194.018 70.7595 193.931 70.9852 193.931H107.61L107.773 193.972H107.814H107.862H107.902L107.95 194.006H107.984L108.045 194.074V194.122C108.145 194.208 108.223 194.316 108.274 194.438C108.325 194.56 108.346 194.692 108.338 194.824Z" fill="#FFB93E"/>
    <path d="M90.44 197.999H70.7948C70.6028 197.961 70.4299 197.857 70.3059 197.706C70.1818 197.554 70.1143 197.364 70.1148 197.168V194.783C70.1145 194.568 70.196 194.362 70.3427 194.206C70.4894 194.05 70.6901 193.957 70.9036 193.945H88.0396C88.0374 193.976 88.0374 194.008 88.0396 194.04C88.3734 195.572 89.1942 196.954 90.3788 197.979L90.44 197.999Z" fill="#FFA412"/>
    <path d="M103.904 193.938H103.489V198.026H103.904V193.938Z" fill="#FFA412"/>
    <path d="M102.496 193.938H102.082V198.026H102.496V193.938Z" fill="#FFA412"/>
    <path d="M100.817 193.938H100.402V198.026H100.817V193.938Z" fill="#FFA412"/>
    <path d="M98.2328 193.938H97.818V198.026H98.2328V193.938Z" fill="#FFA412"/>
    <path d="M95.5128 193.938H95.098V198.026H95.5128V193.938Z" fill="#FFA412"/>
    <path d="M91.3308 193.938H90.916V198.026H91.3308V193.938Z" fill="#FFA412"/>
    <path d="M87.414 193.938H86.9992V198.026H87.414V193.938Z" fill="#FFA412"/>
    <path d="M83.9188 193.938H83.504V198.026H83.9188V193.938Z" fill="#FFA412"/>
    <path d="M105.237 193.938H104.822V198.026H105.237V193.938Z" fill="#FFA412"/>
    <path d="M106.121 193.938H105.706V198.026H106.121V193.938Z" fill="#FFA412"/>
    <path d="M106.971 193.938H106.556V198.026H106.971V193.938Z" fill="#FFA412"/>
    <path d="M107.61 193.951V197.985C107.558 197.989 107.506 197.989 107.454 197.985H107.195V193.897H107.44L107.61 193.951Z" fill="#FFA412"/>
    <path d="M108.188 194.333V197.611C108.086 197.761 107.942 197.877 107.773 197.945V193.999C107.942 194.067 108.086 194.183 108.188 194.333Z" fill="#FFA412"/>
    <path d="M110.221 190.858V193.154C110.223 193.333 110.17 193.508 110.069 193.655C109.968 193.803 109.824 193.916 109.657 193.979L109.5 194.026H109.344H72.8756C72.7341 194.026 72.5945 193.994 72.4676 193.931C72.3403 193.864 72.2311 193.767 72.1494 193.648C72.0677 193.529 72.0159 193.393 71.9984 193.25V193.209C71.9947 193.193 71.9947 193.177 71.9984 193.161V190.871C71.9951 190.856 71.9951 190.839 71.9984 190.824C72.0105 190.598 72.1081 190.386 72.2711 190.23C72.4341 190.075 72.6504 189.987 72.8756 189.986H109.344C109.396 189.979 109.449 189.979 109.5 189.986C109.554 189.994 109.607 190.01 109.657 190.033C109.827 190.094 109.973 190.209 110.072 190.36C110.17 190.507 110.222 190.681 110.221 190.858Z" fill="#FFB93E"/>
    <path d="M92.3168 194.04H72.76C72.6304 194.042 72.5029 194.006 72.3928 193.938C72.2741 193.866 72.1745 193.766 72.1023 193.648C72.0301 193.529 71.9875 193.395 71.978 193.256C71.9748 193.243 71.9748 193.229 71.978 193.215V190.796C71.9776 190.582 72.0592 190.376 72.2059 190.22C72.3526 190.064 72.5533 189.971 72.7668 189.958H89.9028C90.2209 191.49 91.0191 192.879 92.1808 193.924L92.3168 194.04Z" fill="#FFA412"/>
    <path d="M105.788 189.979H105.4V194.067H105.815L105.788 189.979Z" fill="#FFA412"/>
    <path d="M104.387 189.979H103.972V194.067H104.387V189.979Z" fill="#FFA412"/>
    <path d="M102.68 189.979H102.265V194.067H102.68V189.979Z" fill="#FFA412"/>
    <path d="M100.123 189.979H99.7084V194.067H100.123V189.979Z" fill="#FFA412"/>
    <path d="M97.3964 189.979H96.9816V194.067H97.3964V189.979Z" fill="#FFA412"/>
    <path d="M93.2144 189.972H92.7996V194.06H93.2144V189.972Z" fill="#FFA412"/>
    <path d="M89.2976 189.972H88.8828V194.06H89.2976V189.972Z" fill="#FFA412"/>
    <path d="M85.8024 189.972H85.3876V194.06H85.8024V189.972Z" fill="#FFA412"/>
    <path d="M107.12 189.979H106.706V194.067H107.12V189.979Z" fill="#FFA412"/>
    <path d="M108.004 189.979H107.59V194.067H108.004V189.979Z" fill="#FFA412"/>
    <path d="M108.854 189.979H108.44V194.067H108.854V189.979Z" fill="#FFA412"/>
    <path d="M109.48 189.992V194.026H109.324H109.065V189.938H109.324C109.378 189.949 109.431 189.967 109.48 189.992Z" fill="#FFA412"/>
    <path d="M110.072 190.367V193.652C109.971 193.801 109.826 193.916 109.657 193.979V190.04C109.827 190.101 109.973 190.215 110.072 190.367Z" fill="#FFA412"/>
    <path d="M144.459 181.257C144.459 181.257 143.364 189.025 144.616 193.958H126.256C126.256 193.958 135.028 161.775 152.986 143.363C158.141 138.075 162.887 130.546 167.464 122.239C178.833 101.688 189.176 76.5298 202.28 69.668C202.28 69.668 176.392 107.773 171.38 129.748C166.369 151.724 148.532 151.097 144.459 181.257Z" fill="#5A6A84"/>
    <path d="M165.24 129.748C165.843 127.207 166.597 124.704 167.498 122.253C162.921 130.532 158.182 138.062 153.02 143.377C150.352 146.137 147.899 149.099 145.683 152.235C145.032 147.37 143.804 142.601 142.025 138.028C139.203 130.961 134.368 123.793 126.29 123.173C126.29 123.173 145.846 138.164 135.925 168.971C129.465 182.279 124.664 193.945 124.664 193.945H138.774C137.516 189.011 138.618 181.243 138.618 181.243C142.684 151.097 160.222 151.724 165.24 129.748Z" fill="#404D63"/>
    <path d="M145.676 152.228L145.602 152.351C145.085 153.21 142.14 158.054 142.399 155.077C142.691 151.813 139.033 139.534 139.033 139.534L142.018 138.014C143.797 142.59 145.025 147.361 145.676 152.228Z" fill="#5A6A84"/>
    <path d="M234.328 96.3453L233.791 97.1767C230.518 95.5229 227.066 94.2538 223.502 93.3948C215.744 91.5073 207.589 92.1201 200.199 95.1461C198.384 95.8754 196.637 96.7623 194.976 97.7968C189.645 101.156 184.035 105.292 179.751 111.48L179.024 111.084L158.766 95.4868L154.469 92.1819C156.874 89.2952 159.493 86.5937 162.302 84.1003C167.994 78.9761 176.426 72.7343 186.388 69.5725C192.359 67.6024 198.707 67.0587 204.925 67.9848C209.551 68.7348 214.008 70.2989 218.09 72.6048L234.328 96.3453Z" fill="#6EB87E"/>
    <path d="M200.199 95.1461C198.383 95.8726 196.635 96.7597 194.976 97.7968C189.645 101.156 184.035 105.292 179.751 111.48L179.024 111.084L158.766 95.4868C159.71 91.622 160.891 87.8193 162.302 84.1003C167.994 78.9761 176.426 72.7343 186.388 69.5725C192.359 67.6024 198.707 67.0587 204.925 67.9848L205.265 68.2029C205.265 68.2029 195.072 80.6115 200.199 95.1461Z" fill="#719E67"/>
    <path d="M173.978 89.1224L143.215 92.6725L142.392 92.6317C142.208 89.9395 141.752 87.2729 141.032 84.6727C139.877 80.6494 138.316 76.7543 136.374 73.0478C135.044 70.4704 133.402 68.0673 131.485 65.8929C126.888 60.557 120.893 56.6154 114.179 54.5132C110.686 53.4171 107.078 52.7311 103.428 52.469L103.36 51.4673L129.513 39.5221C135 39.6566 140.397 40.9532 145.349 43.3267C150.3 45.7002 154.694 49.0969 158.243 53.2935C164.22 60.1077 168.028 68.237 170.401 75.0988C172.02 79.6537 173.217 84.3479 173.978 89.1224Z" fill="#6EB87E"/>
    <path d="M170.401 75.0376C169.959 80.7615 167.049 85.436 161.038 87.1395C154.469 88.9998 147.22 87.5211 141.032 84.6455C139.877 80.6222 138.316 76.7271 136.374 73.0206C135.044 70.4432 133.402 68.0401 131.485 65.8657C145.085 62.6835 142.691 42.1456 142.691 42.1456C148.693 44.5436 154.028 48.3586 158.243 53.2663C164.22 60.0532 168.028 68.2166 170.401 75.0376Z" fill="#719E67"/>
    <path d="M134.218 71.501C134.218 71.501 133.661 65.6613 122.767 68.019C124.177 69.5911 125.99 70.7466 128.008 71.3604C130.027 71.9742 132.174 72.0228 134.218 71.501Z" fill="#6EB87E"/>
    <path d="M218.239 127.943L202.001 104.195C190.733 97.9399 179.819 98.1511 170.299 101.17C151.654 107.085 138.38 123.779 138.38 123.779L162.935 142.675L163.662 143.07C167.946 136.89 173.55 132.747 178.888 129.387C187.443 124.216 197.69 122.639 207.4 124.999C210.97 125.854 214.428 127.125 217.702 128.788L218.246 127.956L218.239 127.943Z" fill="#6EB87E"/>
    <path d="M98.464 101.279L114.702 77.5315C125.97 71.2761 136.884 71.4805 146.404 74.506C165.05 80.4139 178.323 97.1086 178.323 97.1086L153.768 116.011L153.041 116.406C148.757 110.219 143.154 106.083 137.822 102.723C129.255 97.5368 118.989 95.9545 109.262 98.3215C105.702 99.1821 102.252 100.451 98.9808 102.103L98.4368 101.279H98.464Z" fill="#719E67"/>
    <path d="M48.3276 189.59H48.3684C48.3684 189.59 48.3276 189.577 48.3276 189.59Z" fill="#FFB973"/>
    <path d="M151.409 88.843L150.674 88.4614C153.394 81.4428 153.7 74.4719 153.503 68.162C153.008 58.1548 148.589 48.7484 141.209 41.9889C138.52 39.5102 135.553 37.3517 132.369 35.5563L132.75 34.6432C156.4 45.355 158.168 63.1536 155.924 75.4191C155.077 80.0897 153.556 84.6118 151.409 88.843Z" fill="#6EB87E"/>
    <path d="M180.771 98.6962L151.409 88.843C152.932 84.5226 153.87 80.0168 154.197 75.4463C154.396 73.2172 154.478 70.979 154.442 68.7412C153.762 46.4589 132.722 34.6704 132.722 34.6704L161.446 34.9089C172.917 40.7759 178.84 49.9682 181.655 59.5693C187.177 78.3628 180.771 98.6962 180.771 98.6962Z" fill="#9EDAAB"/>
    <path d="M153.585 87.9027C153.632 87.8346 157.202 81.3475 157.706 71.5896C158.005 65.8923 156.895 60.2092 154.476 55.0448C151.416 48.4555 146.207 42.316 138.999 36.8033L137.89 35.9584L161.01 36.3809H161.085C161.303 36.4694 166.437 38.5341 171.693 44.4011C174.83 47.9278 177.319 51.9836 179.044 56.3804C181.372 62.4574 182.57 68.9099 182.58 75.4192C182.58 75.9643 182.492 89.7698 179.513 96.1751L153.585 87.9027ZM154.489 87.3576L179.058 94.8531C180.248 92.291 181.098 88.1276 181.451 82.8194C181.737 78.7786 181.655 75.4805 181.655 75.4464C181.645 69.0598 180.475 62.7283 178.201 56.762C176.52 52.4681 174.096 48.5051 171.04 45.0553C168.608 42.3099 165.746 39.9786 162.568 38.1525C161.541 37.5797 160.39 37.2684 159.215 37.2462L143.194 36.9532C143.01 36.9476 142.829 36.9996 142.676 37.1022C142.523 37.2047 142.405 37.3526 142.34 37.5253C142.275 37.6979 142.265 37.8866 142.312 38.065C142.36 38.2434 142.461 38.4027 142.603 38.5205C148.376 43.4812 152.646 48.8985 155.312 54.6632C157.797 59.9678 158.932 65.8064 158.617 71.6578C158.384 75.8941 157.466 80.0643 155.897 84.005C155.505 85.1624 155.035 86.2916 154.489 87.3848V87.3576Z" fill="#6EB87E"/>
    <path d="M170.34 54.67C166.158 52.9119 162.792 54.4451 161.044 58.6358C159.297 62.8266 162.561 67.174 166.743 68.932C170.925 70.6901 174.427 69.1842 176.181 65.0003C177.936 60.8164 174.522 56.4281 170.34 54.67Z" fill="#6EB87E"/>
    <path d="M136.143 120.195L135.354 120.447C132.253 113.592 127.48 108.515 122.835 104.25C115.346 97.6123 105.542 94.2103 95.5604 94.7849C91.9011 94.9878 88.2776 95.6143 84.762 96.652L84.3812 95.7389C108.596 86.1991 122.522 97.4016 129.71 107.575C132.456 111.446 134.623 115.697 136.143 120.195Z" fill="#6EB87E"/>
    <path d="M163.683 106.021L136.143 120.195C134.12 116.086 131.556 112.268 128.52 108.843C127.067 107.141 125.526 105.517 123.903 103.977C107.501 88.9111 84.3744 95.7389 84.3744 95.7389L104.611 75.2965C116.817 71.1739 127.514 73.3408 136.34 78.0221C153.619 87.2212 163.683 106.021 163.683 106.021Z" fill="#9EDAAB"/>
    <path d="M137.013 117.994C137.013 117.912 134.851 110.819 128.234 103.643C124.375 99.4485 119.539 96.2764 114.158 94.4102C107.318 91.998 99.3004 91.446 90.3584 92.768L88.9984 92.9724L105.4 76.6934H105.475C105.686 76.598 110.745 74.3561 118.606 74.6491C123.317 74.8606 127.954 75.908 132.301 77.7428C138.266 80.3212 143.712 83.9699 148.369 88.5091C148.764 88.8771 158.569 98.5941 161.044 105.204L137.013 117.994ZM137.251 116.965L159.8 104.591C158.8 101.953 156.4 98.4578 152.871 94.4715C150.192 91.446 147.778 89.1974 147.757 89.1769C143.187 84.7237 137.846 81.1422 131.995 78.6082C127.755 76.8099 123.231 75.7787 118.633 75.5622C114.962 75.3838 111.286 75.8096 107.753 76.8228C106.624 77.1559 105.596 77.7647 104.761 78.5945L93.364 89.872C93.235 89.9996 93.1478 90.1636 93.1143 90.3422C93.0807 90.5207 93.1024 90.7053 93.1763 90.8712C93.2502 91.0371 93.3729 91.1765 93.5279 91.2707C93.683 91.3649 93.863 91.4094 94.044 91.3983C101.619 90.7169 108.467 91.4392 114.444 93.5516C119.971 95.4873 124.933 98.7649 128.887 103.091C131.745 106.224 134.074 109.803 135.782 113.687C136.344 114.746 136.834 115.841 137.251 116.965Z" fill="#6EB87E"/>
    <path d="M136.415 85.7767C134.647 81.5928 129.132 81.0068 124.957 82.7512C120.782 84.4956 119.517 88.0049 121.298 92.1888C123.08 96.3727 128.452 97.0677 132.627 95.2892C136.802 93.5107 138.183 89.9469 136.415 85.7767Z" fill="#6EB87E"/>
    <path d="M181.832 98.6894L182.662 98.7371C183.926 91.3165 187.258 85.1906 190.665 79.8823C196.235 71.5623 204.856 65.7808 214.656 63.7941C218.245 63.0614 221.908 62.7481 225.57 62.8606L225.712 61.8793C199.872 58.8266 189.237 73.1772 184.865 84.8499C183.187 89.2904 182.165 93.9528 181.832 98.6894Z" fill="#6EB87E"/>
    <path d="M151.599 91.9911L181.832 98.6962C182.748 94.1993 184.26 89.8452 186.327 85.7493C187.303 83.7365 188.384 81.776 189.564 79.8755C201.613 61.1298 225.712 61.8589 225.712 61.8589L200.967 47.2561C188.115 46.3703 178.316 51.1879 170.966 57.9612C156.577 71.2283 151.599 91.9911 151.599 91.9911Z" fill="#9EDAAB"/>
    <path d="M153.952 90.5193C154.686 83.4939 161.704 71.6032 161.99 71.1466C165.345 65.5732 169.689 60.6613 174.808 56.6529C178.545 53.7716 182.763 51.5775 187.265 50.1727C194.786 47.8627 200.253 48.7417 200.478 48.8098H200.559L220.592 60.3939L219.232 60.5506C210.188 61.5182 202.572 64.094 196.568 68.1416C191.836 71.3167 187.961 75.6144 185.286 80.6524C180.71 89.2723 180.431 96.6793 180.438 96.7611L153.952 90.5193ZM180.472 92.2842C181.145 88.0917 182.493 84.0367 184.464 80.2776C187.197 75.0999 191.169 70.682 196.024 67.4193C201.273 63.8555 207.72 61.416 215.213 60.1418C215.395 60.1141 215.564 60.0301 215.697 59.9015C215.829 59.7729 215.918 59.6061 215.951 59.4244C215.984 59.2427 215.959 59.0552 215.881 58.8882C215.802 58.7211 215.673 58.5829 215.512 58.4927L201.64 50.4793C200.622 49.8871 199.472 49.5592 198.295 49.5253C194.634 49.4479 190.984 49.968 187.49 51.0653C183.097 52.445 178.981 54.5902 175.331 57.4025C170.314 61.3425 166.055 66.1663 162.765 71.6373C162.765 71.6373 160.983 74.4515 159.154 78.063C156.747 82.8329 155.312 86.7988 155.02 89.6062L179.935 95.848C180.041 94.6502 180.221 93.46 180.472 92.2842Z" fill="#6EB87E"/>
    <path d="M183.172 59.6307C178.684 58.9493 173.502 60.9935 172.856 65.4636C172.21 69.9337 174.44 73.0614 178.928 73.7087C183.416 74.3561 188.448 72.3459 189.128 67.8281C189.808 63.3103 187.68 60.2848 183.172 59.6307Z" fill="#6EB87E"/>
    <path d="M153.279 89.504C154.248 85.4845 156.384 81.8434 159.419 79.0413C162.453 76.2392 166.249 74.4021 170.326 73.7626C174.403 73.1231 178.577 73.7098 182.321 75.4485C186.065 77.1872 189.21 79.9998 191.358 83.5303C193.506 87.0608 194.561 91.1505 194.389 95.282C194.217 99.4134 192.826 103.401 190.391 106.74C187.957 110.078 184.589 112.618 180.713 114.038C176.838 115.458 172.629 115.694 168.62 114.716C163.251 113.407 158.621 110.017 155.745 105.29C152.869 100.563 151.982 94.8856 153.279 89.504Z" fill="#4F5155"/>
    <path d="M186.517 108.781C189.433 105.859 191.419 102.137 192.223 98.0841C193.027 94.0314 192.615 89.8307 191.037 86.0132C189.459 82.1956 186.786 78.9327 183.358 76.637C179.929 74.3414 175.898 73.1161 171.775 73.1161C167.651 73.1161 163.62 74.3414 160.192 76.637C156.763 78.9327 154.091 82.1956 152.513 86.0132C150.935 89.8307 150.522 94.0314 151.327 98.0841C152.131 102.137 154.117 105.859 157.032 108.781C158.968 110.722 161.266 112.262 163.796 113.312C166.325 114.363 169.037 114.903 171.775 114.903C174.513 114.903 177.224 114.363 179.754 113.312C182.283 112.262 184.582 110.722 186.517 108.781Z" fill="#3C3F44"/>
    <path d="M181.56 86.0765L184.885 86.6625L176.725 92.3182C175.305 93.2989 173.557 93.6806 171.859 93.381C170.16 93.0814 168.648 92.1246 167.647 90.7169L161.922 82.6217L165.254 83.2077L169.599 89.3405C170.231 90.2343 171.19 90.8421 172.267 91.0322C173.344 91.2223 174.452 90.9792 175.352 90.3558L181.56 86.0765ZM161.908 102.308L158.576 101.715L166.736 96.032C168.157 95.0509 169.906 94.669 171.606 94.9686C173.305 95.2682 174.819 96.2252 175.821 97.6333L181.574 105.776L178.242 105.19L173.862 98.9893C173.229 98.0985 172.271 97.4934 171.196 97.3046C170.12 97.1159 169.014 97.3588 168.116 97.9808L161.888 102.308H161.908Z" fill="white"/>
    <path d="M171.754 113.292C168.489 113.293 165.279 112.452 162.432 110.851C159.584 109.249 157.196 106.941 155.496 104.148C153.539 100.933 152.578 97.2082 152.735 93.4458C152.891 89.6833 154.158 86.052 156.375 83.0113C158.592 79.9706 161.659 77.6573 165.188 76.364C168.717 75.0708 172.55 74.8558 176.202 75.7462C180.71 76.8509 184.659 79.5705 187.304 83.3921C189.95 87.2137 191.108 91.8731 190.561 96.4916C190.014 101.11 187.799 105.368 184.335 108.463C180.87 111.558 176.396 113.276 171.754 113.292ZM171.686 76.339C168.334 76.3444 165.051 77.2945 162.212 79.0807C159.373 80.8669 157.093 83.4174 155.632 86.4406C154.17 89.4638 153.587 92.8379 153.949 96.1775C154.31 99.517 155.602 102.687 157.676 105.326C159.75 107.965 162.523 109.967 165.678 111.101C168.833 112.236 172.243 112.459 175.518 111.744C178.794 111.029 181.802 109.405 184.201 107.058C186.599 104.711 188.29 101.736 189.081 98.4714C190.194 93.8579 189.435 88.9904 186.971 84.9369C184.506 80.8834 180.538 77.9751 175.936 76.8501C174.546 76.5055 173.119 76.3271 171.686 76.3186V76.339Z" fill="#4F5155"/>
    <path d="M153.122 99.6434L74.8612 121.783L84.1296 154.681L162.391 132.535L153.122 99.6434Z" fill="#9EDAAB"/>
    <path d="M80.138 123.493L87.5296 149.721L156.658 130.15L149.267 103.923L80.138 123.493ZM154.258 125.415C154.408 125.945 154.453 126.499 154.389 127.047C154.325 127.594 154.154 128.124 153.885 128.605C153.617 129.086 153.256 129.509 152.824 129.85C152.392 130.192 151.897 130.444 151.368 130.593L91.8544 147.431C91.3807 147.565 90.8853 147.604 90.3964 147.546C89.9076 147.488 89.435 147.334 89.0056 147.093C88.5762 146.852 88.1984 146.528 87.8938 146.141C87.5892 145.754 87.3638 145.31 87.2304 144.835L82.5384 128.188C82.2409 127.132 82.3739 126 82.908 125.042C83.4422 124.084 84.334 123.377 85.3876 123.077L144.677 106.301C145.707 106.009 146.812 106.14 147.746 106.664C148.681 107.188 149.37 108.062 149.661 109.095L154.258 125.415Z" fill="#6EB87E"/>
    <path d="M126.67 124.488C126.216 122.873 125.294 121.429 124.021 120.339C122.747 119.249 121.18 118.562 119.517 118.365C117.854 118.168 116.17 118.469 114.678 119.231C113.186 119.993 111.953 121.181 111.135 122.645C110.317 124.11 109.951 125.784 110.082 127.457C110.214 129.13 110.838 130.726 111.875 132.043C112.912 133.361 114.315 134.341 115.908 134.859C117.501 135.377 119.211 135.41 120.822 134.954C122.983 134.343 124.812 132.897 125.909 130.935C127.006 128.972 127.28 126.653 126.67 124.488Z" fill="#6EB87E"/>
    <path opacity="0.5" d="M153.122 99.6434L162.391 132.529L101.191 149.843C104.026 148.065 129.948 139.513 135.286 127.656C141.76 113.272 136.646 105.388 136.823 104.25L153.122 99.6434Z" fill="#6EB87E"/>
    <path d="M244.12 108.863L162.799 109.224L162.948 143.397L244.27 143.043L244.12 108.863Z" fill="#9EDAAB"/>
    <path d="M167.43 112.284L167.552 139.54L239.36 139.22L239.244 111.963L167.43 112.284ZM238.326 134C238.33 134.552 238.225 135.098 238.017 135.608C237.809 136.119 237.503 136.583 237.116 136.974C236.728 137.365 236.268 137.676 235.76 137.889C235.252 138.101 234.708 138.211 234.158 138.212L172.319 138.484C171.826 138.487 171.338 138.392 170.882 138.206C170.426 138.019 170.011 137.744 169.661 137.397C169.311 137.049 169.033 136.636 168.843 136.181C168.652 135.725 168.553 135.237 168.552 134.743L168.477 117.442C168.471 116.35 168.897 115.301 169.662 114.523C170.427 113.746 171.467 113.303 172.557 113.292L234.172 113.02C234.704 113.013 235.232 113.113 235.726 113.312C236.22 113.512 236.67 113.807 237.049 114.181C237.428 114.556 237.73 115.002 237.936 115.494C238.143 115.985 238.25 116.513 238.252 117.047L238.326 134Z" fill="#6EB87E"/>
    <path d="M203.497 117.265C201.822 117.272 200.188 117.776 198.799 118.714C197.411 119.651 196.331 120.981 195.696 122.533C195.062 124.086 194.901 125.793 195.234 127.437C195.568 129.081 196.38 130.59 197.569 131.771C198.757 132.953 200.269 133.755 201.913 134.076C203.556 134.396 205.258 134.221 206.802 133.573C208.346 132.925 209.664 131.832 210.589 130.433C211.514 129.034 212.004 127.392 211.997 125.714C211.992 124.6 211.769 123.498 211.339 122.47C210.91 121.443 210.282 120.51 209.493 119.726C208.704 118.941 207.768 118.32 206.739 117.898C205.71 117.475 204.609 117.26 203.497 117.265Z" fill="#6EB87E"/>
    <path opacity="0.5" d="M244.12 108.863L244.27 143.036L180.69 143.315C183.892 142.361 211.154 141.074 219.45 131.084C229.534 118.955 226.746 109.96 227.181 108.938L244.12 108.863Z" fill="#6EB87E"/>
    <path d="M194.623 133.598C192.632 129.978 189.615 127.03 185.953 125.128C182.291 123.226 178.148 122.455 174.048 122.912C169.948 123.369 166.076 125.035 162.921 127.698C159.766 130.36 157.47 133.901 156.323 137.871C155.176 141.842 155.229 146.064 156.477 150.004C157.725 153.944 160.11 157.425 163.332 160.006C166.554 162.587 170.467 164.153 174.577 164.506C178.687 164.858 182.809 163.981 186.422 161.986C191.266 159.311 194.851 154.818 196.389 149.494C197.927 144.17 197.291 138.453 194.623 133.598Z" fill="#F48014"/>
    <path d="M193.025 134.477C191.035 130.856 188.017 127.908 184.355 126.005C180.692 124.103 176.549 123.331 172.449 123.789C168.348 124.246 164.476 125.912 161.32 128.575C158.165 131.239 155.869 134.78 154.722 138.751C153.576 142.722 153.63 146.945 154.879 150.885C156.128 154.825 158.515 158.306 161.738 160.887C164.961 163.467 168.875 165.032 172.986 165.383C177.096 165.734 181.219 164.855 184.831 162.858C189.673 160.184 193.257 155.691 194.793 150.368C196.33 145.046 195.694 139.33 193.025 134.477Z" fill="#FF9431"/>
    <path d="M183.212 141.666C183.607 139.063 181.621 137.666 178.915 136.733L179.792 133.21L177.65 132.679L176.793 136.086L175.073 135.684L175.936 132.236L173.794 131.697L172.917 135.22L171.557 134.9L168.599 134.164L168.028 136.454C168.028 136.454 169.619 136.815 169.585 136.835C169.882 136.869 170.153 137.02 170.341 137.253C170.528 137.486 170.615 137.784 170.585 138.082L169.585 142.096C169.661 142.114 169.736 142.136 169.81 142.164L169.578 142.109L168.178 147.731C168.147 147.83 168.097 147.921 168.03 148C167.964 148.079 167.882 148.144 167.79 148.191C167.698 148.238 167.598 148.266 167.495 148.273C167.393 148.281 167.289 148.268 167.192 148.235L165.634 147.854L164.56 150.307L167.348 150.988L168.878 151.377L167.987 154.94L170.129 155.472L171.006 151.949C171.598 152.112 172.162 152.256 172.72 152.392L171.843 155.901L173.985 156.433L174.876 152.882C178.534 153.564 181.281 153.291 182.437 149.986C183.376 147.329 182.396 145.789 180.472 144.787C181.208 144.638 181.874 144.249 182.366 143.681C182.858 143.112 183.148 142.397 183.192 141.646L183.212 141.666ZM178.316 148.549C177.636 151.213 173.169 149.775 171.714 149.414L172.89 144.692C174.345 145.039 179.01 145.755 178.316 148.549ZM178.996 141.646C178.391 144.065 174.665 142.838 173.454 142.532L174.515 138.259C175.705 138.539 179.608 139.097 178.976 141.625L178.996 141.646Z" fill="white"/>
    <path d="M174.91 163.826C170.272 163.838 165.79 162.153 162.304 159.088C158.819 156.022 156.569 151.788 155.978 147.179C155.387 142.57 156.494 137.903 159.093 134.054C161.692 130.205 165.604 127.439 170.093 126.275C174.583 125.111 179.342 125.629 183.478 127.732C187.613 129.834 190.841 133.377 192.555 137.695C194.268 142.013 194.351 146.81 192.786 151.184C191.221 155.559 188.117 159.211 184.056 161.455C181.256 163.007 178.109 163.822 174.91 163.826V163.826ZM174.862 126.873C170.323 126.866 165.95 128.584 162.625 131.68C159.3 134.777 157.27 139.021 156.944 143.558C156.618 148.095 158.02 152.586 160.868 156.128C163.717 159.67 167.799 161.998 172.292 162.643C176.785 163.288 181.356 162.202 185.081 159.604C188.807 157.006 191.412 153.089 192.37 148.643C193.328 144.197 192.569 139.552 190.245 135.645C187.921 131.738 184.205 128.859 179.846 127.588C178.227 127.114 176.549 126.873 174.862 126.873V126.873Z" fill="#F48014"/>
    <path d="M154.897 114.403C154.626 111.318 153.449 108.383 151.514 105.968C149.58 103.554 146.975 101.767 144.029 100.834C141.082 99.9017 137.926 99.8645 134.958 100.728C131.99 101.591 129.344 103.316 127.354 105.684C125.364 108.053 124.118 110.96 123.775 114.037C123.431 117.114 124.005 120.225 125.424 122.976C126.843 125.726 129.043 127.994 131.747 129.493C134.451 130.992 137.538 131.655 140.617 131.397C142.67 131.226 144.669 130.65 146.499 129.702C148.329 128.754 149.954 127.453 151.281 125.874C152.608 124.295 153.611 122.468 154.231 120.5C154.852 118.531 155.078 116.459 154.897 114.403Z" fill="#E73737"/>
    <path d="M153.537 114.519C153.266 111.434 152.089 108.499 150.154 106.084C148.22 103.669 145.615 101.883 142.669 100.95C139.722 100.017 136.566 99.9804 133.598 100.844C130.63 101.707 127.984 103.432 125.994 105.8C124.004 108.169 122.758 111.075 122.415 114.153C122.071 117.23 122.645 120.341 124.064 123.091C125.483 125.842 127.683 128.11 130.387 129.609C133.091 131.108 136.178 131.771 139.257 131.513C141.31 131.342 143.309 130.765 145.139 129.818C146.969 128.87 148.594 127.569 149.921 125.99C151.248 124.41 152.251 122.584 152.871 120.616C153.492 118.647 153.718 116.575 153.537 114.519Z" fill="#FF4747"/>
    <path d="M142.977 110.389L130.56 108.141L137.095 124.495L146.2 113.463L142.977 110.389ZM142.8 111.411L144.697 113.21L139.502 114.144L142.8 111.418V111.411ZM138.373 113.96L132.899 109.442L141.848 111.078L138.373 113.96ZM137.986 114.757L137.095 122.096L132.26 110.049L137.965 114.757H137.986ZM138.808 115.146L144.568 114.11L137.965 122.11L138.808 115.146Z" fill="white"/>
    <path d="M137.938 130.362C134.204 130.364 130.618 128.9 127.948 126.285C125.278 123.67 123.737 120.111 123.654 116.37C123.571 112.63 124.953 109.005 127.504 106.274C130.056 103.542 133.573 101.92 137.303 101.756C141.033 101.592 144.679 102.898 147.46 105.395C150.24 107.891 151.935 111.38 152.18 115.114C152.424 118.847 151.2 122.528 148.77 125.368C146.339 128.208 142.895 129.981 139.176 130.307C138.761 130.341 138.346 130.362 137.938 130.362ZM124.569 117.204C124.798 119.853 125.805 122.375 127.464 124.451C129.122 126.527 131.358 128.064 133.888 128.868C136.417 129.671 139.128 129.705 141.677 128.965C144.226 128.225 146.499 126.744 148.209 124.71C149.919 122.676 150.988 120.18 151.283 117.537C151.577 114.894 151.083 112.223 149.863 109.861C148.643 107.5 146.752 105.553 144.429 104.268C142.105 102.983 139.454 102.417 136.809 102.642C133.26 102.948 129.977 104.654 127.682 107.385C125.387 110.115 124.268 113.647 124.569 117.204Z" fill="#E73737"/>
    <path d="M150.321 72.1892C149.487 70.8073 148.263 69.7038 146.805 69.0177C145.346 68.3317 143.717 68.0939 142.123 68.3343C140.53 68.5747 139.043 69.2826 137.85 70.3686C136.658 71.4547 135.813 72.8703 135.422 74.4369C135.031 76.0036 135.112 77.6512 135.654 79.1719C136.196 80.6926 137.176 82.0183 138.469 82.9819C139.762 83.9455 141.311 84.5038 142.921 84.5864C144.53 84.6691 146.128 84.2723 147.512 83.4462C148.437 82.8945 149.244 82.1649 149.886 81.2994C150.528 80.4339 150.993 79.4497 151.254 78.4034C151.515 77.3571 151.567 76.2693 151.407 75.2028C151.247 74.1363 150.878 73.1121 150.321 72.1892Z" fill="#234579"/>
    <path d="M149.709 72.5572C148.877 71.1744 147.655 70.0695 146.197 69.3815C144.74 68.6936 143.112 68.4535 141.518 68.6915C139.924 68.9295 138.437 69.6349 137.242 70.7188C136.048 71.8028 135.201 73.2167 134.808 74.7824C134.414 76.3481 134.492 77.9955 135.032 79.5169C135.571 81.0383 136.548 82.3656 137.839 83.3315C139.13 84.2974 140.678 84.8587 142.287 84.9446C143.896 85.0305 145.494 84.6371 146.88 83.8141C147.806 83.2641 148.615 82.5357 149.259 81.671C149.904 80.8063 150.371 79.8224 150.634 78.7759C150.897 77.7295 150.95 76.6412 150.792 75.5739C150.633 74.5066 150.265 73.4813 149.709 72.5572Z" fill="#345D9D"/>
    <path fill-rule="evenodd" clip-rule="evenodd" d="M139.822 77.4497L139.08 77.4974L139.849 76.2572L140.604 76.1959L142.943 72.4072L145.282 73.1977L143.562 75.9915L144.303 75.9301L143.534 77.1635L142.793 77.2248L141.828 78.7921L145.343 79.9846L144.357 81.5927L138.496 79.603L139.822 77.4497Z" fill="white"/>
    <path d="M142.752 84.3389C141.193 84.3454 139.67 83.8633 138.398 82.9601C137.125 82.0568 136.166 80.7775 135.655 79.3011C135.143 77.8248 135.105 76.2252 135.546 74.726C135.986 73.2269 136.883 71.9033 138.112 70.9402C139.34 69.9771 140.838 69.4229 142.396 69.3549C143.954 69.2869 145.494 69.7086 146.801 70.561C148.108 71.4134 149.117 72.6539 149.686 74.109C150.255 75.5641 150.355 77.161 149.974 78.6763C149.568 80.2894 148.638 81.7213 147.331 82.7465C146.023 83.7717 144.413 84.3319 142.752 84.3389ZM136.721 80.4752C137.43 81.6734 138.479 82.6334 139.734 83.2334C140.988 83.8334 142.393 84.0464 143.768 83.8455C145.144 83.6445 146.429 83.0385 147.461 82.1045C148.492 81.1705 149.224 79.9504 149.562 78.5992C149.901 77.248 149.831 75.8264 149.362 74.5149C148.893 73.2033 148.046 72.0609 146.928 71.2326C145.811 70.4043 144.472 69.9273 143.084 69.8623C141.695 69.7972 140.318 70.147 139.128 70.8673C137.544 71.8278 136.403 73.3759 135.952 75.1751C135.502 76.9743 135.778 78.879 136.721 80.4752Z" fill="#234579"/>
    <path d="M179.84 43.263C178.278 42.8627 176.634 42.9346 175.113 43.4696C173.593 44.0046 172.264 44.9788 171.296 46.2693C170.327 47.5598 169.761 49.1089 169.67 50.7211C169.578 52.3334 169.966 53.9367 170.782 55.3288C171.599 56.7209 172.809 57.8396 174.259 58.5437C175.709 59.2477 177.335 59.5057 178.931 59.2851C180.528 59.0645 182.023 58.3752 183.229 57.304C184.435 56.2329 185.298 54.8279 185.708 53.2662C186.252 51.16 185.939 48.9235 184.839 47.048C183.739 45.1724 181.941 43.8111 179.84 43.263Z" fill="#F48014"/>
    <path d="M179.146 43.0859C177.585 42.6869 175.94 42.76 174.42 43.2961C172.901 43.8321 171.573 44.8071 170.605 46.0981C169.638 47.389 169.073 48.9382 168.982 50.5504C168.892 52.1625 169.28 53.7653 170.097 55.1568C170.914 56.5484 172.125 57.6663 173.575 58.3697C175.025 59.073 176.651 59.3303 178.247 59.1092C179.843 58.8881 181.338 58.1983 182.544 57.127C183.749 56.0556 184.611 54.6506 185.021 53.0891C185.295 52.0456 185.36 50.9581 185.213 49.8893C185.065 48.8205 184.708 47.7916 184.162 46.8617C183.616 45.9318 182.891 45.1195 182.031 44.4714C181.17 43.8234 180.189 43.3525 179.146 43.0859Z" fill="#FF9431"/>
    <path d="M180.254 50.3362C180.397 49.464 179.683 48.9734 178.704 48.6872L179.024 47.5151L178.248 47.338L177.942 48.4827L177.324 48.3465L177.636 47.1949L176.861 47.0177L176.548 48.1897L176.052 48.0807L174.991 47.8354L174.787 48.5986C174.787 48.5986 175.358 48.7212 175.345 48.7281C175.658 48.7962 175.712 48.987 175.705 49.1437L175.345 50.5066H175.426H175.345L174.835 52.3804C174.809 52.4486 174.757 52.5038 174.691 52.5343C174.625 52.5649 174.55 52.5684 174.481 52.544L173.924 52.4145L173.543 53.2322L174.542 53.4639L175.093 53.6002L174.76 54.7654L175.535 54.9426L175.848 53.7705L176.467 53.9136L176.147 55.0857L176.922 55.2628L177.242 54.0772C178.554 54.3089 179.547 54.2134 179.962 53.1164C180.047 52.9601 180.096 52.7872 180.107 52.6097C180.118 52.4323 180.09 52.2545 180.025 52.089C179.961 51.9235 179.861 51.7741 179.732 51.6514C179.604 51.5287 179.45 51.4357 179.282 51.3788C179.539 51.3403 179.776 51.2168 179.954 51.0278C180.133 50.8389 180.243 50.5954 180.268 50.3362H180.254ZM178.486 52.6189C178.255 53.5116 176.637 53.0278 176.113 52.9119L176.535 51.3379C177.058 51.4605 178.738 51.699 178.486 52.6189ZM178.731 50.3226C178.514 51.1266 177.167 50.7178 176.732 50.6156L177.113 49.1914C177.555 49.2936 178.956 49.4776 178.731 50.3226Z" fill="white"/>
    <path d="M177.065 58.6018C176.434 58.5993 175.806 58.5192 175.195 58.3633C173.354 57.8863 171.763 56.7242 170.746 55.1134C169.729 53.5026 169.363 51.5641 169.721 49.6923C170.08 47.8205 171.137 46.156 172.677 45.0373C174.217 43.9187 176.125 43.43 178.011 43.6706C179.898 43.9112 181.623 44.8632 182.834 46.3327C184.045 47.8023 184.653 49.679 184.532 51.5812C184.411 53.4834 183.572 55.2682 182.185 56.5724C180.798 57.8766 178.967 58.6022 177.065 58.6018ZM177.065 44.0876C175.363 44.0953 173.721 44.723 172.446 45.8536C171.171 46.9842 170.35 48.5407 170.135 50.2331C169.921 51.9255 170.327 53.6384 171.28 55.0527C172.232 56.4669 173.664 57.4861 175.311 57.9204C176.202 58.1521 177.131 58.2054 178.043 58.0774C178.955 57.9493 179.834 57.6424 180.627 57.1741C181.421 56.7058 182.115 56.0853 182.67 55.3482C183.224 54.611 183.628 53.7716 183.858 52.8779C184.093 51.9839 184.149 51.0523 184.024 50.1366C183.898 49.2208 183.594 48.3389 183.127 47.5413C182.661 46.7437 182.043 46.0461 181.307 45.4885C180.571 44.931 179.733 44.5244 178.84 44.292C178.258 44.1461 177.659 44.0774 177.058 44.0876H177.065Z" fill="#F48014"/>
    <path d="M195.792 112.393C195.135 111.296 194.816 110.028 194.878 108.75C194.94 107.471 195.379 106.24 196.139 105.212C196.899 104.184 197.947 103.405 199.149 102.974C200.352 102.542 201.655 102.478 202.893 102.79C204.132 103.101 205.251 103.774 206.108 104.722C206.965 105.671 207.522 106.853 207.708 108.119C207.894 109.385 207.701 110.678 207.154 111.834C206.606 112.991 205.729 113.958 204.632 114.614C203.165 115.49 201.411 115.748 199.755 115.332C198.098 114.916 196.674 113.859 195.792 112.393Z" fill="#42AB85"/>
    <path d="M195.31 112.686C194.651 111.589 194.331 110.322 194.392 109.043C194.453 107.765 194.89 106.533 195.65 105.504C196.41 104.475 197.457 103.696 198.659 103.263C199.861 102.831 201.164 102.766 202.403 103.077C203.642 103.387 204.761 104.059 205.619 105.007C206.477 105.955 207.035 107.137 207.222 108.403C207.409 109.669 207.217 110.963 206.67 112.119C206.123 113.276 205.246 114.244 204.15 114.9C202.684 115.779 200.93 116.039 199.273 115.624C197.616 115.209 196.191 114.152 195.31 112.686Z" fill="#4ECC9F"/>
    <path fill-rule="evenodd" clip-rule="evenodd" d="M201.423 109.653L200.777 109.463L200.097 109.245C198.825 108.781 197.928 108.257 198.009 107.998C198.091 107.739 199.124 107.82 200.437 108.175L200.165 109.027C200.246 109.061 200.484 109.149 200.845 109.251C201.068 109.326 201.295 109.387 201.525 109.435L201.79 108.59C203.062 109.054 203.952 109.572 203.871 109.831C203.789 110.09 202.762 110.008 201.45 109.653H201.423ZM201.79 108.502L202.028 107.739L203.83 108.311L204.197 107.146L199.294 105.619L198.927 106.778L200.729 107.35L200.491 108.107C199.009 107.711 197.819 107.643 197.71 107.977C197.601 108.311 198.621 108.945 200.063 109.469L199.294 111.909L200.593 112.318L201.362 109.878C202.844 110.28 204.027 110.342 204.136 110.008C204.245 109.674 203.232 109.047 201.79 108.522" fill="white"/>
    <path d="M200.892 115.309C199.473 115.311 198.1 114.797 197.03 113.862C195.96 112.927 195.264 111.636 195.071 110.226C194.879 108.816 195.203 107.385 195.983 106.196C196.763 105.008 197.947 104.143 199.315 103.762C200.683 103.382 202.143 103.511 203.423 104.126C204.703 104.741 205.717 105.801 206.277 107.108C206.838 108.415 206.906 109.882 206.47 111.236C206.033 112.59 205.122 113.739 203.905 114.471C202.996 115.021 201.954 115.311 200.892 115.309ZM196.132 112.277C196.695 113.214 197.523 113.963 198.511 114.43C199.498 114.896 200.602 115.058 201.681 114.896C202.761 114.734 203.769 114.255 204.577 113.519C205.385 112.783 205.957 111.824 206.221 110.762C206.485 109.701 206.429 108.585 206.06 107.555C205.692 106.525 205.027 105.628 204.149 104.977C203.272 104.326 202.222 103.95 201.131 103.897C200.041 103.844 198.959 104.116 198.023 104.679C197.402 105.054 196.86 105.549 196.43 106.134C195.999 106.719 195.688 107.383 195.513 108.088C195.339 108.794 195.305 109.527 195.414 110.246C195.522 110.964 195.771 111.655 196.146 112.277H196.132Z" fill="#42AB85"/>
    <path d="M122.189 106.117C122.189 106.117 117.694 102.948 114.328 103.568C110.962 104.189 107.311 108.536 107.311 108.536C107.311 108.536 114.036 109.279 116.532 108.338C119.027 107.398 122.189 106.117 122.189 106.117Z" fill="#FFA412"/>
    <path d="M196.309 99.5821C196.309 99.5821 204 95.3982 206.904 96.761C209.807 98.1239 211.378 101.429 211.378 101.429C209.288 101.631 207.187 101.706 205.088 101.654C202.334 101.531 200.478 99.0779 196.309 99.5821Z" fill="#6EB87E"/>
    <path opacity="0.1" d="M208.542 67.5284C208.542 67.5284 213.67 64.9867 215.968 65.5795C217.58 66.0448 219.132 66.6989 220.592 67.5284C220.592 67.5284 217.736 69.2523 214.955 69.1297C212.174 69.007 208.542 67.5284 208.542 67.5284Z" fill="#404D63"/>
    <path opacity="0.1" d="M175.12 41.3552C175.12 41.3552 172.475 38.064 173.4 35.6722C173.863 34.4076 174.439 33.1874 175.12 32.0266C175.12 32.0266 177.541 34.7523 177.439 36.6875C177.337 38.6227 175.12 41.3552 175.12 41.3552Z" fill="#404D63"/>
    <path opacity="0.1" d="M185.973 47.1472C185.973 47.1472 185.354 43.011 187.272 41.8253C189.19 40.6397 192.256 40.6465 192.256 40.6465C192.256 40.6465 191.787 44.1353 190.488 44.9053C189.19 45.6753 186.544 46.0978 185.973 47.1472Z" fill="#404D63"/>
    <path d="M156.448 157.407C156.448 157.407 159.038 161.08 159.168 162.381C159.297 163.683 155.509 167.001 155.509 167.001C155.509 167.001 154.292 163.799 154.829 162.232C155.366 160.664 156.448 157.407 156.448 157.407Z" fill="#6EB87E"/>
    <path d="M151.64 136.406C151.64 136.406 147.791 137.707 147.261 139.813C146.94 141.004 146.818 142.241 146.9 143.472C146.9 143.472 152.47 140.787 151.64 136.406Z" fill="#6EB87E"/>
    <path d="M152.81 136.406C152.81 136.406 154 137.769 154.02 138.716C154.002 139.354 153.791 139.972 153.415 140.488C153.415 140.488 152.014 139.356 152.81 136.406Z" fill="#6EB87E"/>
    <path d="M201.566 194.817V197.113C201.567 197.288 201.515 197.46 201.416 197.604C201.314 197.754 201.17 197.87 201.001 197.938L200.838 197.985H200.682H164.213C163.995 197.982 163.786 197.899 163.625 197.752C163.463 197.606 163.361 197.405 163.336 197.188V194.762C163.346 194.536 163.443 194.322 163.606 194.165C163.77 194.007 163.987 193.919 164.213 193.917H200.682H200.838L201.001 193.965C201.17 194.033 201.314 194.149 201.416 194.299C201.521 194.451 201.573 194.633 201.566 194.817Z" fill="#FFB93E"/>
    <path d="M183.661 197.992H164.125C163.996 197.99 163.869 197.955 163.758 197.89C163.64 197.816 163.542 197.717 163.47 197.598C163.398 197.48 163.354 197.347 163.343 197.209V194.783C163.342 194.568 163.424 194.362 163.571 194.206C163.717 194.05 163.918 193.957 164.132 193.945H181.268C181.586 195.474 182.384 196.861 183.546 197.904L183.661 197.992Z" fill="#FFA412"/>
    <path d="M197.132 193.931H196.717V198.019H197.132V193.931Z" fill="#FFA412"/>
    <path d="M195.724 193.931H195.31V198.019H195.724V193.931Z" fill="#FFA412"/>
    <path d="M194.045 193.931H193.63V198.019H194.045V193.931Z" fill="#FFA412"/>
    <path d="M191.461 193.931H191.08V198.019H191.495L191.461 193.931Z" fill="#FFA412"/>
    <path d="M188.734 193.931H188.36V198.019H188.768L188.734 193.931Z" fill="#FFA412"/>
    <path d="M184.559 193.931H184.144V198.019H184.559V193.931Z" fill="#FFA412"/>
    <path d="M180.642 193.931H180.2V198.019H180.615L180.642 193.931Z" fill="#FFA412"/>
    <path d="M177.147 193.931H176.732V198.019H177.147V193.931Z" fill="#FFA412"/>
    <path d="M198.465 193.931H198.05V198.019H198.465V193.931Z" fill="#FFA412"/>
    <path d="M199.342 193.931H198.934V198.019H199.342V193.931Z" fill="#FFA412"/>
    <path d="M200.199 193.931H199.784V198.019H200.199V193.931Z" fill="#FFA412"/>
    <path d="M200.838 193.945V197.979C200.788 197.985 200.738 197.985 200.688 197.979H200.423V193.89H200.688L200.838 193.945Z" fill="#FFA412"/>
    <path d="M201.416 194.326V197.611C201.314 197.761 201.17 197.877 201.001 197.945V193.999C201.169 194.065 201.313 194.179 201.416 194.326Z" fill="#FFA412"/>
    <path d="M197.574 190.756V193.052C197.574 193.227 197.521 193.397 197.424 193.543C197.322 193.693 197.178 193.809 197.01 193.876C196.957 193.897 196.902 193.911 196.846 193.917H196.697H160.228C160.002 193.918 159.784 193.831 159.62 193.675C159.455 193.519 159.357 193.306 159.344 193.079V190.694C159.356 190.487 159.439 190.289 159.581 190.137C159.723 189.985 159.914 189.888 160.12 189.863H196.697H196.846L197.01 189.911C197.178 189.978 197.322 190.094 197.424 190.245C197.528 190.394 197.58 190.574 197.574 190.756Z" fill="#FFB93E"/>
    <path d="M179.67 193.931H160.133C159.919 193.92 159.717 193.827 159.57 193.671C159.423 193.515 159.342 193.308 159.344 193.093V190.708C159.346 190.512 159.415 190.324 159.539 190.172C159.662 190.021 159.834 189.917 160.024 189.877H177.256C177.589 191.459 178.438 192.885 179.67 193.931Z" fill="#FFA412"/>
    <path d="M193.12 189.87H192.705V193.958H193.12V189.87Z" fill="#FFA412"/>
    <path d="M191.76 189.87H191.352V193.958H191.76V189.87Z" fill="#FFA412"/>
    <path d="M190.053 189.87H189.638V193.958H190.053V189.87Z" fill="#FFA412"/>
    <path d="M187.476 189.87H187.061V193.958H187.476V189.87Z" fill="#FFA412"/>
    <path d="M184.749 189.87H184.334V193.958H184.749V189.87Z" fill="#FFA412"/>
    <path d="M180.567 189.87H180.152V193.958H180.567V189.87Z" fill="#FFA412"/>
    <path d="M176.657 189.87H176.242V193.958H176.657V189.87Z" fill="#FFA412"/>
    <path d="M173.162 189.87H172.72V193.958H173.135L173.162 189.87Z" fill="#FFA412"/>
    <path d="M194.48 189.87H194.065V193.958H194.48V189.87Z" fill="#FFA412"/>
    <path d="M195.357 189.87H194.942V193.958H195.357V189.87Z" fill="#FFA412"/>
    <path d="M196.207 189.87H195.792V193.958H196.207V189.87Z" fill="#FFA412"/>
    <path d="M196.853 189.883V193.917H196.704H196.445V189.829H196.704L196.853 189.883Z" fill="#FFA412"/>
    <path d="M197.424 190.258V193.522C197.322 193.672 197.178 193.789 197.01 193.856V189.911C197.181 189.979 197.327 190.101 197.424 190.258Z" fill="#FFA412"/>
    <path d="M201.382 186.708V188.997C201.382 189.174 201.33 189.348 201.232 189.495C201.132 189.645 200.987 189.759 200.818 189.822C200.765 189.844 200.71 189.86 200.654 189.87H164.036C163.809 189.872 163.591 189.786 163.426 189.629C163.261 189.473 163.163 189.259 163.152 189.032V186.613C163.171 186.428 163.247 186.255 163.369 186.115C163.491 185.976 163.653 185.879 163.832 185.836C163.896 185.829 163.96 185.829 164.023 185.836H200.641L200.804 185.883C200.974 185.949 201.119 186.065 201.219 186.217C201.323 186.36 201.38 186.531 201.382 186.708Z" fill="#FFB93E"/>
    <path d="M196.942 185.815H196.52V189.904H196.935L196.942 185.815Z" fill="#FFA412"/>
    <path d="M195.541 185.815H195.16V189.904H195.575L195.541 185.815Z" fill="#FFA412"/>
    <path d="M193.854 185.815H193.446V189.904H193.854V185.815Z" fill="#FFA412"/>
    <path d="M191.277 185.815H190.862V189.904H191.277V185.815Z" fill="#FFA412"/>
    <path d="M188.55 185.815H188.136V189.904H188.55V185.815Z" fill="#FFA412"/>
    <path d="M184.368 185.808H183.954V189.897H184.368V185.808Z" fill="#FFA412"/>
    <path d="M180.458 185.808H180.044V189.897H180.458V185.808Z" fill="#FFA412"/>
    <path d="M176.963 185.808H176.548V189.897H176.963V185.808Z" fill="#FFA412"/>
    <path d="M198.274 185.815H197.88V189.904H198.288L198.274 185.815Z" fill="#FFA412"/>
    <path d="M199.158 185.815H198.744V189.904H199.158V185.815Z" fill="#FFA412"/>
    <path d="M200.015 185.815H199.594V189.904H200.015V185.815Z" fill="#FFA412"/>
    <path d="M200.654 185.829V189.863H200.498H200.24V185.774H200.498C200.552 185.785 200.605 185.803 200.654 185.829Z" fill="#FFA412"/>
    <path d="M201.226 186.204V189.488C201.129 189.639 200.986 189.754 200.818 189.815V185.87C200.985 185.935 201.128 186.052 201.226 186.204Z" fill="#FFA412"/>
    <path d="M88.06 193.727H72.42V195.055H88.06V193.727Z" fill="#FFA412"/>
    <path d="M177.262 189.761H163.941V195.75H177.262V189.761Z" fill="#FFA412"/>
    <path d="M179.282 193.59L180.159 194.394L180.037 195.56L174.93 195.41L174.44 193.243L179.282 193.59Z" fill="#FFA412"/>
    <path opacity="0.5" d="M134.64 124.733L134.932 126.6C144.799 152.283 137.945 197.992 138.169 198.721L179.262 198.776C166.525 138.627 134.64 124.733 134.64 124.733Z" fill="#28A5FF"/>
    <path opacity="0.1" d="M77.9144 67.6578C77.9144 67.6578 77.2344 69.6475 76.7856 71.5555C73.2156 70.5606 72.1276 66.7856 71.8012 64.7822L77.9144 67.6578Z" fill="#0B111A"/>
    <path d="M88.4 121.36L91.63 113.476C91.8319 112.984 92.2073 112.582 92.6849 112.349C93.1624 112.115 93.709 112.065 94.2208 112.209C95.2197 110.304 96.661 108.668 98.4232 107.439C100.082 106.251 102.063 105.597 104.101 105.565C105.139 105.57 106.166 105.774 107.127 106.165C111.717 108.052 113.771 113.858 112.084 119.554L112.336 119.657C112.336 119.657 113.125 119.602 114.437 119.602C118.585 119.602 128.037 120.154 134.647 124.767C134.912 125.081 135.065 125.474 135.082 125.885C135.087 126.14 135.038 126.393 134.939 126.628C134.939 126.628 124.311 119.732 114.478 126.818C113.88 127.254 113.295 127.656 112.717 128.031L111.846 130.15C111.138 131.877 109.775 133.252 108.057 133.972C106.338 134.693 104.404 134.701 102.68 133.994L93.6768 130.294L91.8 129.524C90.2725 128.888 89.0577 127.674 88.4207 126.144C87.7838 124.615 87.7763 122.895 88.4 121.36ZM105.856 114.968L109.528 116.481C110.004 116.678 110.394 117.041 110.625 117.503C110.856 117.965 110.913 118.495 110.786 118.996L111.18 119.152C112.676 113.96 110.854 108.727 106.76 107.044C106.196 106.811 105.604 106.653 104.999 106.573C103.026 106.363 101.041 106.845 99.382 107.936C97.5944 109.087 96.1311 110.677 95.132 112.556L95.676 112.781C95.937 112.336 96.3496 112 96.8379 111.834C97.3263 111.669 97.8578 111.686 98.3348 111.882L102 113.388C102.138 113.053 102.372 112.767 102.672 112.566C102.972 112.365 103.325 112.257 103.686 112.256C103.92 112.259 104.15 112.305 104.366 112.393L104.87 112.604C105.313 112.787 105.667 113.138 105.853 113.581C106.039 114.024 106.042 114.523 105.862 114.968H105.856Z" fill="#657285"/>
    <path opacity="0.5" d="M112.724 127.997C113.295 127.629 113.88 127.227 114.485 126.791C124.318 119.704 134.946 126.6 134.946 126.6C135.047 126.366 135.093 126.112 135.082 125.858C133.6 124.876 128.024 121.612 121.108 122.723C113.016 124.018 111.52 125.162 112.724 127.997Z" fill="#404D63"/>
    <path opacity="0.5" d="M91.8 129.524L93.6768 130.294C90.8616 128.754 94.3568 122.253 96.3968 117.96C98.4368 113.667 101.517 115.629 101.517 115.629C101.721 115.216 102.037 114.869 102.429 114.628C102.822 114.387 103.274 114.261 103.734 114.267C103.724 113.904 103.828 113.547 104.032 113.248C104.236 112.948 104.529 112.72 104.87 112.597L104.36 112.393C104.144 112.302 103.913 112.256 103.68 112.256C103.319 112.256 102.966 112.363 102.667 112.565C102.368 112.766 102.136 113.053 102 113.388L98.328 111.882C97.8507 111.689 97.3202 111.674 96.8326 111.839C96.3449 112.003 95.9323 112.338 95.6692 112.781L95.1252 112.563C96.123 110.681 97.5894 109.09 99.382 107.943C101.037 106.848 103.021 106.366 104.992 106.58C104.637 106.285 104.334 105.933 104.094 105.538C102.056 105.57 100.075 106.224 98.4164 107.412C96.6551 108.642 95.214 110.278 94.214 112.182C93.7014 112.042 93.1554 112.094 92.6785 112.328C92.2015 112.563 91.8263 112.964 91.6232 113.456L88.4 121.36C87.7745 122.895 87.781 124.615 88.4182 126.145C89.0554 127.675 90.2713 128.89 91.8 129.524Z" fill="#404D63"/>
    <path d="M151.64 194.81V197.106C151.639 197.282 151.585 197.453 151.484 197.597C151.383 197.749 151.238 197.865 151.069 197.931L150.912 197.979H150.756H114.281C114.055 197.977 113.838 197.89 113.674 197.734C113.51 197.579 113.411 197.366 113.397 197.14V194.756C113.41 194.547 113.495 194.35 113.638 194.198C113.781 194.046 113.972 193.949 114.179 193.924H150.749H150.906L151.062 193.972C151.231 194.037 151.376 194.154 151.477 194.306C151.583 194.452 151.64 194.629 151.64 194.81Z" fill="#FFB93E"/>
    <path d="M133.722 197.985H114.186C113.972 197.973 113.771 197.88 113.625 197.724C113.478 197.568 113.396 197.362 113.397 197.147V194.756C113.399 194.56 113.467 194.371 113.591 194.22C113.715 194.069 113.886 193.965 114.077 193.924H131.315C131.645 195.508 132.492 196.937 133.722 197.985Z" fill="#FFA412"/>
    <path d="M147.193 193.924H146.778V198.013H147.193V193.924Z" fill="#FFA412"/>
    <path d="M145.792 193.924H145.377V198.013H145.792V193.924Z" fill="#FFA412"/>
    <path d="M144.106 193.924H143.691V198.013H144.106V193.924Z" fill="#FFA412"/>
    <path d="M141.528 193.924H141.114V198.013H141.528V193.924Z" fill="#FFA412"/>
    <path d="M138.802 193.924H138.387V198.013H138.802V193.924Z" fill="#FFA412"/>
    <path d="M134.64 193.924H134.225V198.013H134.64V193.924Z" fill="#FFA412"/>
    <path d="M130.71 193.924H130.295V198.013H130.71V193.924Z" fill="#FFA412"/>
    <path d="M127.214 193.924H126.8V198.013H127.214V193.924Z" fill="#FFA412"/>
    <path d="M148.532 193.924H148.118V198.013H148.532V193.924Z" fill="#FFA412"/>
    <path d="M149.41 193.924H148.995V198.013H149.41V193.924Z" fill="#FFA412"/>
    <path d="M150.28 193.924H149.865V198.013H150.28V193.924Z" fill="#FFA412"/>
    <path d="M150.906 193.938V197.972C150.854 197.978 150.801 197.978 150.749 197.972H150.491V193.883H150.749L150.906 193.938Z" fill="#FFA412"/>
    <path d="M151.477 194.319V197.611C151.376 197.762 151.231 197.879 151.062 197.945V193.999C151.23 194.061 151.374 194.173 151.477 194.319Z" fill="#FFA412"/>
    <path d="M145.221 190.756V193.052C145.22 193.227 145.168 193.397 145.071 193.543C144.969 193.693 144.825 193.809 144.656 193.876C144.604 193.896 144.549 193.91 144.493 193.917H107.868C107.643 193.918 107.426 193.831 107.262 193.674C107.099 193.518 107.002 193.305 106.991 193.079V190.694C107.003 190.469 107.101 190.257 107.264 190.101C107.427 189.945 107.643 189.857 107.868 189.856H144.384H144.493L144.656 189.904H144.731H144.779H144.826H144.867C144.9 189.925 144.929 189.95 144.956 189.979C144.963 189.997 144.975 190.014 144.99 190.026C145.08 190.123 145.147 190.239 145.187 190.365C145.227 190.491 145.239 190.624 145.221 190.756Z" fill="#FFB93E"/>
    <path d="M127.31 193.931H107.773C107.56 193.919 107.36 193.825 107.215 193.669C107.069 193.513 106.989 193.306 106.991 193.093C106.991 193.093 106.991 193.093 106.991 193.052V190.756C106.988 190.74 106.988 190.724 106.991 190.708C106.991 190.495 107.071 190.289 107.217 190.134C107.362 189.978 107.561 189.884 107.773 189.87H124.916V189.958C125.253 191.503 126.083 192.896 127.282 193.924L127.31 193.931Z" fill="#FFA412"/>
    <path d="M140.76 189.87H140.352V193.958H140.76V189.87Z" fill="#FFA412"/>
    <path d="M139.4 189.87H138.985V193.958H139.4V189.87Z" fill="#FFA412"/>
    <path d="M137.7 189.87H137.285V193.958H137.7V189.87Z" fill="#FFA412"/>
    <path d="M135.116 189.87H134.701V193.958H135.116V189.87Z" fill="#FFA412"/>
    <path d="M132.389 189.87H131.974V193.958H132.389V189.87Z" fill="#FFA412"/>
    <path d="M128.214 189.87H127.799V193.958H128.214V189.87Z" fill="#FFA412"/>
    <path d="M124.297 189.87H123.882V193.958H124.297V189.87Z" fill="#FFA412"/>
    <path d="M120.802 189.87H120.36V193.958H120.775L120.802 189.87Z" fill="#FFA412"/>
    <path d="M142.12 189.87H141.705V193.958H142.12V189.87Z" fill="#FFA412"/>
    <path d="M142.997 189.87H142.582V193.958H142.997V189.87Z" fill="#FFA412"/>
    <path d="M143.854 189.87H143.439V193.958H143.854V189.87Z" fill="#FFA412"/>
    <path d="M144.493 189.883V193.917H144.337H144.078V189.829H144.337L144.493 189.883Z" fill="#FFA412"/>
    <path d="M145.071 190.258V193.522C144.969 193.672 144.825 193.789 144.656 193.856V189.911C144.826 189.983 144.97 190.104 145.071 190.258Z" fill="#FFA412"/>
    <path d="M150.171 186.783V189.079C150.166 189.257 150.111 189.429 150.011 189.575C149.91 189.721 149.77 189.836 149.607 189.904L149.444 189.952H149.287H112.819C112.682 189.952 112.546 189.919 112.424 189.856C112.295 189.791 112.183 189.694 112.099 189.576C112.014 189.457 111.96 189.319 111.942 189.175V186.708C111.954 186.499 112.039 186.301 112.182 186.148C112.325 185.995 112.516 185.896 112.724 185.87H149.294H149.45L149.607 185.918C149.775 185.985 149.92 186.101 150.022 186.251C150.126 186.408 150.179 186.594 150.171 186.783Z" fill="#FFB93E"/>
    <path d="M132.26 189.958H112.724C112.599 189.96 112.477 189.927 112.37 189.863C112.249 189.793 112.147 189.694 112.072 189.575C111.997 189.457 111.953 189.321 111.942 189.182V186.708C111.942 186.512 112.01 186.323 112.134 186.171C112.258 186.02 112.43 185.916 112.622 185.877H129.88C130.204 187.407 131.004 188.796 132.165 189.842L132.26 189.958Z" fill="#FFA412"/>
    <path d="M145.731 185.897H145.316V189.986H145.731V185.897Z" fill="#FFA412"/>
    <path d="M144.323 185.897H143.915V189.986H144.323V185.897Z" fill="#FFA412"/>
    <path d="M142.644 185.897H142.229V189.986H142.644V185.897Z" fill="#FFA412"/>
    <path d="M140.08 185.897H139.665V189.986H140.08V185.897Z" fill="#FFA412"/>
    <path d="M137.36 185.897H136.945V189.986H137.36V185.897Z" fill="#FFA412"/>
    <path d="M133.158 185.897H132.743V189.986H133.158V185.897Z" fill="#FFA412"/>
    <path d="M129.248 185.897H128.833V189.986H129.248V185.897Z" fill="#FFA412"/>
    <path d="M125.752 185.897H125.338V189.986H125.752V185.897Z" fill="#FFA412"/>
    <path d="M147.064 185.904H146.649V189.992H147.064V185.904Z" fill="#FFA412"/>
    <path d="M147.948 185.904H147.56V189.992H147.975L147.948 185.904Z" fill="#FFA412"/>
    <path d="M148.798 185.904H148.383V189.992H148.798V185.904Z" fill="#FFA412"/>
    <path d="M149.444 185.918V189.952H149.294H149.029V185.863H149.287L149.444 185.918Z" fill="#FFA412"/>
    <path d="M150.015 186.292V189.577C149.912 189.725 149.768 189.839 149.6 189.904V185.958C149.768 186.027 149.912 186.143 150.015 186.292Z" fill="#FFA412"/>
    <path d="M147.485 182.728V185.025C147.487 185.2 147.435 185.371 147.336 185.515C147.234 185.666 147.089 185.782 146.921 185.849L146.758 185.89H146.71H110.16C109.934 185.889 109.717 185.802 109.553 185.646C109.389 185.49 109.29 185.278 109.276 185.052V182.667C109.288 182.441 109.387 182.227 109.551 182.071C109.716 181.915 109.934 181.829 110.16 181.829H146.608C146.658 181.822 146.708 181.822 146.758 181.829C146.814 181.835 146.868 181.849 146.921 181.87C147.089 181.937 147.234 182.054 147.336 182.204C147.442 182.358 147.494 182.542 147.485 182.728Z" fill="#FFB93E"/>
    <path d="M129.581 185.904H110.044C109.831 185.892 109.63 185.798 109.484 185.642C109.337 185.486 109.255 185.28 109.256 185.066V182.681C109.254 182.466 109.335 182.259 109.482 182.103C109.629 181.946 109.83 181.853 110.044 181.843H127.16C127.484 183.422 128.324 184.849 129.547 185.897L129.581 185.904Z" fill="#FFA412"/>
    <path d="M143.052 181.843H142.637V185.931H143.052V181.843Z" fill="#FFA412"/>
    <path d="M141.644 181.843H141.229V185.931H141.644V181.843Z" fill="#FFA412"/>
    <path d="M139.964 181.843H139.55V185.931H139.964V181.843Z" fill="#FFA412"/>
    <path d="M137.36 181.843H136.945V185.931H137.36V181.843Z" fill="#FFA412"/>
    <path d="M134.64 181.843H134.225V185.931H134.64V181.843Z" fill="#FFA412"/>
    <path d="M130.478 181.843H130.064V185.931H130.478V181.843Z" fill="#FFA412"/>
    <path d="M126.562 181.843H126.147V185.931H126.562V181.843Z" fill="#FFA412"/>
    <path d="M123.08 181.843H122.665V185.931H123.08V181.843Z" fill="#FFA412"/>
    <path d="M144.384 181.843H143.97V185.931H144.384V181.843Z" fill="#FFA412"/>
    <path d="M145.268 181.843H144.84V185.931H145.255L145.268 181.843Z" fill="#FFA412"/>
    <path d="M146.118 181.843H145.704V185.931H146.118V181.843Z" fill="#FFA412"/>
    <path d="M146.758 181.863V185.897H146.601H146.343V181.809H146.608C146.661 181.816 146.712 181.834 146.758 181.863Z" fill="#FFA412"/>
    <path d="M147.336 182.238V185.515C147.234 185.666 147.089 185.782 146.921 185.849V181.938C147.085 181.996 147.229 182.1 147.336 182.238Z" fill="#FFA412"/>
    <path d="M125.038 189.495L127.942 188.623L127.452 185.897C127.452 185.897 125.276 184.125 124.916 181.809L110.527 185.406V193.658H114.179V196.929H128.003V193.931C128.003 193.931 126.038 193.522 125.038 189.495Z" fill="#FFA412"/>
    <path d="M143.643 148.317C143.643 148.317 157.672 159.567 162.595 175.908C162.595 175.908 159.236 163.39 143.643 148.317Z" fill="white"/>
    <path d="M149.206 161.38C149.206 161.38 156.196 179.996 156.339 193.243C156.339 193.243 158.352 184.194 149.206 161.38Z" fill="white"/>
    <path d="M144.588 160.344C144.588 160.344 147.907 173.584 148.172 178.804C148.172 178.804 148.362 171.717 144.588 160.344Z" fill="white"/>
    <path d="M97.6208 101.824C98.3259 101.86 99.0179 102.029 99.6608 102.321C99.6608 102.321 98.668 103.085 97.6208 101.824Z" fill="white"/>
    <path d="M29.92 199.185C29.9538 199.41 30.073 199.614 30.2528 199.753C30.4327 199.893 30.6593 199.958 30.8856 199.934H272.054C272.169 199.966 272.29 199.97 272.407 199.947C272.524 199.924 272.634 199.874 272.729 199.802C272.823 199.729 272.9 199.636 272.953 199.529C273.006 199.422 273.033 199.304 273.033 199.185C273.033 199.065 273.006 198.947 272.953 198.84C272.9 198.733 272.823 198.64 272.729 198.567C272.634 198.495 272.524 198.445 272.407 198.422C272.29 198.399 272.169 198.404 272.054 198.435H30.8856C30.659 198.41 30.4315 198.474 30.2512 198.614C30.071 198.754 29.9522 198.958 29.92 199.185Z" fill="#4F5E74"/>
    <path d="M104.251 111.241C106.474 110.785 107.059 108.427 107.059 108.427C107.1 107.634 106.94 106.843 106.594 106.128C106.248 105.413 105.727 104.798 105.08 104.338C104.458 103.775 103.713 103.364 102.904 103.141C102.095 102.917 101.245 102.886 100.422 103.051L97.92 103.575C95.132 105.286 102 111.752 104.251 111.241Z" fill="#F99D7F"/>
    <path d="M97.036 107.602C97.036 107.602 100.715 102.567 100.436 102.512C94.9076 99.2483 92.6296 95.0576 91.596 93.8991C90.236 92.1479 94.7308 74.6968 93.2076 73.2999C91.6324 71.9824 89.9465 70.8038 88.1688 69.777C86.0132 68.9253 86.7544 69.1774 85.612 68.7549L85.51 68.7208L84.66 70.7651C86.1356 73.9609 77.5812 109.081 78.0572 109.258C78.5332 109.435 88.2572 116.863 88.4612 115.861C88.4612 115.704 84.0004 107.684 85 99.807C85.0579 99.0639 85.2181 98.3324 85.476 97.6333C86.1084 99.6776 87.346 100.243 89.1276 101.592C93.84 105.122 97.036 107.602 97.036 107.602Z" fill="#2864FF"/>
    <path d="M84.1976 180.575C84.1976 180.575 85.6936 191.839 85.5032 193.386C86.0336 195.587 92.9356 195.198 92.0992 194.026C91.7546 193.607 91.323 193.267 90.8344 193.031C90.0456 192.609 90.6576 176.725 90.6576 176.725L84.1976 180.575Z" fill="#F99D7F"/>
    <path d="M97.8656 195.151L91.2424 192.752C91.2424 192.752 88.876 193.829 85.1224 192.888C84.4283 193.981 83.9783 195.21 83.8032 196.493C83.7624 196.854 83.538 197.904 83.8916 197.979C85.1632 198.231 88.7196 198.312 92.7316 198.585C92.7316 198.585 98.1308 198.892 101.572 197.904C105.012 196.916 97.8656 195.151 97.8656 195.151Z" fill="#184655"/>
    <path d="M73.1544 107.855C73.1544 107.855 78.2272 107.548 82.7288 107.514C85.5508 113.108 89.5288 142.048 90.7732 148.099C90.27 157.782 91.1064 186.258 91.1064 186.258L82.9464 186.34L78.948 150.593C78.948 150.593 73.2836 131.786 71.2844 125.558C59.2348 123.37 68.5644 111.302 73.1544 107.855Z" fill="#404D63"/>
    <path d="M57.8748 170.926C57.8748 170.926 57.4872 190.892 57.0044 193.12C56.5216 195.348 63.614 197.277 63.0428 194.871C62.9068 194.319 62.2404 193.577 62.2472 193.413C62.3152 192.52 63.24 175.015 63.24 175.015L57.8748 170.926Z" fill="#F99D7F"/>
    <path d="M68.1156 195.307L62.6756 192.732C62.6756 192.732 60.2072 193.556 56.5556 192.234C55.7542 193.251 55.1813 194.43 54.876 195.689C54.7944 196.043 54.4068 197.992 54.7264 198.156C55.9028 198.762 60.0236 198.238 64.1036 198.51C66.7016 198.848 69.3323 198.848 71.9304 198.51C75.48 197.904 68.1156 195.307 68.1156 195.307Z" fill="#184655"/>
    <path d="M72.556 147.356C73.508 139.643 79.4444 118.226 79.4444 118.226L69.4688 101.872L55.4676 110.526C55.4676 110.526 56.8684 121.694 57.9156 124.679C59.3164 128.651 58.9084 153.026 58.9084 153.026L54.4544 183.171C54.4544 183.171 60.8736 184.855 62.6824 184.623C62.8864 184.623 71.6108 155.07 72.556 147.356Z" fill="#404D63"/>
    <path d="M85.5916 68.7685L78.1592 66.0428C78.1592 66.0428 74.902 65.7226 74.8476 65.709C74.2084 65.5659 68.7276 87.303 65.858 95.446C62.9884 103.589 62.6348 107.378 62.6348 107.378C62.6348 107.378 73.236 109.865 76.7584 109.987C78.2204 110.042 84.2384 110.948 84.2384 110.948C84.2384 110.948 81.5728 102.035 82.9192 94.5942C83.9528 88.843 86.4484 78.9216 86.428 76.6252C86.36 71.3238 85.5916 68.7685 85.5916 68.7685Z" fill="white"/>
    <path d="M81.0016 59.6989L78.0436 66.0973C78.0436 66.0973 79.2608 76.1414 82.1236 76.046C84.558 75.9711 85.408 69.0274 85.408 69.0274C85.408 69.0274 85.6596 67.4602 85.8704 65.6204C85.9709 64.414 86.2411 63.228 86.6728 62.0974C87.72 59.9646 81.0016 59.6989 81.0016 59.6989Z" fill="#F99D7F"/>
    <path d="M93.772 50.7315C93.772 50.7315 93.6904 55.4537 91.9768 58.2952C91.0279 59.9173 89.8195 61.3721 88.4 62.6017L87.176 49.5935L93.772 50.7315Z" fill="#404D63"/>
    <path d="M93.0716 58.2271C92.514 59.2492 91.5824 59.8148 90.9908 59.4877C90.3992 59.1606 90.3652 58.0703 90.9228 57.0482C91.4804 56.0261 92.4188 55.4605 93.0104 55.7876C93.602 56.1147 93.636 57.239 93.0716 58.2271Z" fill="#F99D7F"/>
    <path d="M83.742 48.5713C83.5992 48.4418 78.982 56.9186 80.342 60.2507C81.702 63.5829 85.8908 66.0973 88.23 64.7345C90.814 63.2694 94.35 53.6342 91.7592 49.7433C89.1684 45.8524 83.742 48.5713 83.742 48.5713Z" fill="#F99D7F"/>
    <path d="M88.1484 44.333C85.3332 44.6668 83.7148 45.2052 80.6684 47.1268C76.8944 49.4913 77.3908 54.9835 78.8664 58.0294C80.342 61.0753 79.3764 62.9356 79.3764 62.9356L80.1992 61.9407C80.7043 61.3741 81.0058 60.6546 81.056 59.8965C81.1512 59.3105 81.532 57.3344 81.5456 56.7552C81.5864 55.2288 81.6068 54.9085 82.6336 54.1385C83.4224 53.5457 84.2928 51.6377 85.5712 50.636L89.3248 52.1829C89.3248 52.1829 91.7048 53.1028 93.5612 52.619C98.8584 51.2425 95.6216 43.379 88.1484 44.333Z" fill="#404D63"/>
    <path d="M83.1708 55.5967C82.96 56.8164 82.2188 57.7091 81.5048 57.5932C80.7908 57.4774 80.3896 56.3803 80.6004 55.1606C80.8112 53.9408 81.5524 53.0414 82.2596 53.164C82.9668 53.2867 83.3748 54.3769 83.1708 55.5967Z" fill="#F99D7F"/>
    <path d="M94.9416 119.779C94.9416 119.779 94.0644 119.364 93.7856 119.2C93.5068 119.037 92.514 118.362 92.514 118.362C92.514 118.362 89.3656 115.902 89.5492 115.677C89.8526 115.386 90.2517 115.217 90.6712 115.2C90.7483 115.23 90.8214 115.268 90.8888 115.316L91.3172 114.212C90.855 113.843 90.3159 113.582 89.7396 113.449C87.1692 113.095 87.2168 113.558 86.8836 113.503C86.5504 113.449 82.5792 109.742 82.5792 109.742L79.3696 113.115C81.9468 115.159 82.552 115.773 83.0688 116.175C83.0688 116.175 84.354 118.253 85.204 119.534C85.9243 120.461 86.7713 121.283 87.72 121.973C88.5208 122.735 89.4141 123.392 90.3788 123.929C91.7388 124.699 90.78 123.316 90.78 123.316C90.78 123.316 88.4952 121.415 88.6652 121.272C88.8352 121.129 89.9912 122.26 91.494 123.125L92.616 123.766C93.5408 124.29 94.112 123.841 93.2212 123.139C92.8251 122.814 92.4046 122.52 91.9632 122.26C91.562 121.99 91.1823 121.689 90.8276 121.36C90.42 121.075 90.0315 120.763 89.6648 120.427C89.7124 120.427 89.6648 120.195 90.066 120.427C90.7796 120.94 91.5196 121.415 92.2828 121.851C92.718 122.042 93.602 122.498 93.602 122.498C94.0942 122.658 94.5993 122.774 95.1116 122.846C95.3972 122.403 94.4792 121.817 93.8536 121.64C93.4548 121.334 93.0239 121.074 92.5684 120.863C92.5684 120.863 90.848 119.5 91.0316 119.241C91.1064 119.132 92.2556 119.841 93.4796 120.345C94.7036 120.849 95.846 121.094 95.9684 120.87C96.1588 120.44 94.9416 119.779 94.9416 119.779Z" fill="#F99D7F"/>
    <path d="M76.602 65.8929C76.602 65.8929 69.054 65.2728 65.2868 66.3903C63.2468 67.5351 57.2832 88.6045 57.052 90.2399C56.372 94.9553 80.3148 116.876 80.3148 116.876L83.98 110.607C83.98 110.607 66.2252 91.5278 64.0628 87.6982C64.2124 81.4564 52.5912 108.972 52.9516 109.504C55.6716 112.842 70.6316 119.895 70.8764 118.675C71.4612 91.6232 76.602 65.8929 76.602 65.8929Z" fill="#2864FF"/>
</svg>
